<svg xmlns="http://www.w3.org/2000/svg" xmlns:xlink="http://www.w3.org/1999/xlink" viewBox="0 0 474.6 474.6"><defs><style>.cls-1{fill:#656d6f;}.cls-2{fill:url(#linear-gradient);}.cls-3{fill:#b590a2;}.cls-4{fill:url(#linear-gradient-2);}.cls-5{fill:url(#linear-gradient-3);}.cls-6{fill:#3c5764;}.cls-7{fill:#8f6286;}.cls-8{fill:#67c18c;}</style><linearGradient id="linear-gradient" x1="233.6" y1="289.49" x2="232.68" y2="359.07" gradientUnits="userSpaceOnUse"><stop offset="0" stop-color="#67c18c"/><stop offset="1" stop-color="#a1d5ba"/></linearGradient><linearGradient id="linear-gradient-2" x1="217.05" y1="334.87" x2="203.8" y2="323.31" gradientUnits="userSpaceOnUse"><stop offset="0" stop-color="#221f1f"/><stop offset="0.19" stop-color="#252222"/><stop offset="0.33" stop-color="#2e2b2b"/><stop offset="0.46" stop-color="#3e3b3b"/><stop offset="0.57" stop-color="#545151"/><stop offset="0.67" stop-color="#706e6e"/><stop offset="0.78" stop-color="#939292"/><stop offset="0.87" stop-color="#bdbcbc"/><stop offset="0.97" stop-color="#ecebeb"/><stop offset="1" stop-color="#fff"/></linearGradient><linearGradient id="linear-gradient-3" x1="230.97" y1="318.91" x2="217.72" y2="307.35" xlink:href="#linear-gradient-2"/></defs><title>Asset 1</title><g id="Layer_2" data-name="Layer 2"><g id="Layer_1-2" data-name="Layer 1"><path class="cls-1" d="M237.3,474.6A237.31,237.31,0,0,1,69.5,69.5,237.31,237.31,0,0,1,405.1,405.1,235.74,235.74,0,0,1,237.3,474.6Zm0-463.6C112.52,11,11,112.52,11,237.3S112.52,463.6,237.3,463.6,463.6,362.08,463.6,237.3,362.09,11,237.3,11Z"/><path class="cls-2" d="M236.53,269.65l0,0a62,62,0,0,0,19.3,9.68,101.48,101.48,0,0,1-1.55,13.37,91.27,91.27,0,0,1-2.12,9.28q2-3,3.87-6.09a103.66,103.66,0,0,0,7.19-14.84,63,63,0,0,0,10.44.87,62,62,0,0,0,36.8-12,37.41,37.41,0,0,0,4.25,1,167.12,167.12,0,0,0-44.6,57.54c-.93,2-1.83,4-2.68,6A165.35,165.35,0,0,0,255,384.73a167.63,167.63,0,0,1-61.6-2.88c.84-4.3,1.52-8.65,2-13.05a165.54,165.54,0,0,0,1.08-19c0-2.25,0-4.49-.15-6.73a165.84,165.84,0,0,0-41-102.88c-.63-.76-1.29-1.49-2-2.23a40.89,40.89,0,0,0,12.48,1.94h0a105.24,105.24,0,0,1,16.21,1.62v0a103.38,103.38,0,0,0,13.38,37,104.64,104.64,0,0,0-.88-33.93,104.31,104.31,0,0,1,33.93,18l0,0Z"/><circle class="cls-3" cx="214.6" cy="350.1" r="4.7"/><circle class="cls-3" cx="247.49" cy="350.1" r="4.7"/><circle class="cls-4" cx="215.27" cy="333.32" r="2.68"/><circle class="cls-5" cx="247.49" cy="333.32" r="2.68"/><path class="cls-6" d="M230.88,358a8.07,8.07,0,0,1-8-7.13l.93-.11a7.13,7.13,0,0,0,14.17,0l.94.11A8.08,8.08,0,0,1,230.88,358Z"/><path class="cls-7" d="M365.36,215.3a42.57,42.57,0,0,1-46.15,59,38,38,0,0,1-4.38-1,63.77,63.77,0,0,1-37.91,12.4,64.65,64.65,0,0,1-10.76-.9,61.46,61.46,0,0,1-7.61-1.77,63.79,63.79,0,0,1-19.89-10h0a102,102,0,0,0-8.19-7.23l0,0a107.48,107.48,0,0,0-35-18.57,105.94,105.94,0,0,0-12.87-3.13h0a106.78,106.78,0,0,0-16.7-1.67h0a42,42,0,0,1-12.86-2l0-.05a42.61,42.61,0,0,1-26-23.44c-.57-1.32-1.08-2.65-1.53-4a42.64,42.64,0,0,1-.05-26c.14-.43.28-.86.45-1.28,0-.15.09-.29.16-.45v0a64,64,0,0,1-2.62-18.21c0-.55,0-1.09,0-1.63A63.54,63.54,0,0,1,127,145.47a64.23,64.23,0,0,1,91.23-35.06,64.2,64.2,0,0,1,85.28,10.16,65.05,65.05,0,0,1,7,9.69,64.28,64.28,0,0,1,54.83,85Z"/><path class="cls-8" d="M238.4,256.28c4.6.64,9.2,1.41,13.81,1.9,6.44.68,12.47-.14,17.72-2.83,4.82-2.47,4.16-6.54,3.1-10.74l3.89,7.36c-.62.18-2,.19-2.51.77-5.31,6.26-12.8,8.1-22.28,6.19-.47-.1-1,.21-1.53.33Z"/><path class="cls-8" d="M233.68,146.09c-4,10.17-8.49,20.19-11.67,30.58-1.82,5.93-2.14,12.41,3.1,18.56,5.78,6.8,18,10.76,27.06,8.89a85.41,85.41,0,0,1,16.46-1.92c14.09-.1,14.33-5.22,15.72-13.95a24.18,24.18,0,0,1,.49-3.7c1.49,7.16,1.53,13.94-6.12,18.79,2.51,1.3,4.79,2.39,7,3.63s4.71,2.45,6.47,4.1c2.27,2.12,4.19,4.85,7.82,4.5a56.54,56.54,0,0,0,11.79-2.5c2-.63,3.47-2.25,5-3.59a60.29,60.29,0,0,0,4.1-4.44c-1.18,6.46-10.59,12.48-18.95,12.32-4.05-.08-5.72,1-6.12,4.18a25.34,25.34,0,0,1-2.41,7.73c.3-2.11.56-4.23.91-6.33,1.23-7.52-3.82-12.52-11.67-15.59-8.76-3.42-17.82-5.3-26.89-2.43-9.27,3-13.87,9.46-10.27,18.15a15.82,15.82,0,0,1,.52,2c-3.5-4.65-3.55-7.63-.48-17-20.73-10.51-35.09-6.1-35.38,18.47-2.78-6.93-.19-12.26,1.82-18.27l-7.54-3.83c3.81-.14,7.82,3.2,11.82.69,3.22-2,6.86-3.59,10.26-5.33-8.93-9.24-9.94-18.49-5.38-28q5.73-11.93,11.54-23.82a13.64,13.64,0,0,1,1.45-2Z"/><path class="cls-8" d="M140.15,180.26c-2.39.29-4.57,7.17-4.72,9.2-.31,4.06,1.95,7.33,4.66,10.12,5.77,6,14,6.85,21.87,5.48.21,8.78,5.38,15.45,15.54,20.4-10.15-2.05-15.38-7.67-17.25-18-3.66-.42-7.43-.62-11.12-1.31-10.61-2-16.55-10.49-14.73-19,.9-4.23-1.18-5.37-3.63-8.18a15.22,15.22,0,0,1-3.76-9.92c0-3.68,2.14-10.42,5.91-11.59a40.65,40.65,0,0,1-3.18,5.88c-3.37,5-.84,9.94,2.34,14.71C133.83,180.72,135.12,180.87,140.15,180.26Z"/><path class="cls-8" d="M310.94,256.58c2.66-1.6,5.74-2.88,7.9-4.86,4.73-4.31,10.66-6.76,17.39-8.59,5.46-1.49,11-3.39,15.44-6.19s6-7.42,5.84-12.25c-.18-5.09-.9-10.21-1.38-15.32l-.12,0,3.13,5.48,2.49-1.25-.1-.12c-2.8,4.93-2.79,10.38-3.24,15.88-.58,7-6.51,11-14,13.47a13.39,13.39,0,0,1-2.43.65c-10.25,1.34-18.69,5-25.18,11.43-1.12,1.11-3.83,1.09-5.8,1.59Z"/><path class="cls-8" d="M201.57,126.92l13.52,1.58c1.48-4.41-4.53-5-6.35-7.44,5.58,1.63,7,3.63,8.29,8.49.61,2.28,3.42,4.34,5.59,6.93,3.37-5,3.49-10.88,11.25-13.16-9,7.39-9.75,17.15-13.48,26.88.27-1.9.34-2.77.53-3.62,1.82-8.27-4-15.78-14.29-18.37-1.72-.43-3.43-.94-5.14-1.42Z"/><path class="cls-8" d="M191.59,229.13a6.28,6.28,0,0,1,3.73-1.14c4.51.09,5.89,8.25,8.88,10.78A24.17,24.17,0,0,0,218.4,244a10.87,10.87,0,0,1,3.37.42,9,9,0,0,1,2.3,1.48l11.48,9.14c-2.62-2.08-6.83-3.86-9.86-5.48-2.37-1.28-4.82-2.85-7.39-3.34a36.22,36.22,0,0,1-15-6.17C199.11,236.94,195.53,232.6,191.59,229.13Z"/><path class="cls-8" d="M355.72,208.93c-.22-.51-.57-1-.85-1.49-2.74-4.95-8-5.92-12-2.2a19.69,19.69,0,0,1-3.37,2.67c2-1.2.88-11.72.65-13.76-.47-4.1-1.36-8.76-3.47-12.36.63,1.1,1.26,2.21,1.9,3.31a17.48,17.48,0,0,0,2.21,3.66c.82.86,2.28,1.33,3.72,2.13-4.07,2.63-3.8,6.43-1.81,10.42,3.89-.05,7.35-1.55,10.25,2C354.29,205,354.85,207,355.72,208.93Z"/><path class="cls-8" d="M178.36,184.51c4.87-3.54,1.68-7.23-.29-10.88l1.5-.19c.82,2.31,2.21,4.66,2.32,6.94s1.11,3.8,3.52,5c9.76,4.8,11,6.77,9.51,15.37l4.57,2.3-10.11,0c4.12-3.12,6.31-6.83,3.11-11.6C189.55,187,184.41,185.43,178.36,184.51Z"/><path class="cls-8" d="M179.13,146.44l0,0a2.17,2.17,0,0,0,.62-.89c2.24-4.72,4.15-10,6.93-14.42a8.56,8.56,0,0,1,1.61.5c-3.38-1.24-7.73,21.41-8.1,23.16a2.48,2.48,0,0,1-.64,1.41c-.4.34-1.15.3-1.32-.2.18-1.75,1.72-3.41,1.11-5.07a3.37,3.37,0,0,0-1-1.35,9.69,9.69,0,0,0-6.73-1.92,28.59,28.59,0,0,0-7,1.57c.61-2,3-2.64,5.1-2.81a35.8,35.8,0,0,1,7.81.2A2.33,2.33,0,0,0,179.13,146.44Z"/><path class="cls-8" d="M317.67,159.74c.12.23.4.52.32.67-2.26,4.39.72,7.1,4.53,8.79-2.07,0-5.51-.73-7.33.31s-2.88,3.82-3.42,6c-1,4.09-1.35,8.34-1.91,12.13-2.81-10.49,2.19-19.34,8-28Z"/><path class="cls-8" d="M317.49,158.53c-1.79-8.38-11-13-18.12-16.19-2.05-.93-4.33-1.47-6.43-2.32,5.05,2,10.5,2.14,15.42,5.35C313,148.39,316.63,153,317.49,158.53Z"/><path class="cls-8" d="M341.83,228.88c-2.26,6.05-17.7,8-26.16,3.43C325.57,235.29,334.22,234.2,341.83,228.88Z"/><path class="cls-8" d="M274.09,137.94q1,2.7,2,5.4l1.9-.44c-1.63.38-4.78,4.38-6,5.49l-7.48,6.8C269,151.15,275.3,144.43,274.09,137.94Z"/><path class="cls-8" d="M199.82,183.38c-6.43-5.14-10.33-10.38-10.65-16.44C192.44,172,195.92,177.37,199.82,183.38Z"/><path class="cls-8" d="M310.91,256.55c-3.1.93-6.07,2.36-9.33,2.7-5.7.6-11.54.29-16.76-3.32,8.94,2.53,17.77,4.08,26.13.66Z"/><path class="cls-8" d="M274,137.29c-5.28-7-14-9.86-22.25-13.29a42.22,42.22,0,0,1,20.34,9.8c1,.88,1.22,2.34,1.8,3.53Z"/><path class="cls-1" d="M42.59,264.35a2.5,2.5,0,0,0-.67,0,1.07,1.07,0,0,0-.56.36,1,1,0,0,1-.62.37c-.39.07-.66-.34-.78-1.25q-.06-.51-.18-1.14c-.07-.41-.13-.8-.17-1.14s-.09-.81-.11-1.16,0-.71-.09-1.06-.1-.81-.16-1.16-.11-.74-.15-1.16a9.36,9.36,0,0,0-.17-1.06,11.29,11.29,0,0,1-.17-1.17c-.07-.79-.28-1.16-.64-1.12a1.84,1.84,0,0,1-.67,0,2.12,2.12,0,0,0-.67,0,1.11,1.11,0,0,0-.64.29,1.14,1.14,0,0,1-.65.29,1.26,1.26,0,0,1-.67-.09,1.26,1.26,0,0,0-.67-.09l-1.26.14-1.32.14-1.32.15a4.92,4.92,0,0,1-.67,0,4.66,4.66,0,0,0-.66,0,2,2,0,0,0-.66.18,1.62,1.62,0,0,1-.58.18,5,5,0,0,0-.63.13,3.83,3.83,0,0,1-.69.13l-1.32.15a4.56,4.56,0,0,0-.68.13,3.07,3.07,0,0,1-.63.13,3.75,3.75,0,0,1-.66,0,3.8,3.8,0,0,0-.67,0l-1.26.14a2.25,2.25,0,0,1-.67,0,2.26,2.26,0,0,0-.67-.05,3.53,3.53,0,0,1-.66,0,3.69,3.69,0,0,0-.67,0,1.22,1.22,0,0,0-.64.31,1.26,1.26,0,0,1-.64.31,2.94,2.94,0,0,1-.66,0,4.12,4.12,0,0,0-.61,0,3.56,3.56,0,0,0-.68.14,3.93,3.93,0,0,1-.63.13,3.2,3.2,0,0,1-.69,0,4.51,4.51,0,0,0-.64,0l-1.32.15-1.26.14L9.38,257l-1.32.14a1.76,1.76,0,0,1-.67-.05,2.26,2.26,0,0,0-.67-.05,1.71,1.71,0,0,0-.65.2,1.63,1.63,0,0,1-.59.19,3.2,3.2,0,0,1-.69,0,4.48,4.48,0,0,0-.64,0,1.65,1.65,0,0,1-.67-.05,1.65,1.65,0,0,0-.67-.06c-.4.05-.63-.27-.69-.95,0-.43-.09-.86-.16-1.28s-.13-.89-.17-1.41a13.42,13.42,0,0,1,0-1.43,11.35,11.35,0,0,0,0-1.43,9.64,9.64,0,0,0-.18-1.42,9.42,9.42,0,0,1-.16-1.3A2.39,2.39,0,0,1,1.63,247c.14-.35.29-.54.45-.55a3.64,3.64,0,0,1,.67,0,2.82,2.82,0,0,0,.66,0,2,2,0,0,0,.63-.17,1.8,1.8,0,0,1,.69-.17,2.69,2.69,0,0,1,.63,0,3.24,3.24,0,0,0,.7,0,3,3,0,0,1,.6,0,2.93,2.93,0,0,0,.67,0l1.32-.08a2.07,2.07,0,0,1,.67.09,2.35,2.35,0,0,0,.67.08l1.32-.09A1,1,0,0,0,12,246a.93.93,0,0,1,.59-.28,1,1,0,0,1,.65.2,1,1,0,0,0,.7.21,3.73,3.73,0,0,0,.63-.1,3.82,3.82,0,0,1,.69-.11,2,2,0,0,0,.63-.16,1.94,1.94,0,0,1,.68-.17,3.67,3.67,0,0,1,.67,0,2.84,2.84,0,0,0,.66,0,3.16,3.16,0,0,1,.61,0,4.66,4.66,0,0,0,.66,0,2.3,2.3,0,0,0,.66-.17,2.11,2.11,0,0,1,.66-.16,3.77,3.77,0,0,1,.66,0,5.15,5.15,0,0,0,.67,0,5.74,5.74,0,0,0,.65-.1,3.42,3.42,0,0,1,.66-.1,1.26,1.26,0,0,1,.67.13,1.17,1.17,0,0,0,.62.14l1.32-.08a3.82,3.82,0,0,0,.69-.11,3.68,3.68,0,0,1,.63-.09l1.32-.09a1.29,1.29,0,0,0,.66-.21,1.14,1.14,0,0,1,.59-.21,1.59,1.59,0,0,1,.67.13,1.59,1.59,0,0,0,.67.13,5.11,5.11,0,0,1,.67,0,3.75,3.75,0,0,0,.66,0,1.57,1.57,0,0,0,.66-.21,1.49,1.49,0,0,1,.65-.21,4.17,4.17,0,0,0,.66-.1,3.11,3.11,0,0,1,.6-.09l1.32-.09a2.06,2.06,0,0,1,.67.07,1.82,1.82,0,0,0,.67.07c.36,0,.52-.43.48-1.24,0-.45,0-.86,0-1.23a8.23,8.23,0,0,0,0-1.11c0-.93,0-1.4-.06-2.34a9.92,9.92,0,0,1,0-1.24c0-.37,0-.75,0-1.12s0-.79-.08-1.24-.07-.87-.07-1.25q0-1,.66-1a1.08,1.08,0,0,0,.66-.23,1,1,0,0,1,.61-.22,5.42,5.42,0,0,1,.66.05,4,4,0,0,0,.66.06,2,2,0,0,1,.67.11,1.81,1.81,0,0,0,.6.11c.44,0,.66.37.67,1.1a7.58,7.58,0,0,0,.1,1.21,10.43,10.43,0,0,1,.06,2.41,10.1,10.1,0,0,0,0,1.1q0,.54.06,1.14c0,.39,0,.81.07,1.24s0,.72,0,1.08,0,.76,0,1.19a6.57,6.57,0,0,1,0,1.19,6.41,6.41,0,0,0,0,1.07,6.65,6.65,0,0,0,.15,1.17,6.31,6.31,0,0,1,.16,1.06c0,.35.06.74.1,1.16s.09.81.12,1.16a7.5,7.5,0,0,1,0,1.06,5.71,5.71,0,0,0,0,1.17,6.16,6.16,0,0,0,.19,1.14,6,6,0,0,1,.18,1,8.72,8.72,0,0,1,0,1.16,8.6,8.6,0,0,0,0,1.15c0,.34.08.68.14,1s.11.71.16,1.12.08.79.1,1.14,0,.68.09,1a7.59,7.59,0,0,0,.23,1.11,7.48,7.48,0,0,1,.23,1.1c.1.74-.1,1.16-.62,1.25a4,4,0,0,1-.6,0,4.06,4.06,0,0,0-.67.06A2.94,2.94,0,0,1,42.59,264.35Zm-.78-23.5c0,.13,0,.2,0,.33a1.42,1.42,0,0,0,0-.66S41.8,240.63,41.81,240.85ZM40.11,245l.07.11q0,.1.06,0c0-.15,0-.22-.07-.22l-.3,0c0,.07.08.11.12.1ZM9.68,249.54c0-.16,0-.23,0-.38,0,0-.06,0-.06.13l0,.25Zm11.66-1a6.83,6.83,0,0,0,.65.66c0-.08.08-.2.16-.37l0-.24-.05.12a.63.63,0,0,1-.44-.2Q21.45,248.26,21.34,248.51Zm13.25-.8s-.06-.05-.07-.17,0-.16-.07-.16.06.07.07.22v.11Zm-30,2.35H4.7s-.09,0-.13-.12l0-.25C4.57,249.93,4.59,250.06,4.63,250.06Zm3.43-.4v0Zm16.84-.26a3.73,3.73,0,0,0,.13,1c0-.14,0-.22,0-.36.27-.18.4-.31.4-.38s0,0-.15-.34l.05-.24a1.27,1.27,0,0,0-.46-.66A3.34,3.34,0,0,0,24.9,249.4Zm-3.68.07v-.24a.51.51,0,0,0,0-.24l-.25-.1.08.24.13.22Zm-15.36.88H6a.19.19,0,0,1,.19.11v-.13l-.07-.12L6,250.08C6,250.18,5.93,250.24,5.86,250.35Zm15.55-.77h.06s-.06,0-.07-.11ZM34.67,249a1.42,1.42,0,0,0,.16-.46,3.18,3.18,0,0,0-.33.59c0,.17.06.26.09.44,0,0,.06-.08,0-.23S34.66,249.18,34.67,249Zm-5.84.27-.08-.22a.9.9,0,0,0-.1.35l.1-.35Zm-13.84,1h.12v-.12Zm-8.78,2.52c0,.08.13.07.24,0l.1-.27v.13h.06v-.25a2.2,2.2,0,0,0-.51-.34A2.51,2.51,0,0,0,6.21,252.87Zm29.36-3.13h-.12l.07.22a.46.46,0,0,1,.08.21.22.22,0,0,0,0-.22C35.53,249.82,35.53,249.74,35.57,249.74Zm-2.34.32L33,250a1.19,1.19,0,0,0,.16.55c0,.07.1,0,.15-.13s.09-.19.14-.12l-.07-.11H33.3ZM17.1,252.84a6,6,0,0,0,.81.29.68.68,0,0,1-.44-.2,1.44,1.44,0,0,0,.08-.61c0-.33-.08-.48-.16-.47a.39.39,0,0,0-.39.4.8.8,0,0,0,.08.29A.4.4,0,0,1,17.1,252.84Zm21.49-2.28,0-.11-.11.12.14.2A.46.46,0,0,0,38.59,250.56ZM4.91,254.14l.18,0a1.37,1.37,0,0,1-.09-.5v.25C5,254,5,254,5,254S4.91,254.05,4.91,254.14Zm11-1.31V253a.89.89,0,0,1,.33,0,.72.72,0,0,0,.28,0s-.1,0-.19-.1-.15-.11-.19-.1Zm8.79-.6.08.22c0,.08,0,.12.07.11a.45.45,0,0,1,0-.35v-.11Zm18.2,7.13v.1l.09.2C43.05,259.45,43,259.35,42.94,259.36Z"/><path class="cls-1" d="M33.66,318.87a5.57,5.57,0,0,1-.6.32,3.87,3.87,0,0,1-.63.21,4.42,4.42,0,0,0-.64.22,3.71,3.71,0,0,1-.66.23,4.84,4.84,0,0,0-.61.21,3.63,3.63,0,0,0-.59.32,4.14,4.14,0,0,1-.55.29l-1.23.53a2,2,0,0,1-.65.17,2.45,2.45,0,0,0-.66.17,2.2,2.2,0,0,0-.57.37,2.94,2.94,0,0,1-.58.37l-1.23.53a2.47,2.47,0,0,1-.65.17,2.37,2.37,0,0,0-.66.16,2.13,2.13,0,0,0-.58.37,1.76,1.76,0,0,1-.52.35,2.34,2.34,0,0,1-.68.17,1.83,1.83,0,0,0-.63.16,3.34,3.34,0,0,0-.62.33,3.91,3.91,0,0,1-.57.3,2.16,2.16,0,0,0-.57.37,2.16,2.16,0,0,1-.58.38.76.76,0,0,1-.77-.22,2.33,2.33,0,0,1-.68-1c-.19-.49-.36-1-.53-1.49l-.48-1.39L15.37,320c-.2-.49-.38-.95-.53-1.38a3.2,3.2,0,0,1-.17-1.34c0-.46.16-.73.39-.82a2,2,0,0,1,.66-.14,1.8,1.8,0,0,0,.66-.13,3.17,3.17,0,0,0,.55-.28,3.85,3.85,0,0,1,.61-.29,2.48,2.48,0,0,1,.66-.14,2.15,2.15,0,0,0,.66-.13l1.19-.47,1.25-.48a2,2,0,0,0,.53-.33,2,2,0,0,1,.59-.34l1.25-.49,1.2-.46a3.52,3.52,0,0,1,.64-.19,3.77,3.77,0,0,0,.64-.19,3.06,3.06,0,0,1,.59-.17,5,5,0,0,0,.64-.19l1.25-.49,1.19-.46a3.86,3.86,0,0,1,.64-.2,3.52,3.52,0,0,0,.64-.19c.5-.19.57-.78.23-1.78a5.73,5.73,0,0,1-.24-1,7,7,0,0,0-.25-1,6,6,0,0,0-.41-1,5.83,5.83,0,0,1-.4-1c-.11-.34-.22-.68-.35-1s-.24-.66-.34-1c-.29-1-.66-1.36-1.12-1.2a2.14,2.14,0,0,0-.6.32,2.14,2.14,0,0,1-.6.32,3.61,3.61,0,0,1-.65.16,1.59,1.59,0,0,0-.59.15,1.7,1.7,0,0,1-.62.26,5.9,5.9,0,0,0-.65.17,2.15,2.15,0,0,1-.64.1,2.09,2.09,0,0,0-.69.12,1.76,1.76,0,0,0-.55.3,2.14,2.14,0,0,1-.6.32,2,2,0,0,1-.66.11,1.78,1.78,0,0,0-.67.11,3.1,3.1,0,0,0-.56.25,4.3,4.3,0,0,1-.61.27,2.12,2.12,0,0,0-.61.32,2.07,2.07,0,0,1-.6.32,2.41,2.41,0,0,1-.59.14,3.69,3.69,0,0,0-.65.17,4.71,4.71,0,0,1-.65.16,2.93,2.93,0,0,0-.65.16,3.1,3.1,0,0,0-.56.25,4,4,0,0,1-.62.27,3.85,3.85,0,0,0-.61.27,4,4,0,0,1-.56.25,4,4,0,0,0-.62.27,4,4,0,0,1-.62.27c-.23.08-.51,0-.84-.38a2.77,2.77,0,0,1-.69-1.18c-.13-.45-.25-.94-.36-1.48s-.22-1-.35-1.48-.27-1.06-.37-1.6-.21-1-.33-1.5c-.34-1.29-.24-2,.26-2.16a1.31,1.31,0,0,1,.68,0,1.25,1.25,0,0,0,.69,0l1.28-.37,1.28-.38a2.75,2.75,0,0,1,.66-.13,4.49,4.49,0,0,0,.65-.14,3.34,3.34,0,0,1,.66-.13,3.46,3.46,0,0,0,.65-.14,1.3,1.3,0,0,0,.54-.33,1.42,1.42,0,0,1,.6-.36l1.28-.38,1.28-.37a3.92,3.92,0,0,0,.63-.25,5,5,0,0,1,.63-.24,2.21,2.21,0,0,1,.66-.08,2.28,2.28,0,0,0,.67-.08,5,5,0,0,0,.63-.24,3.92,3.92,0,0,1,.63-.25,5,5,0,0,1,.65-.13,5.44,5.44,0,0,0,.66-.14,2.94,2.94,0,0,1,.59-.12,3.65,3.65,0,0,0,.66-.13,1.51,1.51,0,0,0,.6-.35,1.38,1.38,0,0,1,.6-.35,1.93,1.93,0,0,1,.66-.08,2,2,0,0,0,.67-.09,2.27,2.27,0,0,1,.67-.08,2.19,2.19,0,0,0,1.28-.38,2.29,2.29,0,0,1,.61-.29,3.56,3.56,0,0,1,.66-.14,3.46,3.46,0,0,0,.65-.14,1.24,1.24,0,0,0,.55-.32,1.28,1.28,0,0,1,.6-.34,2.19,2.19,0,0,1,.66-.09,2.26,2.26,0,0,0,.67-.09,6.53,6.53,0,0,0,.63-.24,5,5,0,0,1,.63-.24c.19,0,.41-.1.65-.14a3.7,3.7,0,0,0,.65-.14,2.73,2.73,0,0,1,.67-.08,2.54,2.54,0,0,0,.66-.1,2.25,2.25,0,0,0,.62-.28,2.44,2.44,0,0,1,.62-.29,4.45,4.45,0,0,0,.57-.22,4,4,0,0,1,.62-.24l1.29-.38a.73.73,0,0,1,.72.26,1.93,1.93,0,0,1,.52.93c.27,1,.41,1.56.69,2.59.11.38.21.79.32,1.24s.21.87.32,1.24c.23.82.09,1.32-.45,1.5l-1.33.45-1.32.45a2.87,2.87,0,0,0-.6.31,2.78,2.78,0,0,1-.67.33,3.74,3.74,0,0,1-.62.16,4.46,4.46,0,0,0-.67.18,2.91,2.91,0,0,0-.66.33,2.51,2.51,0,0,1-.61.31,5.71,5.71,0,0,1-.71.19,3.73,3.73,0,0,0-.64.17,5.68,5.68,0,0,1-.71.18,5.1,5.1,0,0,0-.65.17,4.76,4.76,0,0,1-.65.16,5.56,5.56,0,0,0-.7.19c-.5.17-.6.75-.3,1.75.1.33.19.67.28,1s.17.67.27,1a8.13,8.13,0,0,0,.38,1,10,10,0,0,1,.37,1c.11.33.21.66.29,1s.19.66.3,1c.31.91.71,1.27,1.2,1.07a5.64,5.64,0,0,1,.7-.21,4.4,4.4,0,0,0,.64-.2,5.79,5.79,0,0,0,.67-.31,4.16,4.16,0,0,1,.61-.29,2.61,2.61,0,0,0,.59-.34,2.76,2.76,0,0,1,.65-.36,4.44,4.44,0,0,1,.64-.19,5.68,5.68,0,0,0,.7-.22l1.3-.51a5,5,0,0,1,.64-.19,3.59,3.59,0,0,0,.64-.2,5.68,5.68,0,0,1,.7-.22,4.44,4.44,0,0,0,.64-.19,2.76,2.76,0,0,0,.65-.36,3.11,3.11,0,0,1,.6-.34c.49-.19.89.18,1.21,1.08.13.36.28.75.45,1.16s.33.83.48,1.25c.36,1,.54,1.45.91,2.41s.22,1.36-.3,1.58a3.36,3.36,0,0,0-.6.32,5.58,5.58,0,0,1-.6.31l-1.23.53a1.5,1.5,0,0,1-.67.14,1.48,1.48,0,0,0-.67.13,3.5,3.5,0,0,0-.54.29,4.17,4.17,0,0,1-.6.31,4.63,4.63,0,0,1-.63.22,5.93,5.93,0,0,0-.64.22,2.7,2.7,0,0,0-.58.36,2.29,2.29,0,0,1-.58.36,2.65,2.65,0,0,1-.65.18,2.47,2.47,0,0,0-.65.17,1.82,1.82,0,0,0-.56.41,1.77,1.77,0,0,1-.56.4,4.61,4.61,0,0,1-.63.23,4.34,4.34,0,0,0-.64.22,2.37,2.37,0,0,1-.65.17,2.28,2.28,0,0,0-.65.17l-1.18.51a1.26,1.26,0,0,0-.54.46,1.26,1.26,0,0,1-.54.46,2,2,0,0,1-.65.17,2.38,2.38,0,0,0-.66.17A3.63,3.63,0,0,0,33.66,318.87ZM15.1,299.93c.1,0,.23-.07.29-.33a.21.21,0,0,0,.14-.16.89.89,0,0,1-.44-.11c-.21-.09-.34-.06-.37.12C14.81,299.82,15,299.93,15.1,299.93Zm25.59-8.17s.07,0,.08.08l-.07-.3Zm-4.76,1.69c0,.05.1.08.14.06l.12,0a.47.47,0,0,1-.12-.18c0-.14-.07-.2-.11-.19l-.06.24ZM14.54,300l.06,0-.06-.22-.17.06c-.08,0-.11.07-.09.14Zm25.29-7.21c.25.13.38.16.4.08a.25.25,0,0,0-.26,0,.74.74,0,0,0,0-.33c0-.2-.21-.29-.25-.24a.49.49,0,0,0,0,.31Zm-.66-.33-.11,0a1.3,1.3,0,0,0,.65.33,1.23,1.23,0,0,0-.27-.18Zm-11.66,3.63c0,.14-.05.22-.09.36l.18-.05S27.61,296.26,27.51,296.07Zm13.1-3.66-.13-.27a2.45,2.45,0,0,0,.08.29ZM35,294.08s-.07,0-.08-.09-.05-.09-.09-.08l.11.18Zm6-1.68-.11-.17c0,.11,0,.17.08.29Zm-9.57,2.78c0,.13,0,.19.09.31a.67.67,0,0,1,0-.33Zm3.74-1.06c.06.2.1.3.14.28a.69.69,0,0,1,0-.31Zm5.36-1.36c0,.08-.14.12-.21.17s-.1.14-.14.15a.59.59,0,0,0-.07.66,1.29,1.29,0,0,0,.17.16l.17.16c.15-.05.21-.28.18-.7,0-.13,0-.19,0-.32l.09-.14a.61.61,0,0,0,0-.41Zm-5.92,2.08,0,.1,0,.1,0,.1v-.21Zm8.19-2.06a.93.93,0,0,0-.16-.37l0,.41.08.07Zm-20.3,6.12s0,.05,0,.11l.18.17q0-.1,0-.12ZM31,296.75c0-.16-.06-.25-.11-.41s-.25.15-.35.56a.25.25,0,0,0,0,.21c0,.06.07.09.11.07.2.09.3,0,.32-.21l0-.1Zm-17.34,5.42.38.24v-.24a1.05,1.05,0,0,0-.18-.42l-.2.18-.08.15C13.59,302.17,13.62,302.2,13.69,302.17Zm24.7-8-.06,0c0,.12.05.18.08.29,0-.13,0-.19,0-.33Zm-18,6.08.15.31v-.24l0-.12c-.06-.06-.11-.08-.15-.07S20.39,300.19,20.41,300.26Zm22.49-7.1,0-.11a1.34,1.34,0,0,0-.27.4S42.78,293.34,42.9,293.16Zm-19.76,7.15a1.36,1.36,0,0,0,.15.3,1.78,1.78,0,0,1,.14.3,1,1,0,0,0,.45-.32,1,1,0,0,1,.39-.3s.06-.1.08-.26,0-.24.09-.25l-.06-.21c-.06-.21-.13-.31-.2-.28a.55.55,0,0,0-.19.12.86.86,0,0,1-.25.13.17.17,0,0,1-.2-.05.93.93,0,0,0-.35-.12c-.16.05-.23.23-.23.54A.53.53,0,0,0,23.14,300.31Zm-4.08,1s.07,0,.1.14.06.16.1.14c-.1-.2-.13-.31-.09-.32l-.05,0Zm17.23-5.36c0-.06,0-.09-.08-.08a2.21,2.21,0,0,1,0,.32l.12.4c0,.05.1,0,.13-.1s.06-.18.1-.2-.07,0-.09-.08A.71.71,0,0,0,36.29,295.93Zm-.66.33a.57.57,0,0,0,.14.28l.06,0A.24.24,0,0,0,35.63,296.26Zm-11,3.9.23-.08.09.09c0-.15.05-.22.09-.37l-.18.06c-.08,0-.18.17-.31.44a.05.05,0,0,0,0-.07S24.63,300.17,24.67,300.16Zm5.49-1.35c.12,0,.19,0,.21.05,0-.14,0-.21,0-.34h-.05C30.18,298.58,30.12,298.68,30.16,298.81Zm.52.28.12,0s-.08-.05-.12-.18l0-.11A.67.67,0,0,1,30.68,299.09ZM32,301.22l.08.08.06,0-.12-.4C32,301.1,32,301.21,32,301.22Zm-.63,2.34.18.16.42-.49.17-.06a1.3,1.3,0,0,1,0-.26,3.47,3.47,0,0,0-.08-.36l-.81.28-.06,0C31.19,303.13,31.23,303.28,31.32,303.56Zm3.22,5.71c.16.23.22.16.19-.19l-.06,0a.18.18,0,0,0-.2,0,.21.21,0,0,0-.14.16C34.35,309.3,34.42,309.31,34.54,309.27Zm.3.87a.66.66,0,0,0,.16.27l0-.09Q34.9,310.13,34.84,310.14Zm1.52.84.11-.05-.09-.07-.09-.08Zm9.56-3.31c0,.08-.06.09-.11.05l-.09-.07.15.25c0-.08,0-.12.08-.14Zm-10.33,4.39c-.08,0-.13.13-.16.29s0,.26,0,.31l.11,0s.09,0,.15.05h.52a.64.64,0,0,0,0-.48c-.08-.23-.14-.37-.16-.44l-.23.09Q35.85,312.08,35.59,312.06Zm5.63-2.17L41,310l.09.07.28-.12A.16.16,0,0,0,41.22,309.89Zm4.5-1.51c0-.06,0-.08-.09-.07s-.1.08-.08.14l.06,0,0,.11.11,0Zm-23.49,9.56.13.19,0-.11-.14-.18Zm21.5-8.43,0-.09a.48.48,0,0,0,0-.21c0,.13,0,.19,0,.32Zm-9.25,3.78.24.13,0-.24.17-.07c-.07-.19-.18-.26-.33-.2a.16.16,0,0,0-.08.14l-.11.05C34.35,313.19,34.38,313.26,34.48,313.29Zm4.1-1.56a.29.29,0,0,0,.27.21,1.23,1.23,0,0,0-.23-.45Zm7-2.64-.11.05c-.16.06-.24.13-.25.21a.28.28,0,0,0,.32.18,1,1,0,0,0,.38,0l-.07-.18Q45.69,309,45.53,309.09Zm-2.19,1.12c-.22-.13-.34-.11-.37,0a2.24,2.24,0,0,0,.22.44,1,1,0,0,1,.18.47c.07.18.11.2.14,0l.12-.05a1.33,1.33,0,0,1-.13-.69A.57.57,0,0,0,43.34,310.21ZM36,313.8l0,.21s0-.12,0-.31Zm2.38-.77-.11.05-.11,0,0,.12,0,.1.17-.07.15,0C38.41,313.2,38.39,313.14,38.34,313Zm-2,.82c-.15.06-.2.27-.16.62,0,.12.07.17.11.29s-.06.06-.07.14l.5-.21c.08,0,.09-.11,0-.24A1.05,1.05,0,0,0,36.37,313.85Zm.94-.28s0,.15.08.41l.06,0s.06-.06.08-.14ZM46,310.26l-.24-.11c-.19.08-.28.18-.27.32a.25.25,0,0,0,.38.16C46,310.58,46.06,310.46,46,310.26Zm-10.25,4.28a2.49,2.49,0,0,1,.11.29l0-.31Zm-.66.83c.08,0,.19,0,.35.08s.29.06.38-.05a.84.84,0,0,0-.26-.34c-.1-.25-.25-.27-.35-.07A1.14,1.14,0,0,0,35.12,315.37Z"/><path class="cls-1" d="M61.13,343.09c-.43-.68-.84-.89-1.25-.63a2.75,2.75,0,0,1-.67.32,2.75,2.75,0,0,0-.62.28,5.13,5.13,0,0,0-.6.44,5.32,5.32,0,0,1-.54.4l-1.19.76a6.29,6.29,0,0,1-.59.32,5.07,5.07,0,0,0-.65.35c-.48.31-.48.87,0,1.69.16.27.32.54.48.83s.29.52.43.74a4.69,4.69,0,0,0,.58.75,5.88,5.88,0,0,1,.59.75,5.31,5.31,0,0,1,.45.85,4.24,4.24,0,0,0,.39.77c.17.26.34.53.5.81s.32.54.5.8c.5.74.55,1.24.14,1.53a5,5,0,0,0-.57.46,5,5,0,0,1-.57.46,3.07,3.07,0,0,1-.71.38,3,3,0,0,0-.66.35c-.43.31-.89.11-1.35-.58-.19-.27-.37-.53-.57-.79s-.38-.52-.56-.79a6.63,6.63,0,0,1-.43-.77,8,8,0,0,0-.48-.85,4.77,4.77,0,0,0-.6-.76,4.5,4.5,0,0,1-.6-.78c-.14-.22-.29-.47-.44-.76s-.32-.57-.49-.84c-.45-.72-.91-.93-1.39-.63a3.47,3.47,0,0,1-.59.32,5.77,5.77,0,0,0-.55.29A5.52,5.52,0,0,0,48,350a5.32,5.32,0,0,1-.54.4l-1.09.69a2.1,2.1,0,0,1-.57.25,2.21,2.21,0,0,0-.62.27,3.83,3.83,0,0,1-.59.32,4.14,4.14,0,0,0-.55.29l-1.08.69a1.44,1.44,0,0,0-.49.49,1.39,1.39,0,0,1-.44.46,4.44,4.44,0,0,1-.6.32,3.47,3.47,0,0,0-.59.32,1.81,1.81,0,0,1-.57.24,2,2,0,0,0-.62.27,1.06,1.06,0,0,0-.41.51,1.27,1.27,0,0,1-.46.54c-.49.31-.49.85,0,1.62.22.35.41.68.58,1s.35.6.53.9.41.6.67.93a11.08,11.08,0,0,1,.67.92c.19.29.37.59.54.89s.37.62.6,1a9,9,0,0,0,.69.91c.22.26.43.53.63.82s.43.66.61,1,.37.58.56.86c.51.73.54,1.27.08,1.6a2.88,2.88,0,0,0-.59.56,3.06,3.06,0,0,1-.58.55,5.09,5.09,0,0,1-.63.39,5.71,5.71,0,0,0-.68.42.81.81,0,0,1-.82,0,2,2,0,0,1-.88-.72c-.48-.69-.72-1-1.19-1.74-.24-.35-.45-.68-.63-1s-.37-.6-.56-.9c-.49-.74-.74-1.11-1.22-1.86-.23-.35-.43-.69-.61-1s-.35-.62-.54-.92a7.27,7.27,0,0,0-.7-.93,5.81,5.81,0,0,1-.64-.86,5.38,5.38,0,0,1-.48-1,8.78,8.78,0,0,0-.54-1.05,8.54,8.54,0,0,0-.6-.88,10.41,10.41,0,0,1-.65-1c-.18-.31-.37-.61-.57-.91s-.4-.63-.62-1a8.59,8.59,0,0,1-.48-1,8.74,8.74,0,0,0-.48-1c-.49-.88-.47-1.47.06-1.78a4.27,4.27,0,0,1,.61-.3,3.47,3.47,0,0,0,.55-.26,1.63,1.63,0,0,0,.51-.48,1.72,1.72,0,0,1,.5-.48,3,3,0,0,1,.64-.25,2.58,2.58,0,0,0,.63-.24c.17-.11.36-.24.55-.39a5.24,5.24,0,0,1,.56-.39l1.16-.68a3.06,3.06,0,0,1,.63-.25,2.19,2.19,0,0,0,.64-.25,1.81,1.81,0,0,0,.5-.47,1.63,1.63,0,0,1,.51-.48,2.07,2.07,0,0,1,.63-.25,1.93,1.93,0,0,0,.58-.22,2.31,2.31,0,0,0,.5-.41,2.22,2.22,0,0,1,.56-.45,2.59,2.59,0,0,1,.61-.24,2.39,2.39,0,0,0,.65-.26L43,343.5a5.23,5.23,0,0,0,.55-.39,4.2,4.2,0,0,1,.56-.38l1.16-.68,1.17-.68a2.81,2.81,0,0,1,.55-.27,3.35,3.35,0,0,0,.6-.3,4.27,4.27,0,0,0,.56-.38,5.06,5.06,0,0,1,.56-.38l1.16-.69a5,5,0,0,1,.61-.29q.33-.15.6-.3l1.16-.68,1.11-.65a6.75,6.75,0,0,0,.59-.4,5.66,5.66,0,0,1,.53-.37l1.16-.68,1.17-.68a5.59,5.59,0,0,1,.6-.3,3.35,3.35,0,0,0,.6-.3,3.64,3.64,0,0,0,.56-.38,3.54,3.54,0,0,1,.51-.35,5.06,5.06,0,0,0,.56-.38,4.27,4.27,0,0,1,.56-.38.83.83,0,0,1,.8.06,1.74,1.74,0,0,1,.75.72q.23.39.42.81c.13.27.29.56.47.88.38.66.57,1,1,1.64.15.26.3.52.44.79s.3.56.48.87.31.52.45.79.3.55.49.86l1,1.6,1,1.59a3.74,3.74,0,0,0,.57.69,5.45,5.45,0,0,1,.57.7,8.66,8.66,0,0,1,.49.85,5.35,5.35,0,0,0,.45.77,6.61,6.61,0,0,0,.6.78,6,6,0,0,1,.56.69,1.59,1.59,0,0,1,.29.95.85.85,0,0,1-.32.72,6.76,6.76,0,0,0-.62.51,5.4,5.4,0,0,1-.62.5l-1.29.94a.69.69,0,0,1-.76,0,2.08,2.08,0,0,1-.77-.68l-1.09-1.58a8.94,8.94,0,0,0-.61-.79,9,9,0,0,1-.61-.81c-.43-.64-.64-1-1.06-1.61a5.58,5.58,0,0,1-.47-.9,4.31,4.31,0,0,0-.42-.83,5.86,5.86,0,0,0-.61-.8A5.77,5.77,0,0,1,61.13,343.09ZM35.5,351.42c.1.18.17.27.21.24s0-.15-.06-.33l-.15-.28,0-.15a.51.51,0,0,1-.29.05.2.2,0,0,0-.23.14A1.58,1.58,0,0,0,35.5,351.42Zm2-1.69c-.27,0-.42.09-.42.25a1.08,1.08,0,0,0,.63.23l0,0,0-.09C37.62,350,37.58,349.87,37.49,349.73Zm-.84.51.24.34c.12.17.21.32.28.44v-.12a1.65,1.65,0,0,0-.2-.85C36.72,350,36.62,350.09,36.65,350.24Zm17.12-10.3a2,2,0,0,0-.85.74l-.15,0a1.64,1.64,0,0,1,.1,1.28.17.17,0,0,0,.18,0l.13-.08.49.49s.08-.11.14-.25.1-.24.14-.26a.91.91,0,0,1,.23-.08l.23-.09a.69.69,0,0,1,.06-.26v-.23c0-.18,0-.27,0-.46l.11-.17c-.2-.11-.29-.09-.26,0l-.15.1-.16,0a.44.44,0,0,0-.11.17v.23s-.09,0-.15-.13l-.05-.08-.09-.17c0-.15,0-.25.11-.29A.37.37,0,0,0,53.77,339.94ZM33.35,352.35l0,0c.07,0,.09-.1.05-.16A.21.21,0,0,0,33.35,352.35Zm20.94-12.5c-.21,0-.27.12-.18.44,0,.13.06.19.1.17s.1-.1.12-.41Zm1.56-.72c-.07,0-.12,0-.16.21-.14,0-.21.05-.21.13l.25-.05v-.11l.1-.06S55.88,339.19,55.85,339.13ZM40.2,350l.21-.13c0-.24-.17-.41-.51-.52a.64.64,0,0,0-.21-.24l.1.3c.1.18.16.27.26.44,0,0,.07,0,.1.06Zm18.87-12.4c-.13-.07-.23,0-.31.19l.09.16c.14-.09.2-.16.17-.21ZM39,350.79l.26-.16s0-.12,0-.29a.67.67,0,0,1,0-.41l-.15-.15-.06,0-.31.55.1.18A.64.64,0,0,0,39,350.79ZM61.46,336.6l-.15,0,.1.05ZM47.64,345l-.31.19a.62.62,0,0,0,.25.2s.08,0,.15,0l.1.05c-.06-.11-.08-.18,0-.2S47.78,345.08,47.64,345Zm10.13-5.62c-.07-.1-.13-.14-.2-.09l.22.63A.84.84,0,0,0,57.77,339.39Zm-4.91,2.78c0,.15,0,.24-.06.26l.21-.13C53,342.19,52.9,342.15,52.86,342.17ZM38,351.48l.1.18c.11.18.14.28.11.31l.05,0c0-.08,0-.1.1-.06a1,1,0,0,1,.74.16l.15.14.16.15.21-.13-.26-.45a1.25,1.25,0,0,0-.26-.32c-.14-.24-.38-.19-.58-.13S38.08,351.36,38,351.48Zm6.79-3.8.05-.15-.05-.09Zm-4.18,2.69c-.07-.2-.12-.29-.16-.27v.24a9.58,9.58,0,0,0,.68.91l0,0s0-.06,0-.12a1.86,1.86,0,0,0-.26-.32A2.75,2.75,0,0,1,40.62,350.37Zm-5.43,3.46,0,0,.1.06q.16.15.21.12l-.1-.19-.05,0S35.22,353.89,35.19,353.83Zm-.88,1.29c.11.18.23.33.27.33s.12-.28-.06-.59l-.21.13-.16-.27.05.21Zm15.58-9.41-.16,0c-.07.12,0,.27.2.45l0-.2v-.12S49.92,345.76,49.89,345.71ZM34.64,355.79l.15,0,0-.09Zm26.25-16.15c.07.1.12.15.15.12l-.14-.23C60.93,339.58,60.93,339.62,60.89,339.64ZM51.66,347s0,.06,0,.13a.2.2,0,0,0,.12.15c0-.06,0-.09,0-.12s.13,0,.1-.06l-.1-.05Zm-15.2,10.62-.14-.28a3.15,3.15,0,0,0-.13-.29l-.16.1.06.09C36.16,357.53,36.29,357.66,36.46,357.63Zm-1,.42-.15.1c0,.05.07.08.1.05l.06.09ZM54,348.83l-.26.06c-.1.14,0,.38.31.72V349A.42.42,0,0,0,54,348.83Zm10.92-6.36s0-.06,0-.11a.55.55,0,0,0-.25-.16c-.07.05,0,.17.09.37l.1.16.1.15v-.11a.17.17,0,0,1,0-.14s-.06,0-.1-.05S64.89,342.5,64.93,342.47ZM39.26,362.21l-.16-.15,0,.09Z"/><path class="cls-1" d="M127.23,393c.57.35.55.64.3.9s-.49.65-.87,1a2.65,2.65,0,0,1-.41.39c-.23.2-.43.39-.58.51a2,2,0,0,0-.44.52,3,3,0,0,1-.44.51,5.74,5.74,0,0,1-.46.47l-.57.48-1,1c-.07.11-.18.29-.32.56a1.9,1.9,0,0,1-.42.57l-1,1a4.65,4.65,0,0,0-.52.47,3.19,3.19,0,0,1-.48.41l-1,1c-.42.42-.75.8-1,1a1.86,1.86,0,0,0-.44.49l-.39.58a2.37,2.37,0,0,1-.48.49c-.24.19-.43.31-.54.39a6.93,6.93,0,0,0-.58.46,2.9,2.9,0,0,0-.47.46,3.1,3.1,0,0,1-.48.46c-.24.2-.44.36-.58.46a2.69,2.69,0,0,0-.49.48,6.64,6.64,0,0,0-.42.53,5.69,5.69,0,0,1-.83,1.07,1.88,1.88,0,0,0-.42.45,2.17,2.17,0,0,1-.46.51l-1,1a4.44,4.44,0,0,1-.46.51,5.07,5.07,0,0,1-.54.45,3,3,0,0,0-.5.48c-.19.22-.32.44-.42.53s-.31.18-.58.35a1.63,1.63,0,0,0-.54.45l-1.09.9a2.92,2.92,0,0,1-.42.45c-.22.2-.37.41-.47.5s-.34.25-.6.45a3,3,0,0,0-.49.44l-.4.58a1.5,1.5,0,0,1-.45.48l-1,.94a1.82,1.82,0,0,1-.55.44,2,2,0,0,0-.51.4c-.1.13-.24.31-.43.52a3.32,3.32,0,0,1-.51.47c-.24.19-.52.73-.86,1.05a2.93,2.93,0,0,1-.72.33,1.38,1.38,0,0,0-.6.33,2.31,2.31,0,0,0-.34.66,1,1,0,0,1-.39.54c-.28.18-.78.07-1.28-.27a5.14,5.14,0,0,0-1.1-.55,5.38,5.38,0,0,1-1.09-.57,5.74,5.74,0,0,1-.92-.79,7.18,7.18,0,0,0-1-.85c-.79-.56-1.19-.84-2-1.41-.33-.24-.67-.46-1-.67a11.19,11.19,0,0,1-1-.67,1.19,1.19,0,0,1-.43-1.24,1,1,0,0,1,.14-.35,1.56,1.56,0,0,0,.19-.32c.07-.15.13-.36.22-.52a3.28,3.28,0,0,0,.26-.65,3,3,0,0,1,.26-.65,2.77,2.77,0,0,1,.28-.59c.16-.27.33-.47.39-.59a5.88,5.88,0,0,1,.31-.61,4.5,4.5,0,0,1,.37-.56,1.85,1.85,0,0,0,.23-.6,5.42,5.42,0,0,1,.18-.71c.24-.44.64-.85.77-1.11.24-.49.36-.74.61-1.23a12.72,12.72,0,0,1,.61-1.23c.06-.09.21-.26.4-.5a2.24,2.24,0,0,0,.37-.61c.23-.47.34-.7.58-1.17a5.62,5.62,0,0,0,.32-.56,4.72,4.72,0,0,1,.37-.61A2.05,2.05,0,0,0,95,403a4.63,4.63,0,0,1,.22-.72,3.29,3.29,0,0,0,.29-.67,2,2,0,0,1,.22-.56,1.27,1.27,0,0,1,.44-.55,1.22,1.22,0,0,0,.45-.55,5.61,5.61,0,0,0,.09-.7,1.39,1.39,0,0,1,.21-.69,8.71,8.71,0,0,0,.71-1.16l.43-.52a1.89,1.89,0,0,0,.35-.58c.06-.16.13-.39.22-.69a1.65,1.65,0,0,1,.24-.58l.41-.5a3.57,3.57,0,0,0,.38-.6,3.84,3.84,0,0,0,.31-.66,2.76,2.76,0,0,1,.27-.6,4.4,4.4,0,0,1,.25-.59,5.26,5.26,0,0,0,.29-.63,1.58,1.58,0,0,1,.41-.57,4.24,4.24,0,0,0,.45-.46c.07-.13.15-.39.28-.68a4.51,4.51,0,0,1,.3-.58,4,4,0,0,1,.37-.57L103,388a2.32,2.32,0,0,0,.3-.63l.19-.63c.26-.48.39-.72.66-1.2a1.65,1.65,0,0,1,.42-.56,4,4,0,0,0,.45-.47,6.76,6.76,0,0,0,.25-.7,4.61,4.61,0,0,1,.28-.6,6.16,6.16,0,0,0,.2-.63,2,2,0,0,1,.31-.62l.67-1.19c.12-.22.51-.6.81-1.08a.37.37,0,0,1,.44-.19,1.83,1.83,0,0,1,.63.35,4.89,4.89,0,0,0,.77.5,4.89,4.89,0,0,1,.77.5l1.37,1.07a6.1,6.1,0,0,1,.69.61,5.92,5.92,0,0,0,.68.6c.22.16.28.49.18,1a2.19,2.19,0,0,0-.16.68,2,2,0,0,1-.17.68c-.09.15-.26.33-.39.5l-.4.51-.43.55a2.49,2.49,0,0,0-.33.56l-.7,1.16a1.18,1.18,0,0,1-.19.39,1.63,1.63,0,0,0-.21.34c-.07.13-.18.27-.25.39s-.17.4-.26.61a3,3,0,0,1-.36.61l-.42.53a2.13,2.13,0,0,0-.3.53c-.28.47-.42.7-.69,1.17a8.17,8.17,0,0,1-.61,1.22,1.71,1.71,0,0,0-.27.56,6.66,6.66,0,0,1-.23.67c-.19.42-.37.82-.57,1.17s-.41.71-.68,1.18a2.25,2.25,0,0,1-.32.56c-.14.18-.3.37-.43.56a6.83,6.83,0,0,0-.56,1.18l-.67,1.18a1.78,1.78,0,0,0-.3.54,3.9,3.9,0,0,1-.26.64,6.46,6.46,0,0,1-.41.54l-.41.53a1.32,1.32,0,0,0-.23.62,3.07,3.07,0,0,1-.17.68c-.09.23-.19.46-.27.67a3.09,3.09,0,0,1-.31.57,2.53,2.53,0,0,1-.47.45,2,2,0,0,0-.46.46c-.2.35-.4.86-.59,1.24a1.81,1.81,0,0,0-.15.68,1.13,1.13,0,0,1-.23.62,2.24,2.24,0,0,0-.31.57c-.08.22-.17.46-.27.68s-.34.84-.53,1.19a5.56,5.56,0,0,1-.42.57,6.37,6.37,0,0,0-.39.51,4,4,0,0,0-.25.65,4,4,0,0,1-.28.55,1,1,0,0,1-.47.46,1.57,1.57,0,0,0-.5.35c-.08.1,0,.24.29.43a.58.58,0,0,0,.37.16.2.2,0,0,0,.17-.15q0-.12.06-.33a1.42,1.42,0,0,1,.12-.4,1.46,1.46,0,0,1,.2-.35,1.2,1.2,0,0,1,.56-.43,2.43,2.43,0,0,0,.6-.32,1.08,1.08,0,0,0,.39-.52,2,2,0,0,1,.34-.62,1.87,1.87,0,0,1,.63-.37,1.72,1.72,0,0,0,.53-.38,1.75,1.75,0,0,0,.38-.52,1.77,1.77,0,0,1,.34-.62,1.89,1.89,0,0,1,.63-.38,1.16,1.16,0,0,0,.52-.38l.4-.55a2.48,2.48,0,0,1,.48-.49l1-1a1.13,1.13,0,0,1,.51-.39,2.25,2.25,0,0,0,.63-.38,3,3,0,0,0,.49-.52l.38-.52.91-.93c.38-.39.57-.59.94-1l.55-.44a4.56,4.56,0,0,0,.44-.44A1.81,1.81,0,0,0,109,403a1.91,1.91,0,0,1,.3-.57,1.87,1.87,0,0,1,.62-.39,1.65,1.65,0,0,0,.51-.4,2.33,2.33,0,0,0,.43-.52,3,3,0,0,1,.36-.57c.12-.13.34-.27.52-.42a2.65,2.65,0,0,0,.48-.52,1.3,1.3,0,0,1,.51-.4,2.34,2.34,0,0,0,.61-.39,3.08,3.08,0,0,0,.47-.5l.39-.55a2.59,2.59,0,0,1,.43-.45l.53-.45c.36-.38.54-.56.89-.94a2.27,2.27,0,0,0,.45-.55,2.45,2.45,0,0,1,.34-.55,5.11,5.11,0,0,1,.55-.48,3.19,3.19,0,0,0,.44-.47,1.46,1.46,0,0,1,.53-.46,2.22,2.22,0,0,0,.57-.35c.12-.13.24-.35.39-.55a2.53,2.53,0,0,1,.46-.51l.88-.95.37-.53a4.51,4.51,0,0,1,.47-.52c.26-.25.64-.24,1.15.09.23.16.49.31.78.48l.78.47a5.63,5.63,0,0,0,.73.39,7.28,7.28,0,0,1,.8.44,5.51,5.51,0,0,1,.73.53A5.65,5.65,0,0,0,127.23,393Zm-18.69-8.54.07.06a2.09,2.09,0,0,0,.57.36.18.18,0,0,0,.18-.09l.08-.09-.07-.05-.71-.33Zm-3.65,5.16c0,.13.1.2.17.21Zm1.51-1.31.06.2,0-.05,0,0h.1Zm-.06.34,0,.05.07.06S106.32,388.67,106.34,388.63Zm-2.12,2.77s.07.05.08,0l.06-.07-.06-.2-.11.14Zm5.13-5.94a.83.83,0,0,0,.36-.18c-.13-.11-.22-.12-.27-.06a.27.27,0,0,0,0,.19Zm-1.92,3.62c.37.18.57.15.64,0s.09-.39-.18-.6c-.1-.07-.22,0-.37.18S107.33,389,107.43,389.08Zm-4.44,5.4.25.11-.06-.2h-.11Zm-3.3,4.41c.17,0,.24-.1.19-.23Zm7.19-8.15.32,0c-.06-.15-.1-.22-.16-.36a.25.25,0,0,0-.19.09C106.78,390.59,106.78,390.67,106.88,390.74Zm.37-.33a.23.23,0,0,1,.19-.09.23.23,0,0,0,.18-.09l-.14-.11s-.08,0-.11,0l-.07.09c-.08.1-.11.18-.09.25Zm-8.17,11.48.11-.14-.22,0s0,.07,0,.1Zm3.42-3a.39.39,0,0,1,.17-.07.27.27,0,0,0,.17-.06l-.41-.08a.15.15,0,0,1,0,.16s0,.06,0,.1S102.46,398.83,102.5,398.87ZM97,406.63l.23,0a2,2,0,0,0-.19-.22c-.08-.11-.16-.1-.26,0s0,.22.07.36Zm3.35-4s.08,0,.15,0,.13.06.15,0l-.15-.11,0,.05-.08-.06-.07.1ZM93.91,415c.24,0,.37,0,.39,0s0-.24-.29-.43c-.11-.08-.18-.08-.23,0a.53.53,0,0,1-.51,0c-.16-.11-.26-.14-.31-.07s0,.17.24.32a.66.66,0,0,0,.32.08l.2.07Zm.22,1.51a.3.3,0,0,1,.19-.09c.06,0,.1,0,.07-.1a.56.56,0,0,0-.2-.22c-.11-.08-.13,0-.07.1S94.12,416.35,94.13,416.48Zm5.42.28q0-.11.12,0l.07-.1s0-.08-.07-.15a.37.37,0,0,0-.22-.12l-.11.15c-.07.1-.08.17,0,.21Zm3.7-4.14c.1.07.18.07.23,0s.13-.18.16-.55c-.1-.07-.13-.14-.08-.21l-.08.1c-.1,0-.13.08-.1.15s0,.12-.11.15l-.22.15C103.1,412.54,103.17,412.61,103.25,412.62Zm-3.69,5.63a.71.71,0,0,0,.26.06c.12,0,.16,0,.13-.1a.85.85,0,0,1-.29-.27l-.07.1Q99.48,418.19,99.56,418.25Zm7.41-9.54.19.06s.09,0,.12,0,0-.17-.24-.31l0,.1Zm3.85-2.87a.68.68,0,0,0,.27-.55l-.07-.05a.36.36,0,0,1-.19-.05c-.2,0-.3-.21-.31-.51l-.36.5c0,.1.11.22.31.36a.14.14,0,0,1,.15.1A.93.93,0,0,0,110.82,405.84Zm.59-1.15c-.08-.1-.26-.12-.52-.05a1.48,1.48,0,0,1,.34.3C111.37,404.84,111.43,404.75,111.41,404.69Zm1.28-.11.14-.2.07-.1s0-.06,0-.1l-.19-.05c-.12.07-.14.16-.06.26Zm5.34-6.29a.19.19,0,0,1,.15-.05l-.15-.1.07.05Zm3.94-5.54c-.28.21-.43.38-.46.51a.94.94,0,0,1,.16.14.72.72,0,0,1,.13.19.89.89,0,0,1,.37.2c.17.14.32.18.44.11a.46.46,0,0,0,0-.2l0-.2c.21-.3.09-.52-.35-.66a.34.34,0,0,1-.18,0C122.05,392.73,122,392.72,122,392.75Zm-1.77,2.86,0-.09h-.11Zm-.84,1.06-.07.11c.1.06.16.07.18,0Zm-.59,3.47a2.17,2.17,0,0,0,.45-.51.88.88,0,0,1-.9-.06l-.28-.22a2.47,2.47,0,0,0-.27-.21.3.3,0,0,1-.22.15,1.73,1.73,0,0,0,.41.34l.44.28Z"/><path class="cls-1" d="M147.27,416.12c-.7-.29-1.15-.23-1.36.22a3.76,3.76,0,0,1-.39.62,3.22,3.22,0,0,0-.37.57,4.37,4.37,0,0,0-.27.68,5.32,5.32,0,0,1-.25.62l-.6,1.26a3.57,3.57,0,0,1-.33.59,5.71,5.71,0,0,0-.35.64c-.24.52.05.95.88,1.31.28.12.55.24.82.38s.52.25.74.34a4.28,4.28,0,0,0,.88.27,4.36,4.36,0,0,1,.87.26,4.45,4.45,0,0,1,.81.42,3.68,3.68,0,0,0,.72.39c.28.11.55.23.83.36a8.58,8.58,0,0,0,.83.35c.79.31,1.09.68.9,1.13q-.13.35-.24.69a4,4,0,0,1-.24.69,3.16,3.16,0,0,1-.39.7,2.7,2.7,0,0,0-.36.64c-.21.48-.69.58-1.43.29l-.88-.31c-.29-.09-.58-.2-.87-.31a6.26,6.26,0,0,1-.75-.36,7.1,7.1,0,0,0-.83-.41,5.47,5.47,0,0,0-.9-.26,5.13,5.13,0,0,1-.89-.28c-.23-.09-.48-.21-.76-.35s-.55-.26-.84-.38c-.73-.32-1.22-.22-1.47.29a4.6,4.6,0,0,1-.32.59,3.5,3.5,0,0,0-.31.53,5.37,5.37,0,0,0-.24.62c-.08.23-.16.44-.24.62l-.55,1.16a2.11,2.11,0,0,1-.35.51,2.33,2.33,0,0,0-.37.57,6,6,0,0,1-.33.58,4.17,4.17,0,0,0-.31.54l-.54,1.15a1.46,1.46,0,0,0-.16.66,1.36,1.36,0,0,1-.13.61,4.12,4.12,0,0,1-.33.59,6,6,0,0,0-.33.58,1.72,1.72,0,0,1-.35.51,2.33,2.33,0,0,0-.37.57,1,1,0,0,0-.08.62,1.26,1.26,0,0,1-.11.69c-.24.51,0,.94.82,1.28q.54.23,1,.45c.29.14.59.28.9.41s.64.24,1,.36.72.23,1,.35.61.26.9.4.63.28,1,.43.71.25,1,.34a7.35,7.35,0,0,1,.94.3c.37.14.71.28,1,.41s.6.26.91.38c.81.3,1.1.71.89,1.24a2.76,2.76,0,0,0-.2.76,3.24,3.24,0,0,1-.2.77c-.1.22-.2.44-.32.66a5.22,5.22,0,0,0-.35.71.84.84,0,0,1-.67.46,1.86,1.86,0,0,1-1.11-.09l-1.89-.71c-.38-.15-.72-.29-1-.43l-.93-.4-2-.78q-.57-.23-1-.45c-.3-.15-.61-.28-.92-.41a6.55,6.55,0,0,0-1.06-.35,5.23,5.23,0,0,1-1-.31,5.1,5.1,0,0,1-.89-.48,6,6,0,0,0-1-.52,7.7,7.7,0,0,0-.95-.35,8.72,8.72,0,0,1-1-.4c-.31-.14-.62-.27-.93-.38s-.66-.27-1-.44a9.42,9.42,0,0,1-.89-.47,7.63,7.63,0,0,0-.89-.48c-.85-.4-1.13-.88-.85-1.42a3.08,3.08,0,0,1,.35-.57,4,4,0,0,0,.32-.52,1.77,1.77,0,0,0,.18-.66,1.77,1.77,0,0,1,.17-.66,2.39,2.39,0,0,1,.4-.55,2.59,2.59,0,0,0,.39-.56,3.85,3.85,0,0,0,.27-.61,5.27,5.27,0,0,1,.26-.62l.62-1.19a2.55,2.55,0,0,1,.39-.55,3.09,3.09,0,0,0,.4-.56,1.77,1.77,0,0,0,.17-.65,2,2,0,0,1,.18-.66,2.11,2.11,0,0,1,.4-.55,2.16,2.16,0,0,0,.57-1.11,2.45,2.45,0,0,1,.24-.67,2.22,2.22,0,0,1,.38-.52,2.78,2.78,0,0,0,.4-.59l.62-1.19a3.84,3.84,0,0,0,.26-.61,6.16,6.16,0,0,1,.27-.62l.62-1.19.61-1.19a4,4,0,0,1,.32-.52,4.3,4.3,0,0,0,.35-.57,5.23,5.23,0,0,0,.27-.62,5.08,5.08,0,0,1,.26-.61l.62-1.19a4.71,4.71,0,0,1,.35-.58,6.31,6.31,0,0,0,.35-.57l.61-1.19.59-1.14a5,5,0,0,0,.28-.64,4.56,4.56,0,0,1,.26-.59c.24-.48.37-.71.61-1.19l.62-1.19a3.56,3.56,0,0,1,.35-.58,5.72,5.72,0,0,0,.34-.57,5.31,5.31,0,0,0,.27-.62,5.55,5.55,0,0,1,.24-.56,5,5,0,0,0,.27-.61c.09-.23.18-.43.27-.61a.84.84,0,0,1,.69-.41,1.67,1.67,0,0,1,1,.12c.26.12.51.25.76.39s.53.28.84.42l1.63.74c.26.11.52.24.77.37s.53.27.84.4l.77.37c.26.13.54.27.85.4l1.66.69,1.66.68a3.7,3.7,0,0,0,.82.24,3.77,3.77,0,0,1,.83.23,6.15,6.15,0,0,1,.85.39,4.93,4.93,0,0,0,.77.37,7.75,7.75,0,0,0,.91.28,5.91,5.91,0,0,1,.82.24,1.37,1.37,0,0,1,.72.59.83.83,0,0,1,.11.76,7.18,7.18,0,0,0-.25.74,5.16,5.16,0,0,1-.26.75l-.59,1.46a.72.72,0,0,1-.63.42,2,2,0,0,1-1-.11l-1.71-.65a7.91,7.91,0,0,0-.93-.29,7.47,7.47,0,0,1-.91-.3l-1.71-.68a4,4,0,0,1-.85-.45,5.28,5.28,0,0,0-.77-.42,6.06,6.06,0,0,0-.93-.28A4.73,4.73,0,0,1,147.27,416.12Zm-17,21c.18.08.27.1.29.07s0-.15-.21-.24l-.27-.12,0-.15a.45.45,0,0,1-.21.2c-.1.07-.15.15-.12.25A2,2,0,0,0,130.29,437.14Zm.79-2.45c-.23.16-.3.3-.22.43a1.15,1.15,0,0,0,.63-.17l0-.06-.09,0Zm-.44.87.37.13.46.18-.06-.09a1.45,1.45,0,0,0-.61-.55C130.59,435.36,130.54,435.47,130.64,435.56Zm8.92-17.73a2.07,2.07,0,0,0-.33,1.05l-.13.07a1.44,1.44,0,0,1,.74.94.18.18,0,0,0,.15-.1l.06-.13.66.09s0-.12,0-.27a.62.62,0,0,1,0-.27.76.76,0,0,1,.15-.2,1.06,1.06,0,0,0,.14-.2,1,1,0,0,1-.08-.24l-.11-.18-.21-.37v-.2c-.22,0-.28.09-.19.18l-.08.16-.14.07a.33.33,0,0,0,0,.2l.11.19s-.08,0-.19,0l-.08,0-.17-.07c-.07-.13-.09-.22-.05-.3A.32.32,0,0,0,139.56,417.83ZM129,439.08l0-.05c0-.08,0-.13,0-.16A.18.18,0,0,0,129,439.08Zm11-21.61c-.19.09-.16.24.08.43.08.09.14.12.16.08s0-.14-.11-.38Zm.92-1.45c-.07,0-.08.09,0,.25-.11.09-.14.16-.11.22l.19-.18,0-.09,0-.11S140.92,416,140.87,416Zm-7.4,17.35.11-.22c-.13-.18-.36-.22-.7-.11a.51.51,0,0,0-.29-.07l.24.18.44.2s0,0,.11,0Zm9.3-20.36c-.14,0-.2.13-.16.32l.16.07c.07-.14.08-.23,0-.25Zm-10,21.67.14-.27s0-.11-.17-.21a.59.59,0,0,1-.23-.3l-.2,0,0,.05c0,.25,0,.37,0,.62l.18.08A.58.58,0,0,0,132.82,434.68Zm11.4-23.82-.13.07.11,0Zm-7.15,14.39-.16.33a.58.58,0,0,0,.31,0s.06-.06.14-.07l.11,0c-.12-.05-.16-.1-.14-.13S137.22,425.23,137.07,425.25Zm5.52-10.12c-.11-.05-.18,0-.21,0l.5.36A.66.66,0,0,0,142.59,415.13ZM140,420.08c.07.12.1.2.08.23l.11-.21C140,420.05,140,420,140,420.08Zm-7.55,15.68.17.08c.18.08.26.14.25.18l0-.06c0-.06,0-.1.06-.11a1,1,0,0,1,.68-.29l.21,0,.2,0,.11-.22-.45-.2a.78.78,0,0,0-.38-.1c-.24-.11-.4.05-.54.22S132.39,435.62,132.4,435.76Zm3.68-6.81,0-.15-.09,0ZM134,433.41c-.16-.12-.25-.16-.26-.12l.12.19a6.66,6.66,0,0,0,1,.32l0-.05s0-.07-.06-.09a1.86,1.86,0,0,0-.38-.11A2.45,2.45,0,0,1,134,433.41Zm-2.73,5.77,0,.06.12,0c.14,0,.22,0,.23,0l-.18-.08,0,.05S131.32,439.21,131.26,439.18Zm-.07,1.51c.18.08.36.13.39.1s-.05-.28-.35-.42l-.11.22-.27-.12.15.13Zm8.1-16.17-.14.07c0,.13.13.22.4.24l-.15-.13-.05-.09S139.34,424.54,139.29,424.52ZM131.8,441l.14-.07-.09,0Zm13.51-27.48c.1.05.17.05.18,0l-.23-.1C145.31,413.48,145.33,413.51,145.31,413.55Zm-3.89,11a.11.11,0,0,0,.05.12.22.22,0,0,0,.18.05c-.06,0-.07-.06-.06-.1s.11-.08.06-.11l-.12,0Zm-7.16,16.91-.27-.15a1.39,1.39,0,0,0-.26-.14l-.07.16.09,0C134,441.53,134.13,441.56,134.26,441.44Zm-.66.91-.07.16c.06,0,.1,0,.12,0l.09,0Zm10.7-17.71-.18.19c0,.17.19.3.62.39l-.29-.45A.31.31,0,0,0,144.3,424.64Zm5.8-11.15s0-.06,0-.08a.48.48,0,0,0-.29,0q0,.1.27.24l.16.07.15.06-.05-.09a.13.13,0,0,1,0-.14s0,.05-.1,0S150.09,413.53,150.1,413.49Zm-11.18,30-.21,0,.09,0Z"/><path class="cls-1" d="M193.46,451l-.22,1.25a2.06,2.06,0,0,0,0,.61,1.91,1.91,0,0,1,0,.67,1.42,1.42,0,0,1-.25.57,1.48,1.48,0,0,0-.26.63,5.43,5.43,0,0,1-.32,1.17,4.34,4.34,0,0,1-.7,1.11,2.19,2.19,0,0,0-.32.34l-.33.41a.88.88,0,0,1-.35.24,4.78,4.78,0,0,1-1.38.81l-1.67.63h-1a8,8,0,0,0-1,0c-.19,0-.41,0-.62,0l-.72,0a5.53,5.53,0,0,0-.62,0,8.39,8.39,0,0,0-1,.08,6.49,6.49,0,0,1-1.1.05,4.18,4.18,0,0,1-1.09-.25,8.09,8.09,0,0,0-1-.3l-2.18-.47a10,10,0,0,1-1.18-.51,5.67,5.67,0,0,0-.89-.39l-1-.45a11.81,11.81,0,0,1-1.07-.53,9,9,0,0,1-1.55-1.19,8.48,8.48,0,0,1-1.3-1.32,14.57,14.57,0,0,1-.93-1.49,10.23,10.23,0,0,1-.2-1.43,7.67,7.67,0,0,1,0-1.38,6.31,6.31,0,0,1,.3-1.36l.37-1.28a2.25,2.25,0,0,0,.1-.66A1.94,1.94,0,0,1,170,446a2.21,2.21,0,0,1,.28-.62,2.14,2.14,0,0,0,.28-.61,3.46,3.46,0,0,0,.14-.65,4.6,4.6,0,0,1,.15-.65l.37-1.28.38-1.28a4.61,4.61,0,0,1,.23-.63,3.21,3.21,0,0,0,.23-.62,4.72,4.72,0,0,0,.15-.66,3.64,3.64,0,0,1,.14-.65,4,4,0,0,1,.23-.62,4.6,4.6,0,0,0,.24-.63l.35-1.22a2.79,2.79,0,0,1,.27-.59,2.66,2.66,0,0,0,.29-.64,2.07,2.07,0,0,0,.05-.68,1.8,1.8,0,0,1,.06-.67l.37-1.28a4.56,4.56,0,0,1,.23-.6,5.49,5.49,0,0,0,.24-.65l.37-1.28a2.13,2.13,0,0,0,.09-.63,2.78,2.78,0,0,1,.12-.69,1.92,1.92,0,0,1,.36-.63,2.19,2.19,0,0,0,.37-.62c0-.12.11-.32.22-.6a2.39,2.39,0,0,1,.32-.63c.06-.07.46-.42,1.13-1.08a3.69,3.69,0,0,1,.76-.43,4.27,4.27,0,0,0,.63-.34,7.09,7.09,0,0,1,.61-.41,5.08,5.08,0,0,1,.79-.43,3.35,3.35,0,0,1,1-.13,3.59,3.59,0,0,0,.87-.1,12.7,12.7,0,0,1,1.89-.12q1.76,0,1.92.06l1.88.22a18.24,18.24,0,0,1,1.82.44c.21.07.52.21.92.37l.85.35a9,9,0,0,1,.86.44l.71.41a3.32,3.32,0,0,0,.62.36l.87.46a11.18,11.18,0,0,1,1.29,1.08,3.61,3.61,0,0,0,.42.57,2.71,2.71,0,0,1,.48.69c.05.11.13.57.29,1.33a3.19,3.19,0,0,0,.08.56,2.6,2.6,0,0,1,0,.75,2.19,2.19,0,0,1-.19.58,1.74,1.74,0,0,0-.19.52l-.19,1.07c-.08.43-.38.61-.91.52l-1.67-.28c-.24,0-.5-.08-.8-.11s-.59-.08-.88-.13a5.61,5.61,0,0,1-.78-.2,6.84,6.84,0,0,0-.86-.23q-.88-.17-.75-.75a.35.35,0,0,0-.08-.26.43.43,0,0,1-.07-.33,3.07,3.07,0,0,0,.05-1.46,3.29,3.29,0,0,0-.94-1.42,6.95,6.95,0,0,0-4.13-.81,2.45,2.45,0,0,0-1.64.81,3.93,3.93,0,0,0-.53,1.36,5.27,5.27,0,0,1-.21.64,5.16,5.16,0,0,0-.21.63l-.32,1.23a4.65,4.65,0,0,0-.12.66,3.83,3.83,0,0,1-.1.59,4.65,4.65,0,0,0-.12.66,4.21,4.21,0,0,1-.11.6,2.3,2.3,0,0,1-.25.62,2.3,2.3,0,0,0-.25.62l-.32,1.23a2.28,2.28,0,0,0-.07.67,2.07,2.07,0,0,1-.06.61,2.31,2.31,0,0,1-.26.62,2,2,0,0,0-.24.57,5.06,5.06,0,0,0-.12.65,5.59,5.59,0,0,1-.12.66,4.23,4.23,0,0,1-.19.57,4.37,4.37,0,0,0-.21.64l-.32,1.23a3.27,3.27,0,0,0-.11.65,4,4,0,0,1-.11.6,4.3,4.3,0,0,0-.12.65,3.25,3.25,0,0,1-.11.66,4,4,0,0,1-.2.58,4.22,4.22,0,0,0-.21.63,4.3,4.3,0,0,0-.12.65,3.76,3.76,0,0,1-.1.6,4.37,4.37,0,0,1-.21.64,3.85,3.85,0,0,0-.2.57,2.66,2.66,0,0,1-.26.62,2.72,2.72,0,0,0-.26.63,3.27,3.27,0,0,0,0,1.49c.1.42.63.88,1.4,1.31a8.06,8.06,0,0,0,2,.87,7.43,7.43,0,0,0,2.4.19,3.14,3.14,0,0,0,1.8-.81,2.69,2.69,0,0,0,.79-1.33,2.92,2.92,0,0,0,.06-.73,2.76,2.76,0,0,1,0-.66,2.47,2.47,0,0,1,.23-.6,1.85,1.85,0,0,0,.15-.68c0-.18.07-.42.09-.66a4,4,0,0,1,.1-.66,4.29,4.29,0,0,1,.2-.7c.08-.23.14-.45.19-.64a1.56,1.56,0,0,0,0-.68,1.31,1.31,0,0,1,0-.68l.28-1.3a6.13,6.13,0,0,1,.2-.7c.08-.23.14-.44.19-.64.09-.43-.17-.71-.78-.83l-1.3-.23c-.43-.06-.86-.14-1.29-.23s-.77-.41-.65-.88l.25-1.06a2.94,2.94,0,0,0,.08-.54,2.94,2.94,0,0,1,.08-.54,4,4,0,0,1,.17-.52,2.27,2.27,0,0,0,.17-.52c.12-.47.44-.65,1-.53a5,5,0,0,1,1,.29,4.83,4.83,0,0,0,1,.29l2,.39,1,.21c.3.08.63.15,1,.22a3.59,3.59,0,0,0,.93,0,4.44,4.44,0,0,1,1,.06c.3.05.63.12,1,.2s.69.15,1,.2.6.28.54.63a1.31,1.31,0,0,0,0,.62,1.71,1.71,0,0,1,0,.68,2.49,2.49,0,0,1-.2.58,2.09,2.09,0,0,0-.21.64,1.27,1.27,0,0,0,0,.61,1.72,1.72,0,0,1,0,.68,2.1,2.1,0,0,1-.2.58,1.82,1.82,0,0,0-.2.58,4,4,0,0,0-.07.66q0,.3-.06.6a2.83,2.83,0,0,1-.21.64,2.13,2.13,0,0,0-.21.58l-.22,1.25a2.18,2.18,0,0,0,0,.67,1.72,1.72,0,0,1,0,.6,3.92,3.92,0,0,1-.15.59A3.61,3.61,0,0,0,193.46,451Zm-17.12-17.6s0,.07.07.08S176.33,433.48,176.34,433.44Zm.83,2.45.12-.09-.27-.07c.12,0,.18.07.17.11l-.11,0Zm-3.71,15.41c.16-.08.19-.22.11-.41C173.4,451,173.36,451.15,173.46,451.3Zm-.2,3,.1-.36c-.07,0-.11,0-.12,0v.06l0,.06-.11,0,.08.08,0,.06Zm2.91-9.7a.82.82,0,0,0,.12.66,3.26,3.26,0,0,0,.11-.79C176.25,444.53,176.18,444.58,176.17,444.61Zm5.54-19.38-.17,0,.06.14C181.65,425.34,181.69,425.31,181.71,425.23Zm-.65,1.77,0,.06.09,0Zm-4,29.8,0-.11-.09-.08-.08-.08-.11,0s0,.06,0,.07a.05.05,0,0,1,0,.07l-.33.05h.21A.42.42,0,0,1,177.07,456.8ZM185,424.43a.32.32,0,0,1-.19,0v.06s0,.06.07.08.09,0,.1,0S185,424.44,185,424.43Zm-7.16,31.11c.41,0,.66,0,.75-.14l.11,0-.39-.08v.05c0,.08-.06.11-.13.1a1.37,1.37,0,0,0-.31,0l-.21,0A.39.39,0,0,1,177.8,455.54Zm.1,1.26c0,.06.22.09.49.11l-.34-.32Q178,456.77,177.9,456.8Zm8.18-32.62a1.05,1.05,0,0,0-.15,1,.62.62,0,0,1,0,.63v.06l.25.05.25.06.05-.18a1.65,1.65,0,0,1,.08-.72s0-.13-.11-.28l-.13-.21c.06,0,.1,0,.12-.1a.21.21,0,0,0,0-.19.08.08,0,0,0-.07-.08h-.14A.15.15,0,0,1,186.08,424.18Zm1.09,1.72-.09.05a.26.26,0,0,0-.19,0,.86.86,0,0,0,.27,0l.17,0a.79.79,0,0,1,.24.11l.16.1-.29-.31C187.39,425.85,187.31,425.85,187.17,425.9Zm-7.3,31.76.29.06-.18-.1c-.06-.05-.08-.1-.07-.14l-.09-.08,0,.24Zm9.33-7.53c.09-.12,0-.29-.22-.41l-.2,0a1.41,1.41,0,0,1-.39,0l.08-.41a3.86,3.86,0,0,1-.17.58,4,4,0,0,0-.17.59c0,.07.09.22.31.42a.52.52,0,0,0,.49-.46C189,450.37,189.08,450.26,189.2,450.13ZM193,429.26l0,.12v-.06Zm-5,25.49.11,0c-.06,0-.09,0-.08-.08v-.05l-.11,0h.1Zm5.12-23.93c-.17,0-.25-.09-.24-.17a.21.21,0,0,0,0,.19s0,.06,0,0Zm-4,24.93q.1,0,0-.18Q189,455.67,189.08,455.75Z"/><path class="cls-1" d="M244.31,463.3c.05.37-.17.61-.78.64a7.05,7.05,0,0,0-1.11.13,6.26,6.26,0,0,1-1.11.13,10,10,0,0,1-1.12,0,10,10,0,0,0-1.12,0c-.41,0-.78,0-1.12,0h-1.11a.85.85,0,0,1-.92-.59,1,1,0,0,0-.06-.3,4.59,4.59,0,0,1-.1-.51c0-.22-.13-.48-.16-.69a2.51,2.51,0,0,0-.26-.66,4.21,4.21,0,0,1-.36-.84,8.66,8.66,0,0,0-.41-1.51.72.72,0,0,0-.69-.36l-1.09,0-1.09,0c-.33,0-.7,0-1.09,0s-.76,0-1.09,0a8.19,8.19,0,0,0-1,0,7.6,7.6,0,0,1-1.09,0l-2.18-.06c-.4,0-.63.11-.71.34l-.45,1.5a4.23,4.23,0,0,1-.28.74,3.66,3.66,0,0,0-.28.75,9,9,0,0,1-.27,1.49c-.11.42-.53.65-1.14.62-.34,0-.71,0-1.12-.08s-.77-.06-1.11-.08a7,7,0,0,0-1,0,8.3,8.3,0,0,1-1.11,0l-2.23-.14c-.81-.05-1.25-.39-1.16-.8a1.87,1.87,0,0,1,.36-.64,2.13,2.13,0,0,0,.35-.58,11.34,11.34,0,0,1,.4-1.3,1.41,1.41,0,0,0,.13-.42,2.08,2.08,0,0,1,.08-.39,3.39,3.39,0,0,0,.08-.44c.05-.22.15-.47.21-.69a3.41,3.41,0,0,1,.19-.62,3.75,3.75,0,0,0,.2-.62,3.19,3.19,0,0,1,.19-.62,4.06,4.06,0,0,0,.19-.62,3.75,3.75,0,0,1,.2-.62c.19-.5.28-.75.47-1.24a2.29,2.29,0,0,1,.09-.48,1.78,1.78,0,0,1,.17-.38c.07-.14.16-.29.22-.44a2,2,0,0,0,.14-.63,4.7,4.7,0,0,1,0-.63,1.52,1.52,0,0,1,.37-.58,1.91,1.91,0,0,0,.38-.64,4.17,4.17,0,0,0,.18-.63,4.06,4.06,0,0,1,.19-.62l.27-1.32c.15-.39.25-.85.36-1.24.05-.19.13-.41.18-.63a3,3,0,0,1,.18-.62c.07-.2.15-.41.22-.62s.15-.46.23-.69a4.26,4.26,0,0,1,.26-.59,2.18,2.18,0,0,0,.27-.65c0-.1,0-.3.08-.54a4.35,4.35,0,0,1,.18-.71,1.75,1.75,0,0,0,.08-.66,1.55,1.55,0,0,1,.08-.66,2.23,2.23,0,0,1,.31-.59,3,3,0,0,0,.3-.65,1.48,1.48,0,0,0,.08-.63,1.46,1.46,0,0,1,.08-.63,2.41,2.41,0,0,1,.3-.65,2.35,2.35,0,0,0,.3-.59c.1-.4.2-.87.33-1.26a6,6,0,0,0,.16-.68c0-.22.13-.45.17-.63a2.65,2.65,0,0,1,.06-.42,1.93,1.93,0,0,1,.15-.39c.06-.13.14-.29.2-.44a1.46,1.46,0,0,0,.07-.63,1.85,1.85,0,0,1,.07-.63c.1-.4.18-.89.32-1.32a5.56,5.56,0,0,1,.24-.62,5,5,0,0,0,.24-.63c.25-.47.55-.7.89-.69a4.15,4.15,0,0,1,.85.12,4.75,4.75,0,0,0,.77.11l1.72,0a4.07,4.07,0,0,0,.85-.07,3.63,3.63,0,0,1,.86-.08,6.22,6.22,0,0,1,.86.06,6.11,6.11,0,0,0,.86.07h1.63c.57,0,.91.2,1,.6a2.46,2.46,0,0,0,0,1.32l.27,1.27a3.15,3.15,0,0,0,.19.57c.12.3.22.54.27.69a9.19,9.19,0,0,0,.46,1.26,2.91,2.91,0,0,0,0,.39c0,.18.07.34.1.48a1.64,1.64,0,0,0,.14.39,1.8,1.8,0,0,1,.1.66,1.8,1.8,0,0,0,.1.66,6.86,6.86,0,0,0,.39,1.26,3.3,3.3,0,0,1,.19.6,6.56,6.56,0,0,0,.19.66,1.88,1.88,0,0,1,.11.66,2.42,2.42,0,0,0,.11.66c.16.51.26,1,.39,1.26a1.38,1.38,0,0,1,.11.6,2.14,2.14,0,0,0,.11.66c.07.16.15.39.25.69a3.12,3.12,0,0,1,.16.63l.1.54c.08.32.18.58.21.72a2.5,2.5,0,0,0,.21.6c.13.27.23.49.3.65a2.25,2.25,0,0,1,.11.69l0,.63a1.83,1.83,0,0,0,.26.6,5.28,5.28,0,0,1,.36.65c.13.5.19.76.32,1.26a1.76,1.76,0,0,1,.12.63,1.76,1.76,0,0,0,.12.63c.14.52.21.79.34,1.31s.21.76.34,1.26l.35,1.25a5.31,5.31,0,0,0,.07.66,2.12,2.12,0,0,0,.18.66c.25.5.38.75.64,1.24a4.5,4.5,0,0,1,.28.6,2.23,2.23,0,0,1,.18.65,4.57,4.57,0,0,0,.08.63,3.18,3.18,0,0,0,.17.63c0,.12,0,.39.09.69a1.59,1.59,0,0,0,.18.63A6.82,6.82,0,0,1,244.31,463.3Zm-26.45-2.49a.48.48,0,0,1,.07-.15.77.77,0,0,0,.06-.15s-.08.1-.22.17l-.11.18C217.79,460.87,217.86,460.85,217.86,460.81ZM218,460l.11-.11a.2.2,0,0,0,.11-.12C218.1,459.82,218,459.89,218,460Zm2.32-2.11v-.24h-.1c.07,0,.1,0,.1.06Zm.83-2.61v-.12C221.11,455.17,221.11,455.21,221.17,455.25Zm.76.52v-.13l-.2.12v.18a.1.1,0,0,0,.15,0A.33.33,0,0,0,221.93,455.77Zm.92-.93h.39q0-.12-.18-.24h-.2l-.2.11C222.66,454.79,222.72,454.83,222.85,454.84ZM224,441.31a.3.3,0,0,0,.18.13l-.09-.13Zm.76,6.48s0,.06.09.06l.19.07a2.09,2.09,0,0,0-.18-.43s0,.06-.09.06l-.1.12v.06S224.71,447.79,224.78,447.79Zm.55-2.09.18.06s0-.06-.09-.06l-.09-.12v.06Q225.22,445.7,225.33,445.7ZM232.6,454a1.38,1.38,0,0,0,.63-.18c.22-.12.29-.25.24-.36s-.15-.42-.24-.64-.18-.43-.25-.63a1.72,1.72,0,0,1,0-.69,6,6,0,0,0,.05-.63c-.08-.53-.12-.8-.19-1.33a5.15,5.15,0,0,0-.29-.57,4.09,4.09,0,0,1-.28-.7,1.5,1.5,0,0,1,0-.63,4.11,4.11,0,0,0,0-.63,2.28,2.28,0,0,0-.09-.7q-.09-.33-.18-.63a2.37,2.37,0,0,0-.28-.61,1.69,1.69,0,0,1-.18-.6,2.91,2.91,0,0,1,0-.69,6.13,6.13,0,0,0,0-.64c-.07-.53-.1-.79-.17-1.32a1.81,1.81,0,0,0-.05-.43,2.54,2.54,0,0,0-.13-.39,2.82,2.82,0,0,1-.18-.45,4.88,4.88,0,0,0-.08-.61q-.09-.3-.18-.66a7.46,7.46,0,0,1-.25-1.27c0-.19,0-.41,0-.63s-.06-.48-.08-.7a3.49,3.49,0,0,0-.09-.6,6.56,6.56,0,0,1-.17-.67,1.49,1.49,0,0,1,.05-.39c0-.14.07-.25.1-.33l.09-.24a.13.13,0,0,0,0-.18.81.81,0,0,0-.35-.07c-.3,0-.46,0-.49.15a.78.78,0,0,0,.08.48,1.76,1.76,0,0,1,.12.58l-.2,1.26-.38,1.32a3.61,3.61,0,0,1-.06.54c0,.24-.1.49-.15.72-.08.42-.24.91-.3,1.26a5.43,5.43,0,0,0,0,.7v.63a1.38,1.38,0,0,1-.2.66,1.83,1.83,0,0,0-.29.6,2.56,2.56,0,0,0,0,.66,2.28,2.28,0,0,1-.06.66c-.1.37-.18.83-.31,1.26q-.1.36-.21.66a5.14,5.14,0,0,0-.11.6c0,.18-.12.41-.15.63s-.13.48-.16.69a4.79,4.79,0,0,1-.11.6,5.68,5.68,0,0,0-.21.66c-.09.38-.19.82-.33,1.26-.07.23-.14.46-.21.66a3.65,3.65,0,0,0-.11.6,1.32,1.32,0,0,0,0,.63,2,2,0,0,1,0,.69c0,.21.21.37.66.38l1,.05c.32,0,.65.05,1,.05s.65,0,1,.05.64,0,1,0,.64,0,1,0S232.27,454,232.6,454Zm2.44,1.62h.09v-.06H235Zm1.08-13,.09.18A.19.19,0,0,0,236.12,442.61Zm.68,7.7c.19-.12.28-.2.28-.24s-.09-.12-.28-.12l-.39-.11c-.13,0-.19,0-.19.12a1.06,1.06,0,0,0,.11.48A4.26,4.26,0,0,1,236.8,450.31Zm.53-2.05c.06-.05,0-.09-.05-.12a.81.81,0,0,0-.33-.06.88.88,0,0,0-.37.19v.18c.19.16.35.17.47.05s0-.08.14-.12S237.33,448.3,237.33,448.26Zm0-.25a.24.24,0,0,1,.18-.12s-.06-.1-.19-.18v0l-.09.13C237.23,448,237.27,448,237.33,448Zm3.35,12.59q.09,0,.09-.3c0-.13,0-.18-.11-.18s-.2.1-.19.18S240.54,460.6,240.68,460.6Z"/><path class="cls-1" d="M293.38,446.06a2.57,2.57,0,0,0,.09.66,1.4,1.4,0,0,0,.37.6,1.55,1.55,0,0,1,.37.59,1.85,1.85,0,0,1,0,.68,1.62,1.62,0,0,0,0,.67,2.34,2.34,0,0,0,.27.62,2.39,2.39,0,0,1,.28.62,1.81,1.81,0,0,1,0,.67,1.87,1.87,0,0,0,0,.68,1.94,1.94,0,0,0,.33.61,1.9,1.9,0,0,1,.33.6c.05.19.09.41.13.65a4.06,4.06,0,0,0,.13.66,2.34,2.34,0,0,1,.09.69,2.2,2.2,0,0,0,.08.64c.09.35-.15.6-.74.74l-1.86.46-1.87.44-1,.26c-.33.1-.62.17-.88.23a1.52,1.52,0,0,1-1.43-.3l-.79-1.13c-.55-.58-.88-.92-1-1l-.86-1.05a9.19,9.19,0,0,0-1-1.09,3.47,3.47,0,0,0-.56-.44,2.12,2.12,0,0,1-.57-.5,3.65,3.65,0,0,0-.53-.54,5.3,5.3,0,0,1-.51-.48,6.47,6.47,0,0,1-.37-.54c-.15-.26-.28-.46-.38-.6l-.85-1.13a2.41,2.41,0,0,1-.55-.51l-.46-.52a6,6,0,0,0-.5-.49,3,3,0,0,1-.51-.55l-.81-1.07-.82-1.14a1.7,1.7,0,0,1-.3-.53,2.44,2.44,0,0,0-.42-.63c-.09-.09-.24-.28-.45-.53l-.44-.54a3.87,3.87,0,0,1-.35-.55l-.36-.61a5.36,5.36,0,0,0-.44-.56,6.47,6.47,0,0,1-.43-.51c-.1-.13-.24-.34-.45-.6s-.36-.4-.42-.47a3.72,3.72,0,0,1-.34-.56l-.35-.61-.68-1.11a1.4,1.4,0,0,1,0,.61,1.72,1.72,0,0,0,0,.68l.25,1.31a1.77,1.77,0,0,0,.2.57,2.09,2.09,0,0,1,.21.64,4.22,4.22,0,0,1,.08.66,4,4,0,0,0,.08.66,1.48,1.48,0,0,0,.26.63,1.58,1.58,0,0,1,.25.57,2.42,2.42,0,0,1,0,.67,2.42,2.42,0,0,0,0,.67,5.1,5.1,0,0,0,.17.65,3.83,3.83,0,0,1,.16.58,1.88,1.88,0,0,1,0,.71,1.76,1.76,0,0,0,0,.64,1.27,1.27,0,0,0,.32.63,1.14,1.14,0,0,1,.3.56,6.07,6.07,0,0,1,.07.63,4.3,4.3,0,0,0,.08.69,4.72,4.72,0,0,0,.17.64,4.83,4.83,0,0,1,.17.65,1.78,1.78,0,0,1,0,.61,1.92,1.92,0,0,0,0,.67,4,4,0,0,1,.07.66,4.22,4.22,0,0,0,.08.66,2.94,2.94,0,0,0,.16.58,5.1,5.1,0,0,1,.17.65,2.44,2.44,0,0,1,0,.67,2.42,2.42,0,0,0,0,.67,2.13,2.13,0,0,0,.21.58,2,2,0,0,1,.22.63l.25,1.31.23,1.24c.09.48-.2.77-.86.88-.34.06-.67.12-1,.2s-.66.13-1,.18-.67.1-1,.13l-1.11.13a8.42,8.42,0,0,1-1,.09c-.34,0-.68,0-1,.08-.8.12-1.24,0-1.3-.43l-.19-1.25a1.55,1.55,0,0,1,.05-.68,1.36,1.36,0,0,0,.05-.67,1.38,1.38,0,0,0-.24-.58,1.56,1.56,0,0,1-.25-.64,5.42,5.42,0,0,1-.05-.66,3,3,0,0,0,0-.6,2.35,2.35,0,0,1,0-.7,2.28,2.28,0,0,0,0-.64,2.14,2.14,0,0,0-.19-.59,2.29,2.29,0,0,1-.2-.64,3,3,0,0,0-.15-.65,3.9,3.9,0,0,1-.14-.59l-.2-1.31a2.08,2.08,0,0,1,0-.61,2.5,2.5,0,0,0,0-.67c-.08-.5-.12-.75-.19-1.25l-.2-1.32-.2-1.25a3.7,3.7,0,0,0-.14-.65,4.2,4.2,0,0,1-.14-.59,4.82,4.82,0,0,0-.15-.65,3.7,3.7,0,0,1-.14-.65c-.08-.5-.12-.75-.19-1.26a3.85,3.85,0,0,1-.06-.66,4,4,0,0,0,0-.6,4,4,0,0,1-.06-.66,4.08,4.08,0,0,0,0-.61,4.94,4.94,0,0,0-.15-.65,6.4,6.4,0,0,1-.14-.65l-.19-1.25-.19-1.25a2.76,2.76,0,0,1,0-.7,2.27,2.27,0,0,0,0-.64,3.87,3.87,0,0,0-.13-.59,5.21,5.21,0,0,1-.15-.65,2.14,2.14,0,0,0-.18-.65,2.05,2.05,0,0,1-.18-.58,4,4,0,0,1-.06-.66,4.08,4.08,0,0,0,0-.61,4,4,0,0,1-.06-.66,4,4,0,0,0-.06-.66,3.87,3.87,0,0,0-.13-.59,3.91,3.91,0,0,1-.14-.65,4.82,4.82,0,0,0-.15-.65,4.49,4.49,0,0,1-.13-.59c-.06-.4.25-.65.93-.74.34-.05.64-.1.92-.16s.56-.12.85-.16.64-.11.92-.17l.84-.16a3.16,3.16,0,0,1,.87,0,3.44,3.44,0,0,0,.95,0c.45-.07.72-.06.79.05a9.77,9.77,0,0,1,1,1.06,2.27,2.27,0,0,1,.25.6,1.71,1.71,0,0,0,.35.64l.41.55.42.54.77,1.15a4,4,0,0,1,.3.62c.12.26.22.47.31.62a2.4,2.4,0,0,0,.51.52,2.28,2.28,0,0,1,.52.52,2.5,2.5,0,0,1,.26.62,3.27,3.27,0,0,0,.27.63,2.83,2.83,0,0,0,.53.55,4.63,4.63,0,0,1,.52.48c.08.11.19.29.34.55l.36.61a7.23,7.23,0,0,0,.46.59c.2.24.36.42.44.53s.24.34.45.59l.45.53c.32.45.49.67.81,1.13a2.33,2.33,0,0,1,.32.58,3.91,3.91,0,0,0,.34.64c.08.11.21.29.36.54s.28.46.38.61a2.55,2.55,0,0,0,.55.53,4.63,4.63,0,0,1,.54.47,5,5,0,0,1,.38.57,6.39,6.39,0,0,0,.39.63c.08.11.21.29.37.54s.28.46.38.6a3.57,3.57,0,0,0,.53.57,5.88,5.88,0,0,1,.51.51,4.49,4.49,0,0,1,.38.53q.24.39.39.6l.88,1.17a1.51,1.51,0,0,0-.12-.69q-.17-.48-.21-.66a2.72,2.72,0,0,0-.26-.63,2.77,2.77,0,0,1-.25-.62c-.12-.52-.19-.78-.31-1.3a1.7,1.7,0,0,1,0-.6,2.28,2.28,0,0,0-.07-.67,4.13,4.13,0,0,1-.11-.66,4.3,4.3,0,0,0-.12-.65,1.48,1.48,0,0,0-.29-.62,1.59,1.59,0,0,1-.3-.61,2.26,2.26,0,0,1-.06-.67,2.28,2.28,0,0,0-.07-.67l-.32-1.29a4.26,4.26,0,0,0-.2-.63,4.36,4.36,0,0,1-.19-.58A4.13,4.13,0,0,1,283,436a5.06,5.06,0,0,0-.12-.65,5.12,5.12,0,0,0-.2-.64,3.86,3.86,0,0,1-.2-.64,5.8,5.8,0,0,0-.21-.63c-.08-.23-.15-.44-.2-.64l-.31-1.29a1.58,1.58,0,0,1,0-.68,1.39,1.39,0,0,0,0-.61,2.23,2.23,0,0,0-.24-.63,2.24,2.24,0,0,1-.25-.63c-.12-.51-.19-.77-.31-1.29a4.3,4.3,0,0,1-.12-.65,6,6,0,0,0-.11-.66,6.12,6.12,0,0,0-.2-.64,3.33,3.33,0,0,1-.2-.63c-.13-.5-.19-.74-.31-1.24s.15-.59.71-.71l1.67-.38c.27-.07.55-.14.82-.23s.55-.16.83-.22a4.8,4.8,0,0,0,.8-.29,4,4,0,0,1,.81-.3,1.26,1.26,0,0,1,.73.07.73.73,0,0,1,.48.44l.36,1.28a2.69,2.69,0,0,1,.1.66,3.29,3.29,0,0,0,.09.67,6.27,6.27,0,0,0,.23.63c.09.22.16.43.22.63l.36,1.28.36,1.28a3.7,3.7,0,0,1,.14.65,4.89,4.89,0,0,0,.14.65,2.34,2.34,0,0,0,.27.62,3.05,3.05,0,0,1,.28.68,2.25,2.25,0,0,1,.1.66,1.94,1.94,0,0,0,.09.66,3.83,3.83,0,0,0,.22.63,4.61,4.61,0,0,1,.23.63,2.19,2.19,0,0,0,.27.62,2.7,2.7,0,0,1,.27.62,1.55,1.55,0,0,1,.05.67,1.58,1.58,0,0,0,0,.68,6.48,6.48,0,0,0,.23.63,4.17,4.17,0,0,1,.23.63l.36,1.28a4.63,4.63,0,0,0,.22.63,3.08,3.08,0,0,1,.23.63,4.49,4.49,0,0,1,.14.65,4.39,4.39,0,0,0,.13.65,4.61,4.61,0,0,1,.14.66,4.66,4.66,0,0,0,.13.65,4.61,4.61,0,0,0,.23.63,3.8,3.8,0,0,1,.23.63l.37,1.34A2.19,2.19,0,0,1,293.38,446.06Zm-25.5-3.94a.33.33,0,0,0,.06-.2l-.18,0A.2.2,0,0,0,267.88,442.12Zm-1.27-8.73c0-.08,0-.12.07-.13l-.08.07-.08,0Zm-.5-5.11.07-.13-.08.07Zm4.75,26.94c.19,0,.28-.1.26-.22l-.19.09C270.87,455.14,270.85,455.18,270.86,455.22Zm1.25,2a1.38,1.38,0,0,0,.28-.11l-.2,0Zm-.22-4.12a.2.2,0,0,0,.23-.07c.09-.07.09-.13,0-.16l-.09,0c-.07,0-.1,0-.11,0l-.09.07Zm-3.08-19a.42.42,0,0,0,.26-.1l-.09,0Zm.32-1.76.7-.11a.6.6,0,0,0-.47-.11C269.19,432.14,269.11,432.21,269.13,432.33Zm.29-2.86v-.06l-.17.09Zm13.23,17.75.11,0s0-.05-.11,0l-.1,0v0S282.59,447.24,282.65,447.22Zm1.4-16.2c.06,0,.14,0,.24-.12l-.17,0Zm-1-6.49s0-.11.13-.21l-.26.06,0,.06Zm8.26,29.38c.26-.07.37-.17.33-.33s-.18-.14-.43-.08c-.07,0-.09.06-.07.14S291.29,453.92,291.35,453.91Zm-5.85-23,.14-.16-.09,0A.15.15,0,0,0,285.5,430.93Zm1,1.06c-.07,0-.15,0-.23.18a.5.5,0,0,0,.29.05s0-.05-.1,0l-.12-.1Zm.48.75c-.2.18-.28.34-.24.5l.16-.1.09,0a.58.58,0,0,1,0-.19A1,1,0,0,0,287,432.74Zm3.78,11.85a.68.68,0,0,0-.15-.21c-.05.05-.17,0-.33-.11l-.23.24c-.08.19-.08.33,0,.43a1.05,1.05,0,0,1,.35-.18A1,1,0,0,0,290.78,444.59Z"/><path class="cls-1" d="M365.7,406.64a1.35,1.35,0,0,0,.48.4,1.43,1.43,0,0,1,.49.41,2.05,2.05,0,0,1,.33.59,1.78,1.78,0,0,0,.3.54,3.24,3.24,0,0,0,.44.51,4.36,4.36,0,0,1,.41.46,1.36,1.36,0,0,1,.26.57,1.41,1.41,0,0,0,.29.62,3.55,3.55,0,0,0,.41.46,5.87,5.87,0,0,1,.41.46,3.76,3.76,0,0,0,.44.51,3,3,0,0,1,.41.46,1.78,1.78,0,0,1,.3.54,2.28,2.28,0,0,0,.32.59,1.51,1.51,0,0,0,.49.41,1.22,1.22,0,0,1,.49.4,1.9,1.9,0,0,1,.27.67,2.16,2.16,0,0,0,.23.63,5.6,5.6,0,0,1,.17,1.38c0,.9,0,1.4,0,1.5a2.67,2.67,0,0,1-.37.93c-.23.42-.37.66-.4.73a4.55,4.55,0,0,1-.59.9l-.58.73a9.52,9.52,0,0,1-1.23,1.57,10.69,10.69,0,0,1-1.66,1.33L366,426.15l-1.87,1.19-1.88,1.18c-.29.17-.58.34-.88.5s-.62.34-1,.55a7,7,0,0,0-.92.62,10.48,10.48,0,0,1-.92.62c-.35.2-.66.4-.94.58s-.6.38-.95.59-.67.39-.95.57-.59.38-.94.58a2.37,2.37,0,0,1-1.11.3.81.81,0,0,1-.8-.36,3.35,3.35,0,0,1-.3-.6q-.15-.33-.3-.6l-.66-1.1a3.35,3.35,0,0,0-.39-.55,5.23,5.23,0,0,1-.39-.55,2.36,2.36,0,0,1-.25-.63,2.16,2.16,0,0,0-.26-.62,4,4,0,0,1-.27-.55,5.59,5.59,0,0,0-.3-.6,4.17,4.17,0,0,1-.31-.6,4.2,4.2,0,0,0-.3-.6,2.08,2.08,0,0,0-.43-.53,1.79,1.79,0,0,1-.39-.48,6.55,6.55,0,0,0-.39-.55,5.23,5.23,0,0,1-.39-.55,2.49,2.49,0,0,1-.26-.62,1.87,1.87,0,0,0-.26-.63,2.17,2.17,0,0,0-.39-.47,2.49,2.49,0,0,1-.43-.53,1.68,1.68,0,0,1-.24-.68,1.63,1.63,0,0,0-.2-.61,2.62,2.62,0,0,0-.43-.54,1.91,1.91,0,0,1-.39-.47,2.31,2.31,0,0,0-.43-.53,2.62,2.62,0,0,1-.43-.54,1.74,1.74,0,0,1-.22-.64,1.58,1.58,0,0,0-.22-.64,2,2,0,0,0-.39-.48,2.62,2.62,0,0,1-.43-.54,2.75,2.75,0,0,1-.26-.62,2.7,2.7,0,0,0-.27-.62,4.1,4.1,0,0,0-.35-.5,4.07,4.07,0,0,1-.38-.55,6.55,6.55,0,0,0-.4-.58,4,4,0,0,1-.37-.53,5.43,5.43,0,0,0-.39-.56,3.7,3.7,0,0,1-.35-.5l-.69-1.15a2.49,2.49,0,0,1-.26-.62,2.39,2.39,0,0,0-.66-1.1,2.8,2.8,0,0,1-.42-.53L337.3,407a1.59,1.59,0,0,1-.2-.59,1.51,1.51,0,0,0-.23-.64,5,5,0,0,0-.38-.55c-.15-.2-.27-.38-.38-.56-.26-.44-.39-.66-.66-1.1a2,2,0,0,0-.42-.53,3,3,0,0,1-.42-.54l-.65-1.1a2.75,2.75,0,0,1-.27-.62,3.48,3.48,0,0,0-.27-.61,5.58,5.58,0,0,1-.31-.6,5.58,5.58,0,0,0-.31-.6l-.66-1.1c-.31-.52-.15-.95.47-1.31l.81-.42c.25-.12.51-.26.8-.42s.55-.31.8-.43.52-.27.8-.44a8.61,8.61,0,0,0,.77-.49c.22-.15.48-.32.76-.49l1.55-.94,1.54-1,1.47-.93,1.52-1a17.2,17.2,0,0,1,1.55-1,9.41,9.41,0,0,1,1.69-.48,7.29,7.29,0,0,1,1.7-.21,10,10,0,0,1,1.65.11l1.48.29a6.39,6.39,0,0,1,1.09.88,2.36,2.36,0,0,0,.49.36,2.32,2.32,0,0,1,.6.51,3.63,3.63,0,0,0,.41.46,5.79,5.79,0,0,1,.44.51,4.21,4.21,0,0,1,.34.52,4.89,4.89,0,0,0,.37.56l.78,1a1.67,1.67,0,0,1,.27.57,1.65,1.65,0,0,0,.3.61l.77,1c.32.41.47.62.78,1,.05.06.24.24.57.53s.47.48.39.58a6.47,6.47,0,0,1,.16,1.55,16,16,0,0,1-.41,1.71c0,.07-.1.3-.22.69a2.8,2.8,0,0,1-.49.93,7.52,7.52,0,0,1,1.77-.19,6.17,6.17,0,0,1,1.82.13,10.52,10.52,0,0,1,1.37.75,4.34,4.34,0,0,1,1,1.06,5,5,0,0,1,.37.57,4.79,4.79,0,0,0,.74,1A4.66,4.66,0,0,1,365.7,406.64Zm-26.38-1.17a.25.25,0,0,1,0,.24c0,.1-.06.16,0,.2l.12-.14a.29.29,0,0,1,.13-.14c-.08,0-.1,0-.07-.1l0-.06S339.37,405.44,339.32,405.47Zm5.45,7.49c.06,0,.11-.17.16-.44l-.08.05,0,.05s0,.08-.12.14l-.08.05Zm2.22,3.23a1.74,1.74,0,0,1,.1-.19c0-.07,0-.09,0-.06s0,.14-.09.2Zm7.17,11,.17-.1h-.12l-.26.14h.24l.08-.05Zm-11.85-22.56v.14l0-.09Zm8.29,12.9,0-.05,0-.05Zm-3.84-7.24a.33.33,0,0,0,.12-.14L347,410a.22.22,0,0,1,.1-.09l-.1-.16h-.11c-.12-.08-.26,0-.42.18s-.24.3-.21.34C346.49,410.4,346.68,410.41,346.76,410.31Zm10.48,15.86.2-.05-.15-.05a.46.46,0,0,1-.19-.1l-.1.2c-.07.14,0,.16.15.05ZM347,410.47l.18.11-.13-.21h-.12Zm1.62.67s0-.07,0-.1l.09-.2c0-.17-.25-.22-.65-.17l.13.2c0,.07,0,.17.09.31l-.05.09c0,.11,0,.16.1.16A.6.6,0,0,0,348.59,411.14ZM339,395.91l.17,0,.07,0-.06-.1s0,.08-.11.14Zm20.66,16a3.5,3.5,0,0,1-.31-.53,4.46,4.46,0,0,0-.31-.52,6.53,6.53,0,0,0-.43-.53,3.47,3.47,0,0,1-.39-.47,4.88,4.88,0,0,0-1.21-.59,3,3,0,0,0-1.41-.4,4.24,4.24,0,0,0-1.75.7,5.24,5.24,0,0,1-.75.37,4.58,4.58,0,0,0-.83.41,5.85,5.85,0,0,0-.67.49,4.65,4.65,0,0,1-.67.49c-.73.45-.94.91-.63,1.39a2.88,2.88,0,0,1,.28.61,2.88,2.88,0,0,0,.32.66,1.8,1.8,0,0,0,.49.5,1.5,1.5,0,0,1,.48.49,2.12,2.12,0,0,1,.29.61,2.12,2.12,0,0,0,.29.61,5.32,5.32,0,0,0,.4.54,6,6,0,0,1,.44.59,2.92,2.92,0,0,0,.45.52,3.43,3.43,0,0,1,.45.51,2.88,2.88,0,0,1,.28.61,2.75,2.75,0,0,0,.28.62,1.63,1.63,0,0,1,.25.63,1.78,1.78,0,0,0,.24.64,2.6,2.6,0,0,0,.48.57,2.57,2.57,0,0,1,.45.51l.73,1.13.73,1.13a.83.83,0,0,0,.73.31,2,2,0,0,0,1-.31l1.51-.94c.28-.18.56-.34.85-.5s.55-.31.77-.45a4.18,4.18,0,0,0,1.34-1.53,3.16,3.16,0,0,0,.31-1.44,2,2,0,0,0-.37-1.22,1.82,1.82,0,0,1-.27-.56,2.19,2.19,0,0,0-.28-.55,1.28,1.28,0,0,0-.47-.42,1.37,1.37,0,0,1-.47-.42,1.59,1.59,0,0,1-.27-.63,1.42,1.42,0,0,0-.23-.58,2,2,0,0,0-.43-.45,1.83,1.83,0,0,1-.43-.45,2.15,2.15,0,0,1-.31-.6,2.56,2.56,0,0,0-.27-.55Zm-17.87-14.47c-.72.45-.94.89-.65,1.33a1.74,1.74,0,0,0,.47.5,1.64,1.64,0,0,1,.48.5,2.79,2.79,0,0,1,.29.6,3.39,3.39,0,0,0,.33.66l.73,1.13a2.88,2.88,0,0,1,.29.61,3.47,3.47,0,0,0,.29.61c.14.2.28.4.44.59a5.32,5.32,0,0,1,.4.54,4.22,4.22,0,0,0,.41.54,6.32,6.32,0,0,1,.4.54,3.18,3.18,0,0,1,.32.67,3.47,3.47,0,0,0,.29.61c.27.41.81.37,1.63-.14a4.94,4.94,0,0,1,.72-.37,4.54,4.54,0,0,0,.71-.38l1.45-.91a3.56,3.56,0,0,0,1-1.33,3.24,3.24,0,0,0,.45-1.39,3.56,3.56,0,0,0-.11-1.39,3.71,3.71,0,0,0-.5-.55,3.23,3.23,0,0,1-.5-.55l-.88-1.25-.84-1.2c-.36-.5-.53-.75-.88-1.25a3.05,3.05,0,0,0-1-.82,3,3,0,0,0-1.49-.34,3.73,3.73,0,0,0-1.7.67c-.2.12-.4.27-.63.44s-.46.32-.7.47-.45.3-.63.43S342,397.27,341.75,397.42Zm8.63,11h.11l.1.15c.15-.17.22-.26.36-.44a.48.48,0,0,1,0-.25c0-.13,0-.2-.08-.2s-.14.18-.24.29A.51.51,0,0,1,350.38,408.39Zm12.32,17.95a.83.83,0,0,1,.24-.08c.11,0,.22-.1.21-.13s-.18-.1-.35,0A.26.26,0,0,0,362.7,426.34Zm-.72-1.42a.66.66,0,0,0,.07-.26c.12-.18.14-.26.06-.26l-.28.11-.05.1C361.77,424.71,361.84,424.82,362,424.92Zm1.88.47.26-.16a.59.59,0,0,0-.29.11Zm-.43-1.53c0,.07.05.13.22.14s.22,0,.2-.05a.47.47,0,0,1,0-.36.57.57,0,0,0,0-.31s-.15,0-.36,0l-.2,0a.42.42,0,0,0,0,.29A1.08,1.08,0,0,0,363.43,423.86Zm1.09.53.25-.16a1,1,0,0,0-.17-.15.36.36,0,0,0-.24-.1,1,1,0,0,0-.44.07c-.06,0,0,.3.12.36s.29,0,.39,0ZM343.67,393a.24.24,0,0,1-.1.14l-.07.05,0,0a.17.17,0,0,1,.14.05q.18.26.39.12v-.15a.26.26,0,0,1,.11-.14,4,4,0,0,1-.46-.07Zm21,30.69c.22-.15.3-.27.23-.37l-.37.17c-.08,0-.11,0-.08.05l.1.15S364.6,423.75,364.66,423.72Zm-20.11-32.07a.71.71,0,0,0-.45.67l.52,0c.1-.06.13-.11.11-.14C344.77,391.87,344.66,391.64,344.55,391.65Zm11.74,15.19.27-.26h-.12a.35.35,0,0,0-.18.06h-.11Zm-10.17-15.57c.07,0,.14,0,.19-.17s.08-.18.06-.21h-.22l-.31-.45-.07.05a.71.71,0,0,1,.05.37.57.57,0,0,0,.06.36Zm1.67,1.9c.16-.06.23-.11.21-.14ZM365,414.27c.09-.21,0-.27-.37-.19a.29.29,0,0,0-.19.06l.07.1,0,.05s0,.1-.08.21l-.05.1q.3.09.39-.12l.16-.11S365,414.3,365,414.27Zm-3.26-4.51-.16.1.15.05,0,0h.11l-.11-.15Zm-7.76-10.71,0,.2c.14-.1.17-.21.07-.34l-.14-.05,0,.1Zm-2.19-3.46-.07.05,0,.05S351.7,395.62,351.74,395.59Zm1,.15c-.19.23-.26.38-.21.44a1.4,1.4,0,0,1,.25-.1.67.67,0,0,0,.25-.1l-.07-.24ZM350,392.18s0,.07,0,.1l-.07.05.21-.15Zm1,0,0,.05.24-.1c-.11,0-.19,0-.21,0l.14-.1-.07-.1A.46.46,0,0,0,351,392.19Z"/><path class="cls-1" d="M396.56,392.48a5.83,5.83,0,0,1,.45.51,4.77,4.77,0,0,0,.44.51l1,.95a5.78,5.78,0,0,1,.44.5,4.78,4.78,0,0,0,.45.51l1,1a2.47,2.47,0,0,0,.54.38,2.54,2.54,0,0,1,.57.42c.26.26.13.65-.4,1.18-.24.25-.47.5-.69.77a8.16,8.16,0,0,1-.69.76c-.24.23-.49.46-.75.68s-.52.46-.76.69-.58.53-.84.75-.52.45-.76.68c-.6.56-1,.7-1.28.43a5.08,5.08,0,0,1-.47-.57,4.76,4.76,0,0,0-.43-.52l-.93-1-.93-1-.93-1a2.5,2.5,0,0,1-.39-.56,2.85,2.85,0,0,0-.43-.6,1.94,1.94,0,0,0-.6-.41,1.69,1.69,0,0,1-.55-.36,6.53,6.53,0,0,1-.43-.53,3.84,3.84,0,0,0-.43-.52l-.92-1a3.84,3.84,0,0,1-.43-.52,5,5,0,0,0-.43-.52l-.93-1a4.76,4.76,0,0,1-.43-.52,6.57,6.57,0,0,0-.48-.57,3.54,3.54,0,0,0-.5-.46,3.44,3.44,0,0,1-.49-.46,2.32,2.32,0,0,0-.54-.42,2.57,2.57,0,0,1-.53-.43,3.29,3.29,0,0,1-.43-.52,4.72,4.72,0,0,0-.43-.52,5.12,5.12,0,0,0-.5-.46,4.06,4.06,0,0,1-.5-.45c-.37-.4-.56-.59-.93-1a4.93,4.93,0,0,1-.43-.53c-.15-.19-.3-.38-.47-.56a4.11,4.11,0,0,0-.48-.44,4.62,4.62,0,0,1-.52-.48,2.4,2.4,0,0,1-.38-.53,2.79,2.79,0,0,0-.42-.57,5.49,5.49,0,0,1-.41-.5,5.36,5.36,0,0,0-.45-.54,2.69,2.69,0,0,0-.51-.41,2.58,2.58,0,0,1-.55-.45,4.06,4.06,0,0,0-.48-.43c-.17-.15-.35-.31-.52-.49a2.42,2.42,0,0,1-.39-.55,3.55,3.55,0,0,0-.4-.55,5.79,5.79,0,0,0-.5-.45,6.51,6.51,0,0,1-.54-.51,4.72,4.72,0,0,1-.43-.52,4.87,4.87,0,0,0-.44-.52,5.08,5.08,0,0,0-.49-.46,4.11,4.11,0,0,1-.5-.46c-.31-.32-.23-.7.23-1.13.25-.24.49-.45.71-.63a9.49,9.49,0,0,0,.71-.63c.25-.24.47-.47.67-.68s.41-.44.66-.68.47-.48.66-.69.4-.45.65-.69c.54-.54.81-.81,1.34-1.36s.76-.78,1.27-1.3l1.32-1.38c.19-.21.42-.44.67-.68s.48-.47.67-.68a10.35,10.35,0,0,1,1.43-1.29,7.23,7.23,0,0,1,1.58-.94,9.28,9.28,0,0,1,1.59-.71,8.74,8.74,0,0,1,1.67-.43,13,13,0,0,1,1.52,0,5,5,0,0,1,1.4.24,4.33,4.33,0,0,1,1.2.66,6.51,6.51,0,0,1,.54.51,5.26,5.26,0,0,0,.49.47,2.86,2.86,0,0,0,.62.4,2.71,2.71,0,0,1,1.08.91,3.26,3.26,0,0,0,.51.54l1.08.91a5.13,5.13,0,0,1,.53.51,6.51,6.51,0,0,0,.54.51,6.22,6.22,0,0,1,1.07,1,6.08,6.08,0,0,1,.38,1.55c.1.68.14,1,.24,1.71a6.64,6.64,0,0,1-.31,1.11c-.18.52-.3.84-.35,1-.11.5.06.81.49.93l.65.19.7.23c.13,0,.36.08.68.15a6.72,6.72,0,0,1,.74.18,3.15,3.15,0,0,1,.63.36,2,2,0,0,0,.58.31,4.85,4.85,0,0,0,.7.08,4,4,0,0,1,.74.12,4.72,4.72,0,0,1,.66.32,2.57,2.57,0,0,0,.62.26,8.8,8.8,0,0,1,1.3.46l1.37.38.67.11a3.53,3.53,0,0,1,.72.15,2.38,2.38,0,0,1,.64.34,1.71,1.71,0,0,0,.59.29,5.49,5.49,0,0,0,.71.07,2.6,2.6,0,0,1,.75.1l.71.25a4.89,4.89,0,0,0,.66.22c.16,0,.39.13.68.23a4.22,4.22,0,0,0,.64.19l1.38.34c.24.1.32.24.26.41a2.76,2.76,0,0,1-.49.75l-1.46,1.75c-.26.31-.5.61-.71.89s-.45.57-.72.88-.52.6-.76.84-.5.53-.78.84c-.5.57-.95.8-1.37.71-.19-.08-.41-.18-.64-.3a6.65,6.65,0,0,0-.75-.26,7.47,7.47,0,0,1-.79-.36,3.07,3.07,0,0,1-.58-.32,1.22,1.22,0,0,1-.41-.09,2.31,2.31,0,0,0-.52-.12,2.36,2.36,0,0,1-.51-.12l-.73-.25a6.18,6.18,0,0,0-.68-.21l-1.4-.47a2.39,2.39,0,0,1-.61-.29,5,5,0,0,0-.66-.33l-.69-.29c-.29-.14-.52-.23-.68-.3l-1.35-.44a5,5,0,0,0-1.46-.42,9.61,9.61,0,0,0-1.39-.49l-1.38-.51-.7-.2a5.88,5.88,0,0,1-.74-.24.91.91,0,0,0-1,.35,9.5,9.5,0,0,0-.68.79,10.38,10.38,0,0,1-.76.86c-.49.49-.61.87-.34,1.13l1,.94a2.53,2.53,0,0,0,.55.41,2.27,2.27,0,0,1,.55.4,2,2,0,0,1,.41.54,2.32,2.32,0,0,0,.42.54,2.07,2.07,0,0,0,.55.41,2.48,2.48,0,0,1,.55.4l1,.95a4,4,0,0,1,.45.5m-7.62.41.3.3.28-.26-.13-.13Q387.86,391.21,387.57,391.48Zm5.64,5.81a.82.82,0,0,0,.36.08l.09.09c.09-.09.08-.2,0-.31l-.17-.18Zm-7.79-8.85c0,.15,0,.23,0,.26l.18-.08,0-.11Zm5.45,5.32,0,.11.18-.09,0-.12Zm-1-1.54c-.05.11-.08.17-.12.28l.11,0,.11,0,0-.11Zm4.25,4.76a3.59,3.59,0,0,0,.68-.31l.1-.18.1-.18c0-.15-.05-.27-.1-.25C394.61,396.17,394.25,396.78,394.16,397Zm-13-13.6a.4.4,0,0,1,.07.2c.06-.12.1-.16.13-.13l-.09-.09S381.15,383.41,381.12,383.38Zm7.34,7.5.16,0,0-.11,0,0Zm-5.57-6.22.18.17c.15.08.34,0,.55-.36l-.46-.07ZM397,397.57c-.05-.24-.27-.22-.67.05l-.07.07c-.05,0-.06.08,0,.11s0,.11.09.09l.2.06a.73.73,0,0,0,.3-.12Zm-5.74-4.95c.27.08.47,0,.62-.35a.82.82,0,0,0-.44-.17s-.09,0-.19.1C391.13,392.44,391.13,392.58,391.26,392.62Zm-16.94-17.43c0,.08,0,.17,0,.21s.2.07.32,0c0,0,0-.08.08-.17l.13-.12a.31.31,0,0,1-.19-.07l-.07.06-.1,0A.14.14,0,0,0,374.32,375.19Zm16.95,16.05-.18.09q-.73.38-.39.72s.07,0,.11,0,.09-.06.12,0c.14-.13.19-.22.16-.24A1.82,1.82,0,0,0,391.27,391.24Zm-1.59-1.45,0,.15c.08,0,.1,0,.07-.07Zm-11.59-12.18-.09.17.11,0Zm1.65-1.37.87.86a2.53,2.53,0,0,0,.55.41,2.28,2.28,0,0,1,.5.36,1.46,1.46,0,0,1,.34.53,1.47,1.47,0,0,0,.34.52,1.62,1.62,0,0,0,.58.38,1.5,1.5,0,0,1,.54.34,3.57,3.57,0,0,1,.4.46,4.49,4.49,0,0,0,.41.46l.92.9c.17.17.5,0,1-.46a6.46,6.46,0,0,1,.84-.73,6.11,6.11,0,0,0,.78-.67,9.9,9.9,0,0,0,.73-.85,9,9,0,0,1,.66-.78,4.93,4.93,0,0,0,1-1.5,3.77,3.77,0,0,0,.3-1.6,1.66,1.66,0,0,0-.55-1.12,6.14,6.14,0,0,1-.43-.45,4.47,4.47,0,0,0-.42-.45l-.87-.78a3.51,3.51,0,0,1-.42-.44,3,3,0,0,0-.38-.4,2.37,2.37,0,0,0-1.31-.58,4.1,4.1,0,0,0-1.65.44,5,5,0,0,0-1.58,1c-.2.22-.42.46-.65.73s-.47.54-.72.8c-.57.59-.85.88-1.43,1.46S379.44,376,379.74,376.24Zm1.44-5,.16,0C381.28,371.2,381.22,371.19,381.18,371.23ZM380,369.67c-.05.12-.06.19,0,.22a.28.28,0,0,1,.16-.09l0,0Q380.1,369.61,380,369.67ZM392,380a.16.16,0,0,0-.26,0,1.21,1.21,0,0,1-.24.16l-.15,0,.11.24c.06-.12.1-.16.13-.14l.13.13.09-.18.06-.07Zm-.37,0,.08-.18,0-.15-.13.14-.07.07ZM384.06,369l0,.21a.24.24,0,0,0,.16-.09l0-.11Zm.69-3.07a.46.46,0,0,1-.08.28.48.48,0,0,0,.27-.12s0-.07,0-.14Zm10.53,9.41.18-.1-.08.18h.15l0,0a.17.17,0,0,0,0-.15l-.11,0,.17-.1-.11,0-.05,0A.37.37,0,0,0,395.28,375.29Zm-9.43-8.8q0,.12,0,.15c.05-.11.09-.16.12-.13l0,0Zm9.18,8.07c.13,0,.22,0,.26,0a1,1,0,0,0,.31-.73l-.25.29c-.19.16-.28.25-.25.28S395,374.54,395,374.56Zm10.83,8.6.1.08.06-.08c.05-.05.05-.09,0-.11Zm3.39,2c-.09.11-.12.17-.09.2Zm-13.82-12.37,0,.22.11,0s.05-.08,0-.11Zm14.42,11c-.22.08-.35.19-.37.35A1.29,1.29,0,0,0,409.85,383.8ZM389.7,366.75c0,.15,0,.23,0,.26l.16-.1,0-.11A.22.22,0,0,0,389.7,366.75Zm18.8,15.89a1,1,0,0,1-.15.27c.09-.1.15-.14.18-.11Zm-13.07-11.45c-.16.19-.18.33-.05.44l.23.2a.65.65,0,0,0-.06-.3A2.36,2.36,0,0,1,395.43,371.19Zm12.86,11.14a.72.72,0,0,1-.11.31l.18-.12.07-.07Zm3.1,2.51-.14-.12-.18.12.09.08,0,0Zm-17.11-14.76c0,.12,0,.19,0,.22a.21.21,0,0,0,.2.05.42.42,0,0,1-.09-.14C394.34,370.15,394.32,370.1,394.28,370.08Z"/><path class="cls-1" d="M444,334.73c.35.13.46.47.19,1.07a8.61,8.61,0,0,0-.42,1.15,7.06,7.06,0,0,1-.43,1.14,10.57,10.57,0,0,1-.56,1.07,8,8,0,0,0-.57,1.06c-.19.4-.38.75-.55,1.07s-.37.67-.56,1.07a.89.89,0,0,1-1,.59,1.31,1.31,0,0,0-.3-.1,2.82,2.82,0,0,1-.5-.15c-.22-.07-.49-.11-.7-.18a2.26,2.26,0,0,0-.71-.08,3.5,3.5,0,0,1-.92-.07,9,9,0,0,0-1.54-.35.75.75,0,0,0-.66.49c-.16.31-.35.66-.56,1l-.57,1c-.16.31-.35.65-.57,1l-.57,1a8.39,8.39,0,0,0-.45,1,8.86,8.86,0,0,1-.5,1c-.45.82-.68,1.22-1.13,2-.21.37-.23.64-.05.83l1.1,1.16a4.12,4.12,0,0,1,.52.63,4.62,4.62,0,0,0,.52.62,7.42,7.42,0,0,1,1.2,1c.31.3.31.81,0,1.37-.18.3-.39.64-.62,1s-.45.69-.63,1a8.6,8.6,0,0,0-.5.95,9.71,9.71,0,0,1-.56,1c-.5.8-.74,1.2-1.25,2s-1,.94-1.29.66a1.65,1.65,0,0,1-.39-.64,2.25,2.25,0,0,0-.34-.6,11.75,11.75,0,0,1-1-1,1.56,1.56,0,0,0-.3-.32,2.38,2.38,0,0,1-.31-.26,3.27,3.27,0,0,0-.35-.3c-.17-.15-.34-.37-.51-.52a3.44,3.44,0,0,1-.45-.49,3.46,3.46,0,0,0-.46-.48,3.44,3.44,0,0,1-.45-.49,4.16,4.16,0,0,0-.46-.48,4.16,4.16,0,0,1-.46-.48c-.34-.42-.51-.64-.86-1.06a1.62,1.62,0,0,1-.38-.31,1.87,1.87,0,0,1-.25-.34c-.09-.14-.18-.29-.28-.43a2.13,2.13,0,0,0-.49-.43,4.12,4.12,0,0,1-.54-.35,1.76,1.76,0,0,1-.33-.63,1.92,1.92,0,0,0-.38-.67,5.16,5.16,0,0,0-.46-.48,4.17,4.17,0,0,1-.47-.47l-1-.9c-.27-.33-.63-.65-.93-.95-.14-.14-.29-.32-.46-.47a5.21,5.21,0,0,1-.47-.47c-.14-.17-.28-.34-.44-.51s-.33-.36-.49-.55a3.74,3.74,0,0,1-.39-.54,3.14,3.14,0,0,0-.45-.57c-.08-.06-.25-.17-.44-.33a6.67,6.67,0,0,1-.55-.52,1.65,1.65,0,0,0-.54-.4,1.55,1.55,0,0,1-.55-.4,2.44,2.44,0,0,1-.37-.57,2.81,2.81,0,0,0-.43-.61,1.56,1.56,0,0,0-.52-.38,1.52,1.52,0,0,1-.52-.38,2.53,2.53,0,0,1-.43-.6,2,2,0,0,0-.37-.57c-.3-.29-.67-.61-.95-.92a4.81,4.81,0,0,0-.53-.49c-.17-.15-.34-.34-.48-.46s-.25-.17-.34-.27a3.43,3.43,0,0,1-.27-.33,4.41,4.41,0,0,0-.29-.4,1.58,1.58,0,0,0-.53-.37,1.71,1.71,0,0,1-.52-.38c-.31-.29-.7-.6-1-.94a6.4,6.4,0,0,1-.44-.54c-.14-.19-.29-.37-.43-.53a1.1,1.1,0,0,1-.18-1.17,4.76,4.76,0,0,1,.53-.74,3.83,3.83,0,0,0,.48-.67l.88-1.59a4.9,4.9,0,0,0,.35-.85,4.9,4.9,0,0,1,.35-.85,7.85,7.85,0,0,1,.49-.78,7.68,7.68,0,0,0,.47-.78l.8-1.56c.28-.54.62-.78,1-.7a2.46,2.46,0,0,0,1.19.64l1.26.35a2,2,0,0,0,.6.11c.32,0,.58.05.74.08a9.17,9.17,0,0,0,1.35.17,2.24,2.24,0,0,0,.37.15l.47.14a1.52,1.52,0,0,0,.42.06,1.54,1.54,0,0,1,.64.23,1.56,1.56,0,0,0,.63.22,6.4,6.4,0,0,0,1.31.25,2.42,2.42,0,0,1,.63.11,4.11,4.11,0,0,0,.68.13,2.09,2.09,0,0,1,.64.23,2.31,2.31,0,0,0,.64.22c.52.09,1,.22,1.31.23a1.46,1.46,0,0,1,.58.2,2,2,0,0,0,.64.22c.18,0,.42,0,.74.09a2.73,2.73,0,0,1,.63.16l.53.16c.32.09.61.12.74.15a2.44,2.44,0,0,0,.63.1l.73,0a1.77,1.77,0,0,1,.67.23l.58.29a1.42,1.42,0,0,0,.65,0,7.11,7.11,0,0,1,.75,0l1.28.3a1.56,1.56,0,0,1,.61.19,1.69,1.69,0,0,0,.62.2l1.34.31,1.28.29,1.28.28a3.72,3.72,0,0,0,.62.25,2.43,2.43,0,0,0,.67.16l1.42,0a5.59,5.59,0,0,1,.66,0,2.15,2.15,0,0,1,.67.15c.11.05.31.13.6.23a2.87,2.87,0,0,0,.64.14c.12,0,.36.16.65.26a1.81,1.81,0,0,0,.65.13A6,6,0,0,1,444,334.73Zm-15.23,23.85a.53.53,0,0,1-.1-.13.28.28,0,0,0-.1-.13s.05.12.05.28l.1.19C428.75,358.67,428.77,358.6,428.73,358.58Zm-.66-.56-.05-.15c0-.08,0-.14,0-.16C428,357.88,428,358,428.07,358Zm-.72-3.18-.2-.13-.06.09c0-.06.07-.08.11-.06Zm-1.91-2.06-.1-.06C425.34,352.8,425.37,352.82,425.44,352.78Zm.84-.44-.1-.07v.24l.16.1c.07,0,.09-.09.05-.15A.32.32,0,0,0,426.28,352.34Zm-.36-1.32.2-.35c-.07-.05-.17,0-.31,0l-.1.18v.24C425.78,351.18,425.85,351.14,425.92,351Zm-11.45-7.73c.1,0,.17-.05.2-.11l-.15,0Zm6.14,2.47s.07,0,.1-.06l.15-.14a2.35,2.35,0,0,0-.46-.05s0,.07,0,.12l.06.15.05,0S420.58,345.82,420.61,345.76ZM419,344.22l.15-.14s-.07,0-.1.05l-.15,0,.05,0C419,344.27,419,344.28,419,344.22Zm10.93-2.8a1.44,1.44,0,0,0,.15-.69c0-.27-.08-.4-.2-.41s-.44-.06-.68-.08a4.7,4.7,0,0,1-.68-.08,1.52,1.52,0,0,1-.64-.29,6.23,6.23,0,0,0-.54-.36l-1.27-.47a4.48,4.48,0,0,0-.65,0,3.11,3.11,0,0,1-.76-.08,1.26,1.26,0,0,1-.58-.26,6.23,6.23,0,0,0-.54-.36,2.13,2.13,0,0,0-.66-.25l-.66-.14a2.88,2.88,0,0,0-.67,0,1.43,1.43,0,0,1-.62-.12,2.39,2.39,0,0,1-.64-.3,6.23,6.23,0,0,0-.54-.36l-1.26-.49a1.75,1.75,0,0,0-.4-.16,2.29,2.29,0,0,0-.42-.07,2.63,2.63,0,0,1-.49,0,3.39,3.39,0,0,0-.57-.22L416,336a7.39,7.39,0,0,1-1.25-.38c-.17-.08-.37-.21-.56-.32a6,6,0,0,0-.66-.26,3,3,0,0,0-.58-.22,5.48,5.48,0,0,1-.67-.17,1.12,1.12,0,0,1-.32-.24,1.93,1.93,0,0,1-.25-.25c-.06-.07-.11-.14-.17-.2s-.12-.09-.18-.05a.6.6,0,0,0-.23.3c-.15.27-.19.45-.12.53a.82.82,0,0,0,.47.16,1.54,1.54,0,0,1,.57.17l1,.81,1,1c.11.07.26.17.46.32s.38.34.56.5c.33.28.69.67,1,.9a4.43,4.43,0,0,0,.61.35l.55.32a1.29,1.29,0,0,1,.49.52,1.9,1.9,0,0,0,.39.56,3,3,0,0,0,.6.3,1.67,1.67,0,0,1,.56.38c.28.27.64.57,1,.91l.48.52a5.07,5.07,0,0,0,.48.4c.14.11.31.31.48.45s.36.35.54.49a4.06,4.06,0,0,1,.48.4c.14.16.3.35.48.52s.63.58,1,.92l.47.52a3.9,3.9,0,0,0,.48.4,1.37,1.37,0,0,0,.55.33,1.86,1.86,0,0,1,.61.36c.17.14.43,0,.67-.44s.34-.59.52-.88.36-.59.52-.89.34-.6.52-.89.35-.59.52-.9.33-.6.51-.9S429.79,341.73,430,341.42Zm2.64-1.53.05-.1-.06,0,0,.09Zm-11-7.4h.2A.2.2,0,0,0,421.59,332.49Zm7.18,3.12c0-.24,0-.37-.08-.39s-.15,0-.24.22l-.29.31c-.06.13-.06.21,0,.24a.88.88,0,0,0,.47.14A3.13,3.13,0,0,1,428.77,335.61Zm-1.57-1.52c0-.08-.05-.08-.13,0a.94.94,0,0,0-.21.29,1.3,1.3,0,0,0,0,.45l.17.09c.23-.11.32-.25.27-.43,0,0,0-.08,0-.19S427.24,334.11,427.2,334.09ZM427,334a.29.29,0,0,1,0-.24s-.12,0-.26.1l0,0,0,0,.07.15C426.89,334,427,334,427,334Zm12.82,2.95c0-.06,0-.15-.23-.24s-.18-.05-.21,0,0,.24.07.28S439.74,337.06,439.8,336.93Z"/><path class="cls-1" d="M436.09,294.69a1.32,1.32,0,0,1,.68,0,3.6,3.6,0,0,1,.63.25,4,4,0,0,0,.62.25,3.6,3.6,0,0,1,.63.25,5.32,5.32,0,0,0,.62.25,4.34,4.34,0,0,0,.66.14,3.46,3.46,0,0,1,.65.14l1.28.4a2,2,0,0,1,.61.3,1.59,1.59,0,0,0,1.23.32,1.66,1.66,0,0,1,.68,0,1.9,1.9,0,0,1,.6.35,1.65,1.65,0,0,0,.59.36,1.67,1.67,0,0,0,.68,0,1.56,1.56,0,0,1,.69,0,4.23,4.23,0,0,1,.62.25,4.36,4.36,0,0,0,.62.26,3.17,3.17,0,0,1,.63.25,3.65,3.65,0,0,0,.62.25c.4.09.88.15,1.31.28a1.82,1.82,0,0,1,.55.29,2.06,2.06,0,0,0,.61.31,4.38,4.38,0,0,0,.68.15,4.13,4.13,0,0,1,.63.13,4.38,4.38,0,0,0,.68.15,3.77,3.77,0,0,1,.62.13,1.85,1.85,0,0,1,.61.31,1.85,1.85,0,0,0,.61.31c.54.17.68.75.42,1.72s-.34,1.22-.57,2c-.08.3-.16.64-.23,1a7.41,7.41,0,0,1-.23,1c-.09.3-.19.63-.32,1s-.24.69-.33,1a2.64,2.64,0,0,1-.61,1.08c-.28.27-.53.36-.76.28a2,2,0,0,1-.6-.34,2,2,0,0,0-.59-.33,3.74,3.74,0,0,0-.62-.16,3,3,0,0,1-.68-.18,5.12,5.12,0,0,0-.62-.15,4.57,4.57,0,0,1-.68-.18l-1.26-.45a3.13,3.13,0,0,1-.61-.28,4,4,0,0,0-.62-.27,1.78,1.78,0,0,0-.66-.12,1.77,1.77,0,0,1-.61-.1,1.56,1.56,0,0,1-.58-.38,1.7,1.7,0,0,0-.58-.38,1.62,1.62,0,0,0-.68-.07,1.48,1.48,0,0,1-.68-.06,4.64,4.64,0,0,1-.62-.28,3.94,3.94,0,0,0-.61-.27,4.64,4.64,0,0,0-.65-.18,3.85,3.85,0,0,1-.65-.17,1.59,1.59,0,0,1-.61-.39,1.41,1.41,0,0,0-.55-.36,3.61,3.61,0,0,0-.65-.17,5.06,5.06,0,0,1-.65-.18,2.51,2.51,0,0,0-.66-.12,2.16,2.16,0,0,1-.66-.12,1.61,1.61,0,0,1-.58-.38,1.85,1.85,0,0,0-.59-.37,1.28,1.28,0,0,0-.62-.05,1.46,1.46,0,0,1-.68-.07,1.43,1.43,0,0,1-.58-.38,1.45,1.45,0,0,0-.59-.37,3.6,3.6,0,0,0-.64-.17,5,5,0,0,1-.65-.18,4.45,4.45,0,0,1-.62-.27,3.85,3.85,0,0,0-.61-.27,2,2,0,0,0-.66-.13,2,2,0,0,1-.66-.12,4,4,0,0,1-.62-.27,4,4,0,0,0-.62-.28,3.85,3.85,0,0,1-.61-.27,4,4,0,0,0-.62-.27,3,3,0,0,0-.59-.15,4.85,4.85,0,0,1-.64-.18l-1.27-.45a3.47,3.47,0,0,1-.61-.27,6.16,6.16,0,0,0-.62-.27,2,2,0,0,0-.67-.08,1.61,1.61,0,0,1-.68-.08,5.21,5.21,0,0,1-.61-.27,6.16,6.16,0,0,0-.62-.27.79.79,0,0,1-.47-.63,1.87,1.87,0,0,1,0-1.07,6.74,6.74,0,0,1,.31-.83,6.06,6.06,0,0,0,.3-.83c.08-.25.17-.53.28-.84s.2-.58.27-.84a6.33,6.33,0,0,0,.2-.92,6.43,6.43,0,0,1,.16-.83,2.5,2.5,0,0,1,.52-1c.24-.27.47-.37.71-.3a3,3,0,0,1,.61.29,2.45,2.45,0,0,0,.61.3,5,5,0,0,1,.63.24,5.75,5.75,0,0,0,.62.25l1.28.39,1.28.4,1.27.39,1.28.4,1.22.37a2,2,0,0,0,.67.1,1.94,1.94,0,0,1,.66.09,5.51,5.51,0,0,1,.63.25,3.21,3.21,0,0,0,.62.25,3.31,3.31,0,0,1,.63.25,5.32,5.32,0,0,0,.62.25A1.44,1.44,0,0,0,436.09,294.69Zm1.49,7.05a1.42,1.42,0,0,0,.72.13c0-.37-.15-.54-.54-.53A1,1,0,0,0,437.58,301.74Zm4.28.53a.25.25,0,0,0-.14-.16l-.09.08-.11,0c-.16.11-.17.21-.1.32a1.28,1.28,0,0,1,.08.6.77.77,0,0,0,.27,0,.79.79,0,0,1,.28,0l0-.12a1.15,1.15,0,0,1,.3-.37c0-.08-.1-.14-.23-.19A.35.35,0,0,1,441.86,302.27Zm10.41,4.22a.63.63,0,0,1,.13-.2.82.82,0,0,0-.55-.06l-.07.22a.69.69,0,0,0,.25,0A.63.63,0,0,1,452.27,306.49Zm-16.83-6.94c0-.08-.07,0-.15.07a.26.26,0,0,1-.2,0c-.27-.09-.43-.11-.49-.05s0,.21.11.26c.19.21.36.3.49.27l.35.12a.18.18,0,0,1,.2,0c.15-.1.24-.18.26-.25s-.1-.15-.26-.2l-.14.06a.76.76,0,0,1-.23.15C435.4,299.81,435.41,299.72,435.44,299.55Zm7.47,2.61-.15-.16-.12.19.06,0A.2.2,0,0,0,442.91,302.16Zm-17.46-6.36.12,0-.06-.23-.12.17Zm26.27,8.46.1-.33-.06,0,0,.11C451.73,304.11,451.72,304.16,451.72,304.26ZM440,300c.08-.28.08-.47,0-.58a1.25,1.25,0,0,0-.09-.25,1.53,1.53,0,0,1-.08-.26c0-.14,0-.21,0-.35a.49.49,0,0,0-.75,0,.44.44,0,0,0-.15.52A1.46,1.46,0,0,0,440,300Zm-14.88-5.2.12.25a.86.86,0,0,0,.14-.27l-.11,0Zm7,1.72-.26.25C432,296.86,432,296.78,432.06,296.56Zm8.82,3c0,.17.18.2.4.13a.68.68,0,0,0,.52-.52c-.05-.09-.18-.09-.37,0l-.2-.18C441.09,299,441,299.18,440.88,299.53Zm9.63,2.53.06-.22s-.09,0-.16.13-.12.14-.16.12l0-.11c-.06.07,0,.19,0,.37l0,.13,0,.13c.11.19.23.07.35-.37a.1.1,0,0,0-.08-.14Zm-4.28-1.38,0,.11V301l.15-.31Z"/><path class="cls-1" d="M454.43,232.53a2.25,2.25,0,0,0,.67.13,1.18,1.18,0,0,0,.66-.26,1.18,1.18,0,0,1,.66-.26,1.4,1.4,0,0,1,.67.19,1.42,1.42,0,0,0,.66.2,1.88,1.88,0,0,0,.66-.13,1.93,1.93,0,0,1,.67-.13,1.42,1.42,0,0,1,.66.2,1.42,1.42,0,0,0,.66.2,1.49,1.49,0,0,0,.67-.2,1.42,1.42,0,0,1,.66-.2,3.23,3.23,0,0,1,.66.07,4.24,4.24,0,0,0,.67.07,1.8,1.8,0,0,1,.69.13,1.67,1.67,0,0,0,.63.14c.36,0,.54.4.54,1.21,0,1,0,1.54,0,2.55s0,1.53,0,2.54c0,.45,0,.89,0,1.33s0,.85,0,1.2a2.11,2.11,0,0,1-.66,1.69l-1.29.59c-.7.49-1.12.77-1.24.85l-1.24.71a8.11,8.11,0,0,0-1.3.82,3.14,3.14,0,0,0-.57.54,2.15,2.15,0,0,1-.64.53,3.5,3.5,0,0,0-.65.46,6.75,6.75,0,0,1-.6.47,5.43,5.43,0,0,1-.62.27c-.29.1-.52.19-.68.26l-1.31.65a2.45,2.45,0,0,1-.64.51c-.29.19-.5.31-.62.38s-.33.23-.61.45a2.73,2.73,0,0,1-.66.43l-1.25.63-1.32.61a1.45,1.45,0,0,1-.59.18,1.78,1.78,0,0,0-.72.3c-.1.07-.33.18-.63.35l-.63.36a5.08,5.08,0,0,1-.63.24l-.68.22a4,4,0,0,0-.66.35c-.28.16-.49.29-.61.34s-.4.18-.69.34a5.07,5.07,0,0,0-.58.35,2.74,2.74,0,0,1-.62.22l-.69.21-1.25.44a1.16,1.16,0,0,1,.58.24,1.37,1.37,0,0,0,.64.25l1.32.15a1.58,1.58,0,0,0,.61,0,1.91,1.91,0,0,1,.68,0,3.73,3.73,0,0,1,.65.13,3.11,3.11,0,0,0,.65.14,1.21,1.21,0,0,0,.68-.1,1.15,1.15,0,0,1,.62-.1,2.19,2.19,0,0,1,.64.19,2.38,2.38,0,0,0,.65.2,3.8,3.8,0,0,0,.67,0,3,3,0,0,1,.6,0,1.45,1.45,0,0,1,.68.25,1.39,1.39,0,0,0,.61.26,1,1,0,0,0,.68-.16.89.89,0,0,1,.62-.17,3.07,3.07,0,0,1,.63.13,4.54,4.54,0,0,0,.68.14,4.75,4.75,0,0,0,.67,0,3.58,3.58,0,0,1,.66,0,1.85,1.85,0,0,1,.59.19,1.71,1.71,0,0,0,.65.2,3.7,3.7,0,0,1,.65.14,4,4,0,0,0,.66.14,3,3,0,0,0,.6,0,3.8,3.8,0,0,1,.67,0,2.44,2.44,0,0,1,.65.21,2.23,2.23,0,0,0,.64.2,1.64,1.64,0,0,0,.62-.06,1.64,1.64,0,0,1,.67,0l1.32.15,1.26.15c.48.06.68.51.59,1.35,0,.43-.07.85-.09,1.27s-.06.85-.1,1.27-.1.84-.17,1.25-.13.88-.19,1.38-.12.83-.21,1.24-.16.82-.21,1.23c-.13,1-.39,1.46-.79,1.4l-1.25-.21a1.29,1.29,0,0,1-.64-.29,1.31,1.31,0,0,0-.63-.29,1.15,1.15,0,0,0-.62.09,1.2,1.2,0,0,1-.68.07,2.94,2.94,0,0,1-.65-.16,2.46,2.46,0,0,0-.59-.16,2.22,2.22,0,0,1-.67-.23,1.9,1.9,0,0,0-.61-.23,1.58,1.58,0,0,0-.61,0,1.87,1.87,0,0,1-.67,0,4,4,0,0,0-.67-.05,3,3,0,0,1-.6,0l-1.31-.22a1.67,1.67,0,0,1-.59-.21,1.8,1.8,0,0,0-.64-.23l-1.25-.2L448,267l-1.26-.21a3,3,0,0,0-.66,0,3,3,0,0,1-.6,0,4,4,0,0,0-.67,0,4,4,0,0,1-.66-.05l-1.26-.21a3.74,3.74,0,0,1-.64-.16,4.31,4.31,0,0,0-.59-.16,2.94,2.94,0,0,1-.65-.16,3.19,3.19,0,0,0-.59-.15,4.47,4.47,0,0,0-.67-.05,4.43,4.43,0,0,1-.66-.05l-1.25-.21-1.26-.2a2.29,2.29,0,0,1-.67-.22,1.85,1.85,0,0,0-.61-.21,3,3,0,0,0-.6,0,4.06,4.06,0,0,1-.67-.06,2.14,2.14,0,0,0-.67,0,1.79,1.79,0,0,1-.61,0,3.86,3.86,0,0,1-.65-.16,3,3,0,0,0-.59-.15,5.15,5.15,0,0,1-.65-.16,2.94,2.94,0,0,0-.65-.16,3,3,0,0,0-.6-.05,3.12,3.12,0,0,1-.66,0,3.16,3.16,0,0,0-.67-.05,4,4,0,0,1-.6-.05c-.4-.06-.54-.51-.43-1.36.05-.42.09-.8.11-1.16s.05-.7.1-1.06.08-.81.1-1.17.05-.71.08-1.06a5.31,5.31,0,0,1,.23-1.05,5,5,0,0,0,.24-1.17c.06-.57.15-.88.27-.94a10.19,10.19,0,0,1,1.29-.84,1.81,1.81,0,0,1,.64-.09,1.5,1.5,0,0,0,.72-.2c.1-.06.34-.16.63-.32l.63-.32,1.32-.53a4.31,4.31,0,0,1,.68-.16,4.6,4.6,0,0,0,.68-.16,2.14,2.14,0,0,0,.64-.44,2.21,2.21,0,0,1,.63-.45,2.35,2.35,0,0,1,.68-.11,2.58,2.58,0,0,0,.67-.11,2.27,2.27,0,0,0,.67-.46,3.47,3.47,0,0,1,.61-.46,3.34,3.34,0,0,1,.62-.24l.68-.23a5.58,5.58,0,0,0,.69-.35l.62-.36a6,6,0,0,0,.69-.36l.63-.36,1.3-.61a2.13,2.13,0,0,1,.65-.19,3.52,3.52,0,0,0,.7-.19c.13-.06.34-.16.62-.26s.52-.19.68-.26a2.08,2.08,0,0,0,.66-.5,4.42,4.42,0,0,1,.6-.5,2.93,2.93,0,0,1,.65-.27,5.44,5.44,0,0,0,.7-.26c.13-.06.33-.16.62-.27l.68-.27a3.65,3.65,0,0,0,.68-.46,6.94,6.94,0,0,1,.62-.46,5.09,5.09,0,0,1,.62-.28c.29-.11.51-.2.67-.28l1.36-.69a1.07,1.07,0,0,0-.69-.09l-.7,0a2.1,2.1,0,0,0-.67.09,2,2,0,0,1-.66.09l-1.33-.06a1.66,1.66,0,0,1-.6-.15,1.68,1.68,0,0,0-.65-.16,3.19,3.19,0,0,1-.66-.09,3.29,3.29,0,0,0-.66-.09,1.25,1.25,0,0,0-.67.15,1.29,1.29,0,0,1-.67.15,1.77,1.77,0,0,1-.66-.15,2,2,0,0,0-.66-.16l-1.33-.06a3.48,3.48,0,0,0-.66,0,3,3,0,0,1-.6,0,4.16,4.16,0,0,1-.66-.09,4.27,4.27,0,0,0-.67-.09,3.81,3.81,0,0,0-.66,0,5,5,0,0,1-.66,0,3.88,3.88,0,0,0-.67,0,3.81,3.81,0,0,1-.66,0l-1.33-.07a1.38,1.38,0,0,1-.66-.2,1.13,1.13,0,0,0-.59-.2,1.65,1.65,0,0,0-.67.08,1.79,1.79,0,0,1-.67.08l-1.32-.06a3.29,3.29,0,0,1-.66-.09,3.29,3.29,0,0,0-.66-.09,3.59,3.59,0,0,0-.67,0,4.66,4.66,0,0,1-.66,0l-1.27-.06c-.36,0-.52-.39-.5-1.14,0-.9,0-1.35.06-2.25,0-.37,0-.75,0-1.13s0-.75,0-1.13a6.18,6.18,0,0,0-.07-1.13,6.25,6.25,0,0,1-.08-1.14,1.94,1.94,0,0,1,.24-.91c.16-.3.34-.46.55-.46h1.32a2.1,2.1,0,0,1,.66.12,2.21,2.21,0,0,0,.67.12,4,4,0,0,0,.66-.06,4,4,0,0,1,.66-.06h2.66a4,4,0,0,1,.66.05,3.23,3.23,0,0,0,.66.07,2.16,2.16,0,0,0,.67-.12,2.27,2.27,0,0,1,.72-.12,1.76,1.76,0,0,1,.66.12,1.81,1.81,0,0,0,.67.12,3.37,3.37,0,0,0,.66-.06,3.37,3.37,0,0,1,.66-.06,1.81,1.81,0,0,0,.67-.12,1.73,1.73,0,0,1,.66-.12,1.26,1.26,0,0,1,.66.18,1.28,1.28,0,0,0,.67.19,3.37,3.37,0,0,0,.66-.06,2.75,2.75,0,0,1,.66-.06h1.33a3.37,3.37,0,0,0,.66-.06,2.76,2.76,0,0,1,.67-.07,2.73,2.73,0,0,1,.66.07,3.37,3.37,0,0,0,.66.06,3.48,3.48,0,0,1,.67.06,2.73,2.73,0,0,0,.66.07,3.37,3.37,0,0,0,.66-.06,2.73,2.73,0,0,1,.66-.07h1.39A1.88,1.88,0,0,1,454.43,232.53Zm-10.6,30.26a.36.36,0,0,0-.17-.14l0,.23A.2.2,0,0,0,443.83,262.79Zm-8.71-1.49c-.08,0-.11-.05-.11-.13l.05.12v.11Zm-5-1.16L430,260l0,.11Zm27.12,3.6c0-.24,0-.37-.13-.39l0,.26C457.14,263.69,457.18,263.74,457.21,263.74Zm2.28-.8a1.86,1.86,0,0,0,0-.38l0,.24Zm-4-1.16a.37.37,0,0,0,0-.31c-.05-.13-.1-.16-.14-.08l0,.12c0,.08,0,.12-.07.11l.05.13Zm-19.07-2.88a.77.77,0,0,0,0-.35l0,.12Zm-1.6-1c0-.35.06-.53.09-.88a.84.84,0,0,0-.23.53C434.66,257.77,434.7,257.89,434.82,257.9Zm-2.65-1.33h-.06l0,.23Zm20.64-10,.06-.12s-.06,0-.06.12l-.07.12h0S452.8,246.61,452.81,246.52ZM437.59,239c0-.08,0-.19-.06-.36v.24Zm-6.49-1.13s-.1-.08-.18-.23V238H431Zm30.39.09c0-.35-.07-.53-.23-.53s-.18.17-.19.52a.12.12,0,0,0,.12.14C461.39,238.09,461.49,238.05,461.49,238Zm-23.62-.84-.12-.23V237Q437.81,237.12,437.87,237.12Zm1.28-.92q-.06.12.12.36a.84.84,0,0,0,.12-.35s-.06,0-.06.12l-.12.11Zm.85-.34c.12.32.25.49.41.49l-.05-.24V236a.38.38,0,0,1-.18-.07A.46.46,0,0,0,440,235.86Zm12.37-.54a.82.82,0,0,0-.25.13c0,.08,0,.21-.18.37.07.16.1.23.18.39s.29.21.42.13a1.65,1.65,0,0,1-.09-.51A1.9,1.9,0,0,0,452.37,235.32Z"/></g></g></svg>