<svg xmlns="http://www.w3.org/2000/svg" xmlns:xlink="http://www.w3.org/1999/xlink" viewBox="0 0 474.6 474.6"><defs><style>.cls-1{fill:#656d6f;}.cls-2{fill:url(#linear-gradient);}.cls-3{fill:#b590a2;}.cls-4{fill:url(#linear-gradient-2);}.cls-5{fill:url(#linear-gradient-3);}.cls-6{fill:#3c5764;}.cls-7{fill:#8f6286;}.cls-8{fill:#67c18c;}</style><linearGradient id="linear-gradient" x1="233.6" y1="289.49" x2="232.68" y2="359.07" gradientUnits="userSpaceOnUse"><stop offset="0" stop-color="#67c18c"/><stop offset="1" stop-color="#a1d5ba"/></linearGradient><linearGradient id="linear-gradient-2" x1="217.05" y1="334.87" x2="203.8" y2="323.31" gradientUnits="userSpaceOnUse"><stop offset="0" stop-color="#221f1f"/><stop offset="0.19" stop-color="#252222"/><stop offset="0.33" stop-color="#2e2b2b"/><stop offset="0.46" stop-color="#3e3b3b"/><stop offset="0.57" stop-color="#545151"/><stop offset="0.67" stop-color="#706e6e"/><stop offset="0.78" stop-color="#939292"/><stop offset="0.87" stop-color="#bdbcbc"/><stop offset="0.97" stop-color="#ecebeb"/><stop offset="1" stop-color="#fff"/></linearGradient><linearGradient id="linear-gradient-3" x1="230.97" y1="318.91" x2="217.72" y2="307.35" xlink:href="#linear-gradient-2"/></defs><title>Asset 2</title><g id="Layer_2" data-name="Layer 2"><g id="Layer_1-2" data-name="Layer 1"><path class="cls-1" d="M237.3,474.6A237.31,237.31,0,0,1,69.5,69.5,237.31,237.31,0,0,1,405.1,405.1,235.74,235.74,0,0,1,237.3,474.6Zm0-463.6C112.52,11,11,112.52,11,237.3S112.52,463.6,237.3,463.6,463.6,362.08,463.6,237.3,362.09,11,237.3,11Z"/><path class="cls-2" d="M236.53,269.65l0,0a62,62,0,0,0,19.3,9.68,101.48,101.48,0,0,1-1.55,13.37,91.27,91.27,0,0,1-2.12,9.28q2-3,3.87-6.09a103.66,103.66,0,0,0,7.19-14.84,63,63,0,0,0,10.44.87,62,62,0,0,0,36.8-12,37.41,37.41,0,0,0,4.25,1,167.12,167.12,0,0,0-44.6,57.54c-.93,2-1.83,4-2.68,6A165.35,165.35,0,0,0,255,384.73a167.63,167.63,0,0,1-61.6-2.88c.84-4.3,1.52-8.65,2-13.05a165.54,165.54,0,0,0,1.08-19c0-2.25,0-4.49-.15-6.73a165.84,165.84,0,0,0-41-102.88c-.63-.76-1.29-1.49-2-2.23a40.89,40.89,0,0,0,12.48,1.94h0a105.24,105.24,0,0,1,16.21,1.62v0a103.38,103.38,0,0,0,13.38,37,104.64,104.64,0,0,0-.88-33.93,104.31,104.31,0,0,1,33.93,18l0,0Z"/><circle class="cls-3" cx="214.6" cy="350.1" r="4.7"/><circle class="cls-3" cx="247.49" cy="350.1" r="4.7"/><circle class="cls-4" cx="215.27" cy="333.32" r="2.68"/><circle class="cls-5" cx="247.49" cy="333.32" r="2.68"/><path class="cls-6" d="M230.88,358a8.07,8.07,0,0,1-8-7.13l.93-.11a7.13,7.13,0,0,0,14.17,0l.94.11A8.08,8.08,0,0,1,230.88,358Z"/><path class="cls-7" d="M365.36,215.3a42.57,42.57,0,0,1-46.15,59,38,38,0,0,1-4.38-1,63.77,63.77,0,0,1-37.91,12.4,64.65,64.65,0,0,1-10.76-.9,61.46,61.46,0,0,1-7.61-1.77,63.79,63.79,0,0,1-19.89-10h0a102,102,0,0,0-8.19-7.23l0,0a107.48,107.48,0,0,0-35-18.57,105.94,105.94,0,0,0-12.87-3.13h0a106.78,106.78,0,0,0-16.7-1.67h0a42,42,0,0,1-12.86-2l0-.05a42.61,42.61,0,0,1-26-23.44c-.57-1.32-1.08-2.65-1.53-4a42.64,42.64,0,0,1-.05-26c.14-.43.28-.86.45-1.28,0-.15.09-.29.16-.45v0a64,64,0,0,1-2.62-18.21c0-.55,0-1.09,0-1.63A63.54,63.54,0,0,1,127,145.47a64.23,64.23,0,0,1,91.23-35.06,64.2,64.2,0,0,1,85.28,10.16,65.05,65.05,0,0,1,7,9.69,64.28,64.28,0,0,1,54.83,85Z"/><path class="cls-8" d="M238.4,256.28c4.6.64,9.2,1.41,13.81,1.9,6.44.68,12.47-.14,17.72-2.83,4.82-2.47,4.16-6.54,3.1-10.74l3.89,7.36c-.62.18-2,.19-2.51.77-5.31,6.26-12.8,8.1-22.28,6.19-.47-.1-1,.21-1.53.33Z"/><path class="cls-8" d="M233.68,146.09c-4,10.17-8.49,20.19-11.67,30.58-1.82,5.93-2.14,12.41,3.1,18.56,5.78,6.8,18,10.76,27.06,8.89a85.41,85.41,0,0,1,16.46-1.92c14.09-.1,14.33-5.22,15.72-13.95a24.18,24.18,0,0,1,.49-3.7c1.49,7.16,1.53,13.94-6.12,18.79,2.51,1.3,4.79,2.39,7,3.63s4.71,2.45,6.47,4.1c2.27,2.12,4.19,4.85,7.82,4.5a56.54,56.54,0,0,0,11.79-2.5c2-.63,3.47-2.25,5-3.59a60.29,60.29,0,0,0,4.1-4.44c-1.18,6.46-10.59,12.48-18.95,12.32-4.05-.08-5.72,1-6.12,4.18a25.34,25.34,0,0,1-2.41,7.73c.3-2.11.56-4.23.91-6.33,1.23-7.52-3.82-12.52-11.67-15.59-8.76-3.42-17.82-5.3-26.89-2.43-9.27,3-13.87,9.46-10.27,18.15a15.82,15.82,0,0,1,.52,2c-3.5-4.65-3.55-7.63-.48-17-20.73-10.51-35.09-6.1-35.38,18.47-2.78-6.93-.19-12.26,1.82-18.27l-7.54-3.83c3.81-.14,7.82,3.2,11.82.69,3.22-2,6.86-3.59,10.26-5.33-8.93-9.24-9.94-18.49-5.38-28q5.73-11.93,11.54-23.82a13.64,13.64,0,0,1,1.45-2Z"/><path class="cls-8" d="M140.15,180.26c-2.39.29-4.57,7.17-4.72,9.2-.31,4.06,1.95,7.33,4.66,10.12,5.77,6,14,6.85,21.87,5.48.21,8.78,5.38,15.45,15.54,20.4-10.15-2.05-15.38-7.67-17.25-18-3.66-.42-7.43-.62-11.12-1.31-10.61-2-16.55-10.49-14.73-19,.9-4.23-1.18-5.37-3.63-8.18a15.22,15.22,0,0,1-3.76-9.92c0-3.68,2.14-10.42,5.91-11.59a40.65,40.65,0,0,1-3.18,5.88c-3.37,5-.84,9.94,2.34,14.71C133.83,180.72,135.12,180.87,140.15,180.26Z"/><path class="cls-8" d="M310.94,256.58c2.66-1.6,5.74-2.88,7.9-4.86,4.73-4.31,10.66-6.76,17.39-8.59,5.46-1.49,11-3.39,15.44-6.19s6-7.42,5.84-12.25c-.18-5.09-.9-10.21-1.38-15.32l-.12,0,3.13,5.48,2.49-1.25-.1-.12c-2.8,4.93-2.79,10.38-3.24,15.88-.58,7-6.51,11-14,13.47a13.39,13.39,0,0,1-2.43.65c-10.25,1.34-18.69,5-25.18,11.43-1.12,1.11-3.83,1.09-5.8,1.59Z"/><path class="cls-8" d="M201.57,126.92l13.52,1.58c1.48-4.41-4.53-5-6.35-7.44,5.58,1.63,7,3.63,8.29,8.49.61,2.28,3.42,4.34,5.59,6.93,3.37-5,3.49-10.88,11.25-13.16-9,7.39-9.75,17.15-13.48,26.88.27-1.9.34-2.77.53-3.62,1.82-8.27-4-15.78-14.29-18.37-1.72-.43-3.43-.94-5.14-1.42Z"/><path class="cls-8" d="M191.59,229.13a6.28,6.28,0,0,1,3.73-1.14c4.51.09,5.89,8.25,8.88,10.78A24.17,24.17,0,0,0,218.4,244a10.87,10.87,0,0,1,3.37.42,9,9,0,0,1,2.3,1.48l11.48,9.14c-2.62-2.08-6.83-3.86-9.86-5.48-2.37-1.28-4.82-2.85-7.39-3.34a36.22,36.22,0,0,1-15-6.17C199.11,236.94,195.53,232.6,191.59,229.13Z"/><path class="cls-8" d="M355.72,208.93c-.22-.51-.57-1-.85-1.49-2.74-4.95-8-5.92-12-2.2a19.69,19.69,0,0,1-3.37,2.67c2-1.2.88-11.72.65-13.76-.47-4.1-1.36-8.76-3.47-12.36.63,1.1,1.26,2.21,1.9,3.31a17.48,17.48,0,0,0,2.21,3.66c.82.86,2.28,1.33,3.72,2.13-4.07,2.63-3.8,6.43-1.81,10.42,3.89-.05,7.35-1.55,10.25,2C354.29,205,354.85,207,355.72,208.93Z"/><path class="cls-8" d="M178.36,184.51c4.87-3.54,1.68-7.23-.29-10.88l1.5-.19c.82,2.31,2.21,4.66,2.32,6.94s1.11,3.8,3.52,5c9.76,4.8,11,6.77,9.51,15.37l4.57,2.3-10.11,0c4.12-3.12,6.31-6.83,3.11-11.6C189.55,187,184.41,185.43,178.36,184.51Z"/><path class="cls-8" d="M179.13,146.44l0,0a2.17,2.17,0,0,0,.62-.89c2.24-4.72,4.15-10,6.93-14.42a8.56,8.56,0,0,1,1.61.5c-3.38-1.24-7.73,21.41-8.1,23.16a2.48,2.48,0,0,1-.64,1.41c-.4.34-1.15.3-1.32-.2.18-1.75,1.72-3.41,1.11-5.07a3.37,3.37,0,0,0-1-1.35,9.69,9.69,0,0,0-6.73-1.92,28.59,28.59,0,0,0-7,1.57c.61-2,3-2.64,5.1-2.81a35.8,35.8,0,0,1,7.81.2A2.33,2.33,0,0,0,179.13,146.44Z"/><path class="cls-8" d="M317.67,159.74c.12.23.4.52.32.67-2.26,4.39.72,7.1,4.53,8.79-2.07,0-5.51-.73-7.33.31s-2.88,3.82-3.42,6c-1,4.09-1.35,8.34-1.91,12.13-2.81-10.49,2.19-19.34,8-28Z"/><path class="cls-8" d="M317.49,158.53c-1.79-8.38-11-13-18.12-16.19-2.05-.93-4.33-1.47-6.43-2.32,5.05,2,10.5,2.14,15.42,5.35C313,148.39,316.63,153,317.49,158.53Z"/><path class="cls-8" d="M341.83,228.88c-2.26,6.05-17.7,8-26.16,3.43C325.57,235.29,334.22,234.2,341.83,228.88Z"/><path class="cls-8" d="M274.09,137.94q1,2.7,2,5.4l1.9-.44c-1.63.38-4.78,4.38-6,5.49l-7.48,6.8C269,151.15,275.3,144.43,274.09,137.94Z"/><path class="cls-8" d="M199.82,183.38c-6.43-5.14-10.33-10.38-10.65-16.44C192.44,172,195.92,177.37,199.82,183.38Z"/><path class="cls-8" d="M310.91,256.55c-3.1.93-6.07,2.36-9.33,2.7-5.7.6-11.54.29-16.76-3.32,8.94,2.53,17.77,4.08,26.13.66Z"/><path class="cls-8" d="M274,137.29c-5.28-7-14-9.86-22.25-13.29a42.22,42.22,0,0,1,20.34,9.8c1,.88,1.22,2.34,1.8,3.53Z"/></g></g></svg>