<?xml version="1.0" encoding="utf-8"?>
<!-- Generator: Adobe Illustrator 22.0.1, SVG Export Plug-In . SVG Version: 6.00 Build 0)  -->
<svg version="1.1" id="Layer_1" xmlns="http://www.w3.org/2000/svg" xmlns:xlink="http://www.w3.org/1999/xlink" x="0px" y="0px"
	 viewBox="0 0 245.6 287.6" style="enable-background:new 0 0 245.6 287.6;" xml:space="preserve">
<style type="text/css">
	.st0{fill:url(#SVGID_1_);}
	.st1{fill:#B590A2;}
	.st2{fill:url(#SVGID_2_);}
	.st3{fill:url(#SVGID_3_);}
	.st4{fill:#3C5764;}
	.st5{fill:#8F6286;}
	.st6{fill:#67C18C;}
</style>
<title>Asset 3</title>
<g id="Layer_2_1_">
	<g id="Layer_1-2">
		
			<linearGradient id="SVGID_1_" gradientUnits="userSpaceOnUse" x1="110.2516" y1="97.0799" x2="109.3316" y2="27.4999" gradientTransform="matrix(1 0 0 -1 0 287.8898)">
			<stop  offset="0" style="stop-color:#67C18C"/>
			<stop  offset="1" style="stop-color:#A1D5BA"/>
		</linearGradient>
		<path class="st0" d="M113.2,171L113.2,171c5.8,4.3,12.4,7.6,19.3,9.7c-0.2,4.5-0.7,8.9-1.5,13.3c-0.5,3.1-1.3,6.2-2.1,9.3
			c1.4-2,2.6-4,3.9-6.1c2.8-4.7,5.2-9.7,7.2-14.8c3.4,0.6,6.9,0.9,10.4,0.9c13.2,0,26.1-4.2,36.8-12c1.4,0.4,2.8,0.7,4.2,1
			c-18.9,15.7-34.1,35.3-44.6,57.5c-0.9,2-1.8,4-2.7,6c-6.8,16-11,33-12.4,50.3c-20.5,2.8-41.4,1.9-61.6-2.9c0.8-4.3,1.5-8.6,2-13
			c0.7-6.3,1.1-12.7,1.1-19c0-2.2,0-4.5-0.2-6.7c-0.5-14-2.8-27.8-6.8-41.2c-6.8-22.8-18.5-43.8-34.2-61.7c-0.6-0.8-1.3-1.5-2-2.2
			c4,1.3,8.2,1.9,12.5,1.9l0,0c5.4,0.1,10.9,0.7,16.2,1.6l0,0c2.1,13.1,6.6,25.6,13.4,37c0.7-4.7,1-9.5,1-14.3
			c0-6.6-0.6-13.2-1.9-19.7c12.3,3.9,23.8,10,33.9,18l0,0L113.2,171z"/>
		<circle class="st1" cx="91.3" cy="251.4" r="4.7"/>
		<circle class="st1" cx="124.2" cy="251.4" r="4.7"/>
		
			<linearGradient id="SVGID_2_" gradientUnits="userSpaceOnUse" x1="93.7085" y1="51.6981" x2="80.4585" y2="63.2581" gradientTransform="matrix(1 0 0 -1 0 287.8898)">
			<stop  offset="0" style="stop-color:#221F1F"/>
			<stop  offset="0.19" style="stop-color:#252222"/>
			<stop  offset="0.33" style="stop-color:#2E2B2B"/>
			<stop  offset="0.46" style="stop-color:#3E3B3B"/>
			<stop  offset="0.57" style="stop-color:#545151"/>
			<stop  offset="0.67" style="stop-color:#706E6E"/>
			<stop  offset="0.78" style="stop-color:#939292"/>
			<stop  offset="0.87" style="stop-color:#BDBCBC"/>
			<stop  offset="0.97" style="stop-color:#ECEBEB"/>
			<stop  offset="1" style="stop-color:#FFFFFF"/>
		</linearGradient>
		<circle class="st2" cx="91.9" cy="234.6" r="2.7"/>
		
			<linearGradient id="SVGID_3_" gradientUnits="userSpaceOnUse" x1="107.6314" y1="67.6614" x2="94.3814" y2="79.2214" gradientTransform="matrix(1 0 0 -1 0 287.8898)">
			<stop  offset="0" style="stop-color:#221F1F"/>
			<stop  offset="0.19" style="stop-color:#252222"/>
			<stop  offset="0.33" style="stop-color:#2E2B2B"/>
			<stop  offset="0.46" style="stop-color:#3E3B3B"/>
			<stop  offset="0.57" style="stop-color:#545151"/>
			<stop  offset="0.67" style="stop-color:#706E6E"/>
			<stop  offset="0.78" style="stop-color:#939292"/>
			<stop  offset="0.87" style="stop-color:#BDBCBC"/>
			<stop  offset="0.97" style="stop-color:#ECEBEB"/>
			<stop  offset="1" style="stop-color:#FFFFFF"/>
		</linearGradient>
		<circle class="st3" cx="124.2" cy="234.6" r="2.7"/>
		<path class="st4" d="M107.5,259.3c-4.1,0-7.5-3.1-8-7.1l0.9-0.1c0.5,3.9,4.1,6.7,8,6.2c3.2-0.4,5.8-3,6.2-6.2l0.9,0.1
			C115.1,256.2,111.6,259.3,107.5,259.3z"/>
		<path class="st5" d="M242,116.6c9.4,21.5-0.5,46.6-22,56c-5.4,2.3-11.1,3.5-17,3.5c-2.4,0-4.8-0.2-7.1-0.6c-1.5-0.2-2.9-0.6-4.4-1
			c-11,8.1-24.3,12.4-37.9,12.4c-3.6,0-7.2-0.3-10.8-0.9c-2.6-0.4-5.1-1-7.6-1.8c-7.2-2.1-13.9-5.5-19.9-10l0,0
			c-2.6-2.6-5.3-5-8.2-7.2l0,0c-10.4-8.3-22.3-14.6-35-18.6c-4.2-1.3-8.5-2.4-12.9-3.1l0,0c-5.5-1-11.1-1.6-16.7-1.7l0,0
			c-4.4,0-8.7-0.7-12.9-2h0C18,138,8.6,129.5,3.7,118.3c-0.6-1.3-1.1-2.7-1.5-4c-2.7-8.5-2.7-17.5,0-26c0.1-0.4,0.3-0.9,0.5-1.3
			c0-0.2,0.1-0.3,0.2-0.4l0,0C0.9,80.6,0,74.4,0,68.2c0-0.5,0-1.1,0-1.6c0.2-6.7,1.4-13.4,3.7-19.7c11.8-33.5,48.5-51,82-39.2
			c3.2,1.1,6.3,2.5,9.2,4.1C123.9-8.7,164-1.7,184.5,27.4c1,1.4,1.9,2.8,2.7,4.2c35.3,3.3,61.4,34.6,58.1,69.9
			C244.8,106.6,243.7,111.7,242,116.6L242,116.6z"/>
		<path class="st6" d="M115.1,157.6c4.6,0.6,9.2,1.4,13.8,1.9c6.4,0.7,12.5-0.1,17.7-2.8c4.8-2.5,4.2-6.5,3.1-10.7
			c1.3,2.5,2.6,5,3.9,7.4c-0.6,0.2-2,0.2-2.5,0.8c-5.3,6.2-12.8,8.1-22.3,6.2c-0.5,0-1,0.1-1.5,0.3L115.1,157.6z"/>
		<path class="st6" d="M110.3,47.4c-4,10.2-8.5,20.2-11.7,30.6c-1.8,5.9-2.1,12.4,3.1,18.6c5.8,6.8,18,10.8,27.1,8.9
			c5.4-1.2,10.9-1.8,16.5-1.9c14.1-0.1,14.3-5.2,15.7-14c0.1-1.2,0.2-2.5,0.5-3.7c1.5,7.2,1.5,14-6.1,18.8c2.5,1.3,4.8,2.4,7,3.6
			s4.7,2.4,6.5,4.1c2.3,2.1,4.2,4.8,7.8,4.5c4-0.4,8-1.2,11.8-2.5c2-0.6,3.5-2.3,5-3.6c1.4-1.4,2.8-2.9,4.1-4.4
			c-1.2,6.4-10.6,12.5-18.9,12.3c-4.1-0.1-5.7,1-6.1,4.2c-0.4,2.7-1.2,5.3-2.4,7.7c0.3-2.1,0.6-4.2,0.9-6.3
			c1.2-7.5-3.8-12.5-11.7-15.6c-8.8-3.4-17.8-5.3-26.9-2.4c-9.3,2.9-13.9,9.5-10.3,18.2c0.2,0.6,0.4,1.3,0.5,1.9
			c-3.5-4.7-3.6-7.6-0.5-17c-20.7-10.5-35.1-6.1-35.4,18.5c-2.8-6.9-0.2-12.3,1.8-18.3l-7.6-3.8c3.8-0.2,7.8,3.2,11.8,0.7
			c3.2-2,6.9-3.6,10.3-5.3c-8.9-9.2-9.9-18.5-5.4-28c3.8-7.9,7.7-15.9,11.5-23.8c0.4-0.7,0.9-1.4,1.4-2L110.3,47.4z"/>
		<path class="st6" d="M16.8,81.6c-2.4,0.3-4.6,7.2-4.7,9.2c-0.3,4.1,1.9,7.3,4.7,10.1c5.8,6,14,6.8,21.9,5.5
			c0.2,8.8,5.4,15.4,15.5,20.4c-10.2-2-15.4-7.7-17.2-18c-3.7-0.4-7.4-0.6-11.1-1.3c-10.6-2-16.5-10.5-14.7-19
			c0.9-4.2-1.2-5.4-3.6-8.2C5,77.5,3.7,74,3.7,70.4c0-3.7,2.1-10.4,5.9-11.6c-0.9,2.1-2,4-3.2,5.9c-3.4,5-0.8,9.9,2.3,14.7
			C10.5,82,11.8,82.2,16.8,81.6z"/>
		<path class="st6" d="M187.6,157.9c2.7-1.6,5.7-2.9,7.9-4.9c4.7-4.3,10.7-6.8,17.4-8.6c5.5-1.5,11-3.4,15.4-6.2s6-7.4,5.8-12.3
			c-0.2-5.1-0.9-10.2-1.4-15.3h-0.1l3.1,5.5l2.5-1.3l-0.1-0.1c-2.8,4.9-2.8,10.4-3.2,15.9c-0.6,7-6.5,11-14,13.5
			c-0.8,0.3-1.6,0.5-2.4,0.6c-10.2,1.4-18.7,5-25.2,11.4C192.2,157.3,189.5,157.3,187.6,157.9L187.6,157.9z"/>
		<path class="st6" d="M78.2,28.2l13.5,1.6c1.5-4.4-4.5-5-6.3-7.4c5.6,1.6,7,3.6,8.3,8.5c0.6,2.3,3.4,4.4,5.6,6.9
			c3.4-5,3.5-10.9,11.2-13.2c-9,7.4-9.8,17.2-13.5,26.9c0.3-1.9,0.3-2.8,0.5-3.6c1.8-8.3-4-15.8-14.3-18.4c-1.7-0.4-3.4-1-5.1-1.4
			L78.2,28.2z"/>
		<path class="st6" d="M68.2,130.4c1.1-0.8,2.4-1.2,3.8-1.1c4.5,0.1,5.9,8.3,8.9,10.8c4.1,3.2,9,5.1,14.2,5.3c1.1,0,2.3,0.1,3.4,0.4
			c0.8,0.4,1.6,0.9,2.3,1.5l11.5,9.1c-2.6-2.1-6.8-3.9-9.9-5.5c-2.4-1.3-4.8-2.9-7.4-3.3c-5.4-0.9-10.5-3-15-6.2
			C75.8,138.3,72.2,133.9,68.2,130.4z"/>
		<path class="st6" d="M232.4,110.3c-0.2-0.5-0.6-1-0.9-1.5c-2.7-5-8-5.9-12-2.2c-1,1-2.2,1.9-3.4,2.7c2-1.2,0.9-11.7,0.6-13.8
			c-0.5-4.1-1.4-8.8-3.5-12.4c0.6,1.1,1.3,2.2,1.9,3.3c0.6,1.3,1.3,2.5,2.2,3.7c0.8,0.9,2.3,1.3,3.7,2.1c-4.1,2.6-3.8,6.4-1.8,10.4
			c3.9,0,7.4-1.6,10.2,2C231,106.3,231.5,108.4,232.4,110.3z"/>
		<path class="st6" d="M55,85.8c4.9-3.5,1.7-7.2-0.3-10.9l1.5-0.2c0.8,2.3,2.2,4.7,2.3,6.9s1.1,3.8,3.5,5c9.8,4.8,11,6.8,9.5,15.4
			l4.6,2.3H66c4.1-3.1,6.3-6.8,3.1-11.6C66.2,88.3,61.1,86.7,55,85.8z"/>
		<path class="st6" d="M55.8,47.8L55.8,47.8c0.3-0.2,0.5-0.5,0.6-0.9c2.2-4.7,4.2-10,6.9-14.4c0.6,0.1,1.1,0.3,1.6,0.5
			c-3.4-1.2-7.7,21.4-8.1,23.2c-0.1,0.5-0.3,1-0.6,1.4c-0.4,0.3-1.2,0.3-1.3-0.2c0.2-1.8,1.7-3.4,1.1-5.1c-0.2-0.5-0.6-1-1-1.3
			c-1.9-1.5-4.3-2.1-6.7-1.9c-2.4,0.2-4.7,0.8-7,1.6c0.6-2,3-2.6,5.1-2.8c2.6-0.2,5.2-0.2,7.8,0.2C54.7,48.1,55.3,48,55.8,47.8z"/>
		<path class="st6" d="M194.3,61.1c0.1,0.2,0.4,0.5,0.3,0.7c-2.3,4.4,0.7,7.1,4.5,8.8c-2.1,0-5.5-0.7-7.3,0.3s-2.9,3.8-3.4,6
			c-1,4.1-1.4,8.3-1.9,12.1c-2.8-10.5,2.2-19.3,8-28L194.3,61.1z"/>
		<path class="st6" d="M194.1,59.8c-1.8-8.4-11-13-18.1-16.2c-2.1-0.9-4.3-1.5-6.4-2.3c5.1,2.1,10.5,2.2,15.4,5.3
			C189.7,49.7,193.3,54.3,194.1,59.8z"/>
		<path class="st6" d="M218.5,130.2c-2.3,6-17.7,8-26.2,3.4C202.2,136.6,210.9,135.5,218.5,130.2z"/>
		<path class="st6" d="M150.8,39.3c0.7,1.8,1.3,3.6,2,5.4l1.9-0.4c-1.6,0.4-4.8,4.4-6,5.5l-7.5,6.8C145.6,52.5,152,45.7,150.8,39.3z
			"/>
		<path class="st6" d="M76.5,84.7c-6.4-5.1-10.3-10.4-10.7-16.4C69.1,73.3,72.6,78.7,76.5,84.7z"/>
		<path class="st6" d="M187.6,157.9c-3.1,0.9-6.1,2.4-9.3,2.7c-5.7,0.6-11.5,0.3-16.8-3.3C170.4,159.8,179.3,161.3,187.6,157.9
			L187.6,157.9z"/>
		<path class="st6" d="M150.6,38.6c-5.3-7-14-9.9-22.2-13.3c7.5,1.4,14.6,4.7,20.3,9.8c1,0.9,1.2,2.3,1.8,3.5L150.6,38.6z"/>
	</g>
</g>
</svg>
