<?xml version="1.0" encoding="utf-8"?>
<!-- Generator: Adobe Illustrator 22.0.1, SVG Export Plug-In . SVG Version: 6.00 Build 0)  -->
<svg version="1.1" id="Shopping_basket_1_" xmlns="http://www.w3.org/2000/svg" xmlns:xlink="http://www.w3.org/1999/xlink" x="0px"
	 y="0px" viewBox="0 0 100 100" style="enable-background:new 0 0 100 100;" xml:space="preserve">
<style type="text/css">
	.st0{fill-rule:evenodd;clip-rule:evenodd;fill:#7A2F56;}
</style>
<g id="Shopping_basket">
	<g>
		<path class="st0" d="M57.6,80.1c0.5,0,1-0.3,1.3-0.7c0.4-0.5,0.6-1.1,0.6-1.9l0-30.9c0-1.4-0.8-2.6-1.9-2.6c-1,0-1.9,1.2-1.9,2.6
			l0,30.9C55.7,78.9,56.6,80.1,57.6,80.1z M70.8,80.1c0.5,0,1-0.3,1.3-0.7c0.4-0.5,0.6-1.1,0.6-1.9l0-30.9c0-1.4-0.8-2.6-1.9-2.6
			c-1,0-1.9,1.2-1.9,2.6l0,30.9C68.9,78.9,69.8,80.1,70.8,80.1z M98.1,28.2H76.7L57.9,0.8c-0.7-1-1.9-1.1-2.7-0.1
			c-0.8,1-0.8,2.6-0.1,3.7l16.4,23.8H29.6L46,4.4c0.7-1,0.7-2.7-0.1-3.7c-0.8-1-2-0.9-2.7,0.1L24.4,28.2H1.9c-1,0-1.9,1.2-1.9,2.6
			c0,1.4,0.8,2.6,1.9,2.6h5.6L17.7,96c0.2,1.2,1,2,1.8,2h61.1c0.9,0,1.7-0.8,1.8-2L92,33.4h6.1c1,0,1.9-1.2,1.9-2.6
			C100,29.4,99.2,28.2,98.1,28.2z M79.2,92.9H21.1l-9.7-59.5h76.8L79.2,92.9z M31.2,80.1c0.5,0,1-0.3,1.3-0.7
			c0.4-0.5,0.6-1.1,0.6-1.9l0-30.9c0-1.4-0.8-2.6-1.9-2.6c-1,0-1.9,1.2-1.9,2.6l0,30.9C29.3,78.9,30.1,80.1,31.2,80.1z M44.4,80.1
			c0.5,0,1-0.3,1.3-0.7c0.4-0.5,0.6-1.1,0.6-1.9l0-30.9c0-1.4-0.8-2.6-1.9-2.6c-1,0-1.9,1.2-1.9,2.6l0,30.9
			C42.5,78.9,43.3,80.1,44.4,80.1z"/>
	</g>
</g>
</svg>
