<svg xmlns="http://www.w3.org/2000/svg" xmlns:xlink="http://www.w3.org/1999/xlink" viewBox="0 0 245.56 287.65"><defs><style>.cls-1{fill:url(#linear-gradient);}.cls-2{fill:#b590a2;}.cls-3{fill:url(#linear-gradient-2);}.cls-4{fill:url(#linear-gradient-3);}.cls-5{fill:#3c5764;}.cls-6{fill:#8f6286;}.cls-7{fill:#67c18c;}</style><linearGradient id="linear-gradient" x1="110.26" y1="190.81" x2="109.34" y2="260.39" gradientUnits="userSpaceOnUse"><stop offset="0" stop-color="#67c18c"/><stop offset="1" stop-color="#a1d5ba"/></linearGradient><linearGradient id="linear-gradient-2" x1="93.71" y1="236.19" x2="80.46" y2="224.63" gradientUnits="userSpaceOnUse"><stop offset="0" stop-color="#221f1f"/><stop offset="0.19" stop-color="#252222"/><stop offset="0.33" stop-color="#2e2b2b"/><stop offset="0.46" stop-color="#3e3b3b"/><stop offset="0.57" stop-color="#545151"/><stop offset="0.67" stop-color="#706e6e"/><stop offset="0.78" stop-color="#939292"/><stop offset="0.87" stop-color="#bdbcbc"/><stop offset="0.97" stop-color="#ecebeb"/><stop offset="1" stop-color="#fff"/></linearGradient><linearGradient id="linear-gradient-3" x1="107.63" y1="220.23" x2="94.38" y2="208.67" xlink:href="#linear-gradient-2"/></defs><title>Asset 3</title><g id="Layer_2" data-name="Layer 2"><g id="Layer_1-2" data-name="Layer 1"><path class="cls-1" d="M113.19,171l0,0a62.21,62.21,0,0,0,19.3,9.69A101.52,101.52,0,0,1,131,194a92.07,92.07,0,0,1-2.12,9.29c1.36-2,2.65-4,3.86-6.1a102.66,102.66,0,0,0,7.2-14.84,63,63,0,0,0,10.44.87,62,62,0,0,0,36.8-12,37.41,37.41,0,0,0,4.25,1,167.31,167.31,0,0,0-44.6,57.54c-.93,2-1.83,4-2.68,6a165.41,165.41,0,0,0-12.44,50.31,168,168,0,0,1-61.6-2.89c.84-4.29,1.52-8.65,2-13.05a165.41,165.41,0,0,0,1.08-19c0-2.25,0-4.49-.15-6.72a165.7,165.7,0,0,0-6.85-41.2A165.84,165.84,0,0,0,32,141.52c-.63-.75-1.29-1.49-2-2.22a40.88,40.88,0,0,0,12.48,1.93h0a104,104,0,0,1,16.21,1.63h0a103.38,103.38,0,0,0,13.38,37,103.18,103.18,0,0,0,1-14.26,103.63,103.63,0,0,0-1.86-19.67,104.5,104.5,0,0,1,33.93,18l0,0Z"/><circle class="cls-2" cx="91.26" cy="251.42" r="4.7"/><circle class="cls-2" cx="124.15" cy="251.42" r="4.7"/><circle class="cls-3" cx="91.93" cy="234.64" r="2.68"/><circle class="cls-4" cx="124.15" cy="234.64" r="2.68"/><path class="cls-5" d="M107.54,259.28a8.08,8.08,0,0,1-8-7.13l.93-.11a7.14,7.14,0,0,0,14.17,0l.94.11A8.08,8.08,0,0,1,107.54,259.28Z"/><path class="cls-6" d="M242,116.62a42.56,42.56,0,0,1-39,59.57,41,41,0,0,1-7.14-.61,36.06,36.06,0,0,1-4.38-1A63.77,63.77,0,0,1,153.58,187a64.65,64.65,0,0,1-10.76-.9,61.44,61.44,0,0,1-7.61-1.76,63.82,63.82,0,0,1-19.89-10h0a104,104,0,0,0-8.19-7.23s0,0,0,0a107.48,107.48,0,0,0-35-18.57,103.8,103.8,0,0,0-12.88-3.12v0a106.53,106.53,0,0,0-16.69-1.67h0a42,42,0,0,1-12.86-2l-.05,0a42.63,42.63,0,0,1-26-23.45q-.85-2-1.53-4a42.64,42.64,0,0,1-.05-26c.14-.44.28-.87.45-1.29,0-.15.09-.29.16-.45v0A64,64,0,0,1,0,68.17c0-.54,0-1.08,0-1.63A63.53,63.53,0,0,1,3.65,46.8,64.25,64.25,0,0,1,94.88,11.73a64.3,64.3,0,0,1,92.31,19.86,64.27,64.27,0,0,1,54.83,85Z"/><path class="cls-7" d="M115.06,157.6c4.6.64,9.2,1.41,13.81,1.9,6.44.68,12.47-.13,17.72-2.83,4.82-2.47,4.16-6.54,3.1-10.74,1.31,2.49,2.62,5,3.89,7.36-.62.18-2,.2-2.52.78-5.3,6.25-12.79,8.1-22.27,6.18a4,4,0,0,0-1.53.34Z"/><path class="cls-7" d="M110.34,47.42c-4,10.17-8.49,20.18-11.67,30.57-1.82,5.93-2.14,12.41,3.1,18.56,5.78,6.8,18,10.76,27.06,8.89a85.41,85.41,0,0,1,16.46-1.92c14.09-.1,14.33-5.21,15.71-14a25.7,25.7,0,0,1,.5-3.7C163,93,163,99.81,155.38,104.66c2.51,1.3,4.79,2.4,7,3.63s4.71,2.45,6.47,4.1c2.27,2.13,4.19,4.85,7.82,4.5a57.17,57.17,0,0,0,11.79-2.49c2-.64,3.47-2.26,5-3.6a60.06,60.06,0,0,0,4.1-4.43c-1.18,6.45-10.59,12.48-18.95,12.31-4.05-.07-5.72,1-6.12,4.18a25.34,25.34,0,0,1-2.41,7.73c.3-2.11.56-4.23.91-6.33,1.23-7.52-3.82-12.52-11.67-15.59-8.76-3.42-17.82-5.3-26.89-2.42-9.27,2.94-13.87,9.46-10.27,18.15a15.15,15.15,0,0,1,.52,1.95c-3.5-4.65-3.55-7.63-.48-17-20.73-10.5-35.09-6.1-35.39,18.48-2.77-6.93-.18-12.27,1.83-18.28L81,105.75c3.81-.15,7.82,3.19,11.82.68,3.22-2,6.86-3.58,10.26-5.33-8.93-9.24-9.94-18.49-5.38-28q5.73-11.92,11.54-23.82a13.72,13.72,0,0,1,1.45-2Z"/><path class="cls-7" d="M16.81,81.59c-2.39.29-4.57,7.16-4.72,9.19-.31,4.06,1.95,7.33,4.66,10.12,5.77,6,14,6.85,21.87,5.48.21,8.79,5.38,15.45,15.54,20.4-10.15-2-15.38-7.66-17.25-18-3.66-.41-7.43-.62-11.12-1.31-10.61-2-16.55-10.49-14.73-19,.9-4.23-1.18-5.36-3.63-8.17a15.27,15.27,0,0,1-3.76-9.93c0-3.68,2.14-10.42,5.91-11.58A41.07,41.07,0,0,1,6.4,64.7c-3.37,5-.84,9.94,2.34,14.71C10.49,82,11.78,82.2,16.81,81.59Z"/><path class="cls-7" d="M187.6,157.9c2.66-1.6,5.74-2.88,7.9-4.85,4.73-4.31,10.66-6.77,17.39-8.6,5.46-1.49,11-3.39,15.44-6.19s6-7.42,5.84-12.25c-.18-5.09-.9-10.21-1.38-15.32l-.12,0,3.13,5.49,2.49-1.26-.1-.12c-2.8,4.93-2.79,10.39-3.24,15.88-.58,7-6.51,11-14,13.47a13.39,13.39,0,0,1-2.43.65c-10.25,1.35-18.7,5-25.19,11.43-1.11,1.11-3.82,1.09-5.79,1.59Z"/><path class="cls-7" d="M78.23,28.24l13.52,1.58c1.48-4.41-4.53-5-6.35-7.44C91,24,92.39,26,93.69,30.87c.61,2.28,3.42,4.35,5.59,6.93,3.37-5,3.49-10.88,11.25-13.16-9,7.39-9.75,17.15-13.48,26.88.27-1.9.34-2.77.53-3.62,1.82-8.26-4-15.78-14.29-18.36-1.72-.44-3.43-.95-5.14-1.43Z"/><path class="cls-7" d="M68.25,130.45A6.34,6.34,0,0,1,72,129.31c4.51.09,5.89,8.26,8.88,10.78a24.24,24.24,0,0,0,14.2,5.26,10.58,10.58,0,0,1,3.37.42,8.74,8.74,0,0,1,2.3,1.47l11.48,9.14c-2.62-2.08-6.83-3.86-9.86-5.48-2.37-1.27-4.82-2.85-7.39-3.34a36.08,36.08,0,0,1-15-6.17C75.77,138.27,72.19,133.92,68.25,130.45Z"/><path class="cls-7" d="M232.38,110.26c-.22-.52-.57-1-.85-1.5-2.74-5-8-5.92-12-2.2a19.69,19.69,0,0,1-3.37,2.67c2-1.2.88-11.72.65-13.76-.47-4.1-1.36-8.75-3.47-12.36.63,1.11,1.26,2.21,1.9,3.31a17.48,17.48,0,0,0,2.21,3.66c.82.86,2.28,1.34,3.72,2.13-4.07,2.63-3.8,6.44-1.81,10.42,3.89,0,7.35-1.55,10.25,2C231,106.31,231.51,108.36,232.38,110.26Z"/><path class="cls-7" d="M55,85.83c4.87-3.54,1.68-7.23-.29-10.87l1.5-.2c.82,2.32,2.21,4.66,2.32,6.94s1.11,3.8,3.52,5c9.76,4.8,11,6.77,9.51,15.36l4.57,2.3-10.11,0c4.12-3.12,6.31-6.83,3.11-11.59C66.21,88.32,61.07,86.75,55,85.83Z"/><path class="cls-7" d="M55.79,47.77l0,0a2.17,2.17,0,0,0,.62-.89c2.24-4.72,4.15-10,6.93-14.42a8.56,8.56,0,0,1,1.61.5c-3.38-1.24-7.73,21.42-8.1,23.16a2.45,2.45,0,0,1-.64,1.41c-.4.34-1.15.3-1.32-.19.18-1.76,1.72-3.42,1.11-5.08a3.37,3.37,0,0,0-1-1.35A9.69,9.69,0,0,0,48.26,49a28.59,28.59,0,0,0-7,1.57c.61-2,3-2.64,5.1-2.81a35.8,35.8,0,0,1,7.81.2A2.38,2.38,0,0,0,55.79,47.77Z"/><path class="cls-7" d="M194.33,61.06c.12.23.4.53.32.68-2.26,4.38.72,7.09,4.53,8.79-2.07,0-5.51-.74-7.33.3s-2.88,3.82-3.42,6c-1,4.1-1.35,8.34-1.91,12.13-2.81-10.49,2.19-19.34,8-28Z"/><path class="cls-7" d="M194.15,59.85c-1.79-8.38-11-13-18.12-16.19-2.05-.93-4.33-1.46-6.43-2.32,5.05,2.06,10.5,2.15,15.42,5.35C189.66,49.71,193.29,54.28,194.15,59.85Z"/><path class="cls-7" d="M218.49,130.21c-2.26,6-17.7,8-26.16,3.42C202.23,136.61,210.88,135.52,218.49,130.21Z"/><path class="cls-7" d="M150.75,39.26q1,2.7,2,5.4l1.9-.43c-1.63.37-4.78,4.37-6,5.48l-7.48,6.8C145.61,52.48,152,45.75,150.75,39.26Z"/><path class="cls-7" d="M76.48,84.7c-6.43-5.13-10.33-10.37-10.65-16.44C69.1,73.31,72.58,78.69,76.48,84.7Z"/><path class="cls-7" d="M187.57,157.87c-3.1.94-6.07,2.36-9.33,2.7-5.7.6-11.54.29-16.76-3.31,8.94,2.52,17.77,4.07,26.12.65Z"/><path class="cls-7" d="M150.62,38.61c-5.27-7-14-9.86-22.24-13.29a42.22,42.22,0,0,1,20.34,9.8c1,.88,1.22,2.34,1.8,3.53Z"/></g></g></svg>